<?xml version="1.0" encoding="utf-8"?>
<!-- Generator: Adobe Illustrator 24.1.0, SVG Export Plug-In . SVG Version: 6.00 Build 0)  -->
<svg version="1.0" id="Layer_38" xmlns="http://www.w3.org/2000/svg" xmlns:xlink="http://www.w3.org/1999/xlink" x="0px" y="0px"
	 viewBox="0 0 1271.6 1050" style="enable-background:new 0 0 1271.6 1050;" xml:space="preserve">
<style type="text/css">
	.st0{fill:#D7F2FF;}
	.st1{fill:#BACAD1;}
	.st2{fill:#A7B3B7;}
	.st3{fill:#88D0F6;}
	.st4{fill:#424242;}
	.st5{fill:#F8F3F1;}
	.st6{fill:#E5E1E0;}
	.st7{fill:#319F5C;}
	.st8{fill:#378758;}
	.st9{fill:#6C5E43;}
	.st10{fill:#E8E7B8;}
	.st11{fill:#D8D5A0;}
	.st12{fill:#BAB67F;}
	.st13{fill:#329E5D;}
	.st14{fill:#378657;}
	.st15{fill:#3274CB;}
	.st16{fill:#6596D8;}
	.st17{fill:#371841;}
	.st18{fill:#FF9B87;}
	.st19{fill:#E88B7C;}
	.st20{fill:#D9F7FF;}
	.st21{fill:#F3FDFF;}
	.st22{fill:#BE3ACC;}
	.st23{opacity:0.46;}
	.st24{fill:#E593F9;}
	.st25{fill:#FFFFFF;}
	.st26{opacity:0.6;}
	.st27{fill:#AC39BC;}
	.st28{fill:#F47A66;}
	.st29{fill:#F5796B;}
	.st30{fill:#E6524D;}
	.st31{fill:#FFFFFD;}
	.st32{fill:#F8B193;}
	.st33{fill:#FFF2DC;}
	.st34{fill:#6C3EB5;}
	.st35{fill:#422972;}
	.st36{fill:#513793;}
	.st37{fill:#EFA186;}
	.st38{fill:#C48074;}
	.st39{fill:#D18879;}
	.st40{fill:#E09480;}
	.st41{fill:#FDFFFF;}
	.st42{fill:#A2DBDB;}
	.st43{fill:#C2EFEF;}
	.st44{fill:#FFC552;}
	.st45{opacity:0.7;}
	.st46{fill:#FFA300;}
	.st47{fill:#033872;}
	.st48{fill:#042E54;}
	.st49{clip-path:url(#SVGID_2_);fill:#FFFFFF;}
	.st50{clip-path:url(#SVGID_2_);fill:#FEFEFE;}
	.st51{clip-path:url(#SVGID_2_);fill:#FDFDFD;}
	.st52{clip-path:url(#SVGID_2_);fill:#FCFCFC;}
	.st53{clip-path:url(#SVGID_2_);fill:#FBFBFB;}
	.st54{clip-path:url(#SVGID_2_);fill:#FBFAFA;}
	.st55{clip-path:url(#SVGID_2_);fill:#FAF9F9;}
	.st56{clip-path:url(#SVGID_2_);fill:#F9F8F8;}
	.st57{clip-path:url(#SVGID_2_);fill:#F8F7F7;}
	.st58{clip-path:url(#SVGID_2_);fill:#F7F6F6;}
	.st59{clip-path:url(#SVGID_2_);fill:#F6F6F5;}
	.st60{clip-path:url(#SVGID_2_);fill:#F5F5F4;}
	.st61{clip-path:url(#SVGID_2_);fill:#F4F4F3;}
	.st62{clip-path:url(#SVGID_2_);fill:#F4F3F2;}
	.st63{clip-path:url(#SVGID_2_);fill:#F3F2F1;}
	.st64{clip-path:url(#SVGID_2_);fill:#F2F1F0;}
	.st65{clip-path:url(#SVGID_2_);fill:#F1F0EF;}
	.st66{clip-path:url(#SVGID_2_);fill:#F0EFEE;}
	.st67{clip-path:url(#SVGID_2_);fill:#EFEEED;}
	.st68{clip-path:url(#SVGID_2_);fill:#EEEDEC;}
	.st69{clip-path:url(#SVGID_2_);fill:#EDECEB;}
	.st70{clip-path:url(#SVGID_2_);fill:#EDEBEA;}
	.st71{clip-path:url(#SVGID_2_);fill:#ECEAE9;}
	.st72{clip-path:url(#SVGID_2_);fill:#EBE9E8;}
	.st73{clip-path:url(#SVGID_2_);fill:#EAE8E7;}
	.st74{clip-path:url(#SVGID_2_);fill:#E9E7E6;}
	.st75{clip-path:url(#SVGID_2_);fill:#E8E6E5;}
	.st76{clip-path:url(#SVGID_2_);fill:#E7E5E4;}
	.st77{clip-path:url(#SVGID_2_);fill:#E6E4E3;}
	.st78{clip-path:url(#SVGID_2_);fill:#E6E4E1;}
	.st79{clip-path:url(#SVGID_2_);fill:#E5E3E0;}
	.st80{clip-path:url(#SVGID_2_);fill:#E4E2DF;}
	.st81{clip-path:url(#SVGID_2_);fill:#E3E1DE;}
	.st82{clip-path:url(#SVGID_2_);fill:#E2E0DD;}
	.st83{clip-path:url(#SVGID_2_);fill:#E1DFDC;}
	.st84{clip-path:url(#SVGID_2_);fill:#E0DEDB;}
	.st85{clip-path:url(#SVGID_2_);fill:#DFDDDA;}
	.st86{clip-path:url(#SVGID_2_);fill:#DFDCD9;}
	.st87{clip-path:url(#SVGID_2_);fill:#DEDBD8;}
	.st88{clip-path:url(#SVGID_2_);fill:#DDDAD7;}
	.st89{clip-path:url(#SVGID_2_);fill:#DCD9D6;}
	.st90{clip-path:url(#SVGID_2_);fill:#DBD8D5;}
	.st91{clip-path:url(#SVGID_2_);fill:#DAD7D4;}
	.st92{clip-path:url(#SVGID_2_);fill:#D9D6D3;}
	.st93{clip-path:url(#SVGID_2_);fill:#D8D5D2;}
	.st94{clip-path:url(#SVGID_2_);fill:#D8D4D1;}
	.st95{clip-path:url(#SVGID_2_);fill:#D7D3D0;}
	.st96{clip-path:url(#SVGID_2_);fill:#D6D2CF;}
	.st97{clip-path:url(#SVGID_2_);fill:#D5D2CE;}
	.st98{clip-path:url(#SVGID_2_);fill:#D4D1CD;}
	.st99{clip-path:url(#SVGID_2_);fill:#D3D0CC;}
	.st100{clip-path:url(#SVGID_2_);fill:#D2CFCB;}
	.st101{clip-path:url(#SVGID_2_);fill:#D1CECA;}
	.st102{clip-path:url(#SVGID_2_);fill:#D1CDC9;}
	.st103{clip-path:url(#SVGID_2_);fill:#D0CCC8;}
	.st104{clip-path:url(#SVGID_2_);fill:#CFCBC7;}
	.st105{clip-path:url(#SVGID_2_);fill:#CECAC6;}
	.st106{clip-path:url(#SVGID_2_);fill:#CDC9C5;}
	.st107{clip-path:url(#SVGID_2_);fill:#CFCCC8;}
	.st108{clip-path:url(#SVGID_2_);fill:#D0CDC9;}
	.st109{clip-path:url(#SVGID_2_);fill:#D3CFCC;}
	.st110{clip-path:url(#SVGID_2_);fill:#D3D0CD;}
	.st111{clip-path:url(#SVGID_2_);fill:#D4D1CE;}
	.st112{clip-path:url(#SVGID_2_);fill:#D5D2CF;}
	.st113{clip-path:url(#SVGID_2_);fill:#D6D3D0;}
	.st114{clip-path:url(#SVGID_2_);fill:#D7D4D1;}
	.st115{clip-path:url(#SVGID_2_);fill:#D7D5D2;}
	.st116{clip-path:url(#SVGID_2_);fill:#D8D6D3;}
	.st117{clip-path:url(#SVGID_2_);fill:#D9D7D4;}
	.st118{clip-path:url(#SVGID_2_);fill:#DAD8D5;}
	.st119{clip-path:url(#SVGID_2_);fill:#DBD9D6;}
	.st120{clip-path:url(#SVGID_2_);fill:#DCDAD8;}
	.st121{clip-path:url(#SVGID_2_);fill:#DCDAD9;}
	.st122{clip-path:url(#SVGID_2_);fill:#DDDBDA;}
	.st123{clip-path:url(#SVGID_2_);fill:#DEDCDB;}
	.st124{clip-path:url(#SVGID_2_);fill:#DFDDDC;}
	.st125{clip-path:url(#SVGID_2_);fill:#E0DEDD;}
	.st126{clip-path:url(#SVGID_2_);fill:#E0DFDE;}
	.st127{clip-path:url(#SVGID_2_);fill:#E1E0DF;}
	.st128{clip-path:url(#SVGID_2_);fill:#E2E1E0;}
	.st129{clip-path:url(#SVGID_2_);fill:#E3E2E1;}
	.st130{clip-path:url(#SVGID_2_);fill:#E4E3E2;}
	.st131{clip-path:url(#SVGID_2_);fill:#E4E4E3;}
	.st132{clip-path:url(#SVGID_2_);fill:#E5E5E4;}
	.st133{clip-path:url(#SVGID_2_);fill:#E6E5E5;}
	.st134{clip-path:url(#SVGID_2_);fill:#E7E6E6;}
	.st135{clip-path:url(#SVGID_2_);fill:#E8E7E7;}
	.st136{clip-path:url(#SVGID_2_);fill:#E8E8E8;}
	.st137{clip-path:url(#SVGID_2_);fill:#E9E9E9;}
	.st138{clip-path:url(#SVGID_2_);fill:#EAEAEA;}
	.st139{fill:#6D7E38;}
	.st140{fill:#AABC44;}
	.st141{fill:#020202;}
	.st142{fill:#6F8137;}
</style>
<g>
	<g>
		<g>
			<rect x="335.3" y="165.3" class="st0" width="596.3" height="679.4"/>
		</g>
		<g>
			<polygon class="st1" points="411.4,373.1 522.6,441.4 491.2,441.4 491.2,541.1 924.2,541.1 924.2,871 372.3,871 372.3,399.4 			
				"/>
		</g>
		<g>
			<polygon class="st2" points="478.1,825.2 478.1,669.4 461.1,657.8 461.1,618.9 913.7,618.9 913.7,824.9 			"/>
		</g>
		<g>
			<polygon class="st3" points="374.7,649.4 400.9,670.4 400.9,761.8 622,761.8 622,784.9 598.4,784.9 598.4,812.2 673,812.2 
				673,703 922.9,703 922.9,870 374.7,870 			"/>
		</g>
		<g>
			<rect x="335.3" y="144.3" class="st4" width="596.3" height="21.1"/>
		</g>
		<g>
			<rect x="335.3" y="481.9" class="st4" width="596.3" height="21.1"/>
		</g>
		<g>
			<rect x="368.1" y="844.7" class="st5" width="579.2" height="73.7"/>
		</g>
		<g>
			<rect x="335.3" y="860.7" class="st6" width="612.1" height="57.7"/>
		</g>
		<g>
			<path class="st7" d="M874.9,709.7c0,0-20.5-27-21-31c-0.4-4,3.1-8.8,3.1-8.8l14.5,10.9l-13.6-21.4l1.7-18.6l21.8,18.2l-10.3-26.4
				l19.3-14.5l10.3,17.2l-5-21.4l22.6-8.4l5.9,9.6l2.9-14.5l25.4-1.7l-24.8,25.8L881.2,691L874.9,709.7"/>
		</g>
		<g>
			<path class="st8" d="M876.7,714.2v-6.6l34.4-10.5l-17.2-6l24,1.1l9.9-11.3l-19.6-4.5h22.9l5.7-19.3l-18.4-12l22,1.5l3.3-14.4
				l-8.4-6.9h11.7l5.4-26.2c0,0-70.1,46.5-77.6,104.1l-1.5,11.2H876.7z"/>
		</g>
		<g>
			<rect x="111.3" y="85.5" class="st9" width="1076.1" height="17.1"/>
		</g>
		<g>
			<path class="st10" d="M910.2,102.6l2.9,841.7c0,0,4.9,9.5,22.3,10.2c4.6-7.9,4.6-7.9,4.6-7.9V112.8c0,0-11.5,4-24.3-10.2H910.2z"
				/>
		</g>
		<g>
			<path class="st11" d="M960.6,102.6c0,0-6.3,13.3-25.2,9.6v842.3c0,0,29.2,3.3,33.5-13.9v-838H960.6z"/>
		</g>
		<g>
			<path class="st10" d="M971.4,102.6c0,0,7.2,10.7,24.3,9.3c17.2-1.4,16.5-6.9,18.9-9.3h7.7v839.1c0,0-0.6,12.9-28.9,12.8
				c-28.3-0.2-28.1-13.6-28.1-13.6V102.6H971.4z"/>
		</g>
		<g>
			<path class="st12" d="M1025,102.6c0,0,1,9.1,21.5,10c4.5,7.3,4.5,7.3,4.5,7.3l-0.5,836.3c0,0-12.7,5.8-29.9-12.2l-1.1-841.4H1025
				z"/>
		</g>
		<g>
			<path class="st10" d="M1046.5,956.7c0,0,25.2-1.9,26.6-14.1c0,0,7.7,10.6,15.2,11.2c7.5,0.6,5.4-7.9,5.4-7.9l5.7-834.3
				c0,0-13.3,1.1-20.3-8.9h-10.6c0,0-4.3,13-22,10V956.7z"/>
		</g>
		<g>
			<path class="st11" d="M1130.2,100.6c0,0-9.5,12.7-38,10.8l-3.8,842.4c0,0,40,5.2,40-12.7C1128.3,923.1,1130.2,100.6,1130.2,100.6
				z"/>
		</g>
		<g>
			<path class="st10" d="M377.2,102.6l-2.9,841.7c0,0-4.9,9.5-22.3,10.2c-4.6-7.9-4.6-7.9-4.6-7.9V112.8c0,0,11.5,4,24.3-10.2H377.2
				z"/>
		</g>
		<g>
			<path class="st12" d="M326.8,102.6c0,0,6.3,13.3,25.2,9.6v842.3c0,0-29.2,3.3-33.5-13.9v-838H326.8z"/>
		</g>
		<g>
			<path class="st11" d="M315.9,102.6c0,0-7.2,10.7-24.3,9.3c-17.2-1.4-16.5-6.9-18.9-9.3H265v839.1c0,0,0.6,12.9,28.9,12.8
				c28.3-0.2,28.1-13.6,28.1-13.6V102.6H315.9z"/>
		</g>
		<g>
			<path class="st10" d="M262.4,102.6c0,0-1,9.1-21.5,10c-4.5,7.3-4.5,7.3-4.5,7.3l0.5,836.3c0,0,12.7,5.8,29.9-12.2l1.1-841.4
				H262.4z"/>
		</g>
		<g>
			<path class="st11" d="M240.9,956.7c0,0-25.2-1.9-26.6-14.1c0,0-7.7,10.6-15.2,11.2c-7.5,0.6-5.4-7.9-5.4-7.9L188,111.5
				c0,0,13.3,1.1,20.3-8.9h10.6c0,0,4.3,13,22,10V956.7z"/>
		</g>
		<g>
			<path class="st10" d="M157.2,100.6c0,0,9.5,12.7,38,10.8l3.8,842.4c0,0-40,5.2-40-12.7C159.1,923.1,157.2,100.6,157.2,100.6z"/>
		</g>
		<g>
			<polygon class="st8" points="836.3,698.8 851.8,674.9 838.5,540.3 829.1,527.2 814.2,546 822.4,517.9 796.7,484 782.3,494.4 
				784.3,472.4 740.9,446 782.3,510.8 804.1,559.3 			"/>
		</g>
		<g>
			<path class="st13" d="M740.9,446c0,0,97.7,109.1,97.7,269.9h-4.7l-0.4-14.5l-37.9-49l-16.6-44.8l25.6,3l-25.2-11.9l-7.7-43.9
				l25.2-0.9l-29-19.6l-7.2-31.3l12.5-3.2l-15-6.5L740.9,446z"/>
		</g>
		<g>
			<path class="st14" d="M818.5,712.7c0,0,20.5-27,21-31c0.4-4-3.1-8.8-3.1-8.8l-14.5,10.9l13.6-21.4l-1.7-18.6L812,662l10.3-26.4
				L803,621.1l-10.3,17.2l5-21.4l-22.6-8.4l-5.9,9.6l-2.9-14.5l-25.4-1.7l24.8,25.8l46.5,66.2L818.5,712.7"/>
		</g>
		<g>
			<path class="st14" d="M849.5,695.2c0,0,34.8-45.9,36.5-52h-18.2l25.7-19.9l11.9-46.4l-31.5,7.8l33.8-32.9l-2.3-48.7l-22,12.3
				l22-28.2l-5.5-46.8l-13.8,1.7l11.2-14.7l-3.8-30.3l-5.7-2.6l5-7.9l-6.7-24.9l-36.5,309.8V695.2"/>
		</g>
		<g>
			<path class="st7" d="M816.7,717.3v-6.6l-34.4-10.5l17.2-6l-24,1.1l-9.9-11.3l19.6-4.5h-22.9l-5.7-19.3l18.4-12l-22,1.5l-3.3-14.4
				l8.4-6.9h-11.7l-5.4-26.2c0,0,70.1,46.5,77.6,104.1l1.5,11.2H816.7z"/>
		</g>
		<g>
			<path class="st13" d="M847.5,691.4c0,0-21.3-42.5-17.8-63.2l17.8,10.3l-18.2-20.7v-51.1l22.8,16.7l-22.8-26.4l11.4-58l24,14.9
				L847,477l12-39.7l14.4,3.4l-9.2-14.9l11.5-32.2h5.2l-3.4-10.3L886,365l-32.2,324.1l-6.3,28.2h-5.2L847.5,691.4z"/>
		</g>
		<g>
			<polygon class="st15" points="792.7,755.3 807.6,844.7 881.6,844.7 895,755.3 			"/>
		</g>
		<g>
			<path class="st16" d="M897.8,762.7H787.9c-4.1,0-7.5-3.3-7.5-7.5v-35.4c0-4.1,3.3-7.5,7.5-7.5h109.9c4.1,0,7.5,3.3,7.5,7.5v35.4
				C905.3,759.3,902,762.7,897.8,762.7z"/>
		</g>
	</g>
	<g>
		<path class="st17" d="M268.4,474.6c0,0-54.8,0.4-54.8,48.1c-2.7,19.6-10.6,33.6-15.3,40.7s-12.9,13.7-12.9,28.2
			c0,14.5-20.7,36.4-19.9,46.1s34.8,11.7,34.8,11.7s13.7-25.8,13.7-36s-6.3,36-6.3,36s39.1,6.3,60.6,2.3c21.5-3.9,55.5,1.3,55.5,1.3
			s52.4-4.8,58.7-16.5c-5.5-13.7-16.4-27.8-15.6-34.4c0.8-6.6,7,8.6,11.7,12.1c4.7,3.5,14.1,13.3,14.1,17.6s22.3-7.4,22.3-7.4
			s-22.7-34.3-36.4-38.4c-2.7-12-14.5-39-30.1-44.5C345.4,523.5,336.8,450.8,268.4,474.6z"/>
	</g>
	<g>
		<path class="st18" d="M344.4,676l-17.9,28.3l-84.5-9.1l-12.2-23.7l-5.7-11.2c0,0,14.1-5.6,20.1-22.6c6-17,5.7-24.2,5.7-24.2h54.4
			c0,0,1,5.4,3.3,12.6c3.7,11.7,10.9,27.9,22.6,32.3C349,665.6,344.4,676,344.4,676z"/>
	</g>
	<g>
		<path class="st19" d="M307.5,626c-20,18.7-54.2,35.3-77.7,45.4l-5.7-11.2c0,0,14.1-5.6,20.1-22.6c6-17,5.7-24.2,5.7-24.2h54.4
			C304.2,613.5,305.2,618.9,307.5,626z"/>
	</g>
	<g>
		<path class="st18" d="M188.5,749.2l-3.9-5.1c0,0-21.6,55.4-62.9,66.5c-41.2,11.1-26.3-50.8-22.8-60.2c2.3-6.5,20-42.7,31-65.1
			c5.1-10.4,8.8-17.8,8.8-17.8s2.9-9.4,4.6-18.1c1-4.9,1.6-9.6,1.1-12.2c-1.2-7.4-8.6-25.4-11.1-29.5c-2.1-3.5-15.3-20.7-19.6-28.4
			c-0.9-1.7-0.5-3.8,1-5c0.7-0.5,1.6-0.8,2.4-0.8c1.1,0,2.2,0.5,3,1.4l16.8,19.6l2.2-2.4L124,557.2c-1-2.4,0-5.2,2.3-6.3
			c0.7-0.3,1.4-0.5,2.1-0.5c1.9,0,3.6,1,4.5,2.8l15.3,33.1l5.2-2l-9.8-43c-0.5-2.7,1.3-5.3,3.9-6c0.4-0.1,0.8-0.2,1.2-0.2
			c2.4,0,4.6,1.6,5.1,4.1l11.9,41.9l7.3-0.7l0.9-35.3c0.4-3.3,2.2-5.9,5.5-5.5c1.6,0.2,3,0.9,4,2c1,1.1,1.6,2.6,1.6,4.1v43.4
			c0,0,1.4,15.2,3.6,16c1.4,0.5,2.6-4.9,3.4-10.1c0.6-3.3,1-6.4,1.2-7.9c0.6-3.9,6.3-7.5,9.1-7.3c2.8,0.2,5.1,1.2,3.8,5.1
			c-1.2,3.8-3.2,18-2.6,23c0.6,5.1-0.2,22.8-9.7,34.8c-9.5,11.9-13.1,21.4-13.1,23c0,1.6,16.6-6.1,24.5-0.2c0,0,0,0,0.1,0
			c0.7,0.1,4.3,0.6,5.8,4.2C212.7,674,221.4,720.5,188.5,749.2z"/>
	</g>
	<g>
		<path class="st20" d="M188.1,627.8c-0.8,0.6-1.6,1.2-2.4,1.7c1.7,6.8-0.5,14.2-6.3,18.8c-4.3,3.5-9.8,4.6-14.9,3.7
			c-0.7,3-3,12-8.5,16.3c-6.6,5.3-8.5,2.5-8.5,2.5c1,4-3.1,5.5-3.1,5.5c3.3,7.7-3.8,11.2-5.9,11.8c-1.9,0.5-5.4,1.3-8.6-2.7
			c-0.4-0.5-0.9-1.2-1.3-1.9c-3.5-6.1,2-10.1,2-10.1c-2.2-6.6,2.3-9,2.3-9s-3.3-6.3,3.9-12c2.4-1.9,4.6-2.7,6.5-3
			c3.9-0.5,6.6,1.4,6.6,1.4c0.4-2.9,2-4.9,3.2-6.2c-4.8-6.8-4.4-16,0.8-22.2c-6.6-10-4.6-23.6,5-31.2c7.7-6.2,18.1-6.7,26.3-2.1v0.3
			c0,0,1.4,15.2,3.6,16c1.4,0.5,2.6-4.9,3.4-10.1C199.8,605.3,198.1,619.8,188.1,627.8z"/>
	</g>
	<g>
		<circle class="st21" cx="151.3" cy="603.8" r="7.2"/>
	</g>
	<g>
		<circle class="st21" cx="196.9" cy="632.7" r="6.2"/>
	</g>
	<g>
		<path class="st22" d="M368.2,891.6c2,19.5,4.1,66,0,78.8l-125.3,1.2l-69.9,0.7c0,0,5.2-57.8,22.9-80.4
			c17.7-22.6,0.3-84.2-3.8-96.7c-4.1-12.5-10.2-40.1-7-50.2c0,0,6.7,4.4,13.1-7.8c6.4-12.2,23.7-52.2,5.5-72c0,0-2.8-1.3-0.6-2.4
			c1-0.5,5.8-1.8,10.9-3c6.8-1.6,14.3-3.1,14.6-2.1c0.5,1.7-0.8,5.9,5.5,11.7c6.3,5.8,31.8,28.5,84.2,21.3c0,0,32.2-4.5,11.7-32.4
			c0,0,21.7,6.1,29.9,14.5c8.2,8.4,21.5,34.4,23.1,59.4c1.5,25.1-11.3,64.2-13.3,82.5C367.7,833.2,366.1,872.1,368.2,891.6z"/>
	</g>
	<g class="st23">
		<g>
			<path class="st24" d="M257.7,726.9c-3,0.9-2.7,8.2-2.7,8.2s-6.8-1.2-7.6,2.3s1.1,5.5,4.3,6c0.2,4.6-0.2,7.9,4.7,8.7
				c4.9,0.8,5.8-4.3,5.8-4.3s4.8,3.5,8.1,1.7c3.3-1.9,2.9-7.7,0-9.6c0.9-1.9,4.4-2.2,3.5-6.7c-0.8-4.5-9.3-1.7-9.3-1.7
				S263.8,725,257.7,726.9z"/>
		</g>
		<g>
			<circle class="st25" cx="261.6" cy="739.4" r="3.5"/>
		</g>
	</g>
	<g class="st23">
		<g>
			<path class="st24" d="M335.1,701.8c-3,0.9-2.7,8.2-2.7,8.2s-6.8-1.2-7.6,2.3s1.1,5.5,4.3,6c0.2,4.6-0.2,7.9,4.7,8.7
				c4.9,0.8,5.8-4.3,5.8-4.3s4.8,3.5,8.1,1.7c3.3-1.9,2.9-7.7,0-9.6c0.9-1.9,4.4-2.2,3.5-6.7c-0.8-4.5-9.3-1.7-9.3-1.7
				S341.2,699.8,335.1,701.8z"/>
		</g>
		<g>
			<circle class="st25" cx="339" cy="714.2" r="3.5"/>
		</g>
	</g>
	<g class="st23">
		<g>
			<path class="st24" d="M224.5,755.4c-2.6,0.8-2.3,7-2.3,7s-5.8-1.1-6.5,2s1,4.7,3.7,5.2c0.2,3.9-0.2,6.8,4,7.5
				c4.2,0.7,5-3.7,5-3.7s4.1,3,7,1.4c2.9-1.6,2.5-6.6,0-8.2c0.8-1.6,3.8-1.9,3-5.7s-8-1.5-8-1.5S229.8,753.7,224.5,755.4z"/>
		</g>
		<g>
			<circle class="st25" cx="227.8" cy="766.2" r="3"/>
		</g>
	</g>
	<g class="st23">
		<g>
			<path class="st24" d="M199.1,764.8c-2.6,0.8-2.3,7-2.3,7s-5.8-1.1-6.5,2s1,4.7,3.7,5.2c0.2,3.9-0.2,6.8,4,7.5
				c4.2,0.7,5-3.7,5-3.7s4.1,3,7,1.4c2.9-1.6,2.5-6.6,0-8.2c0.8-1.6,3.8-1.9,3-5.7s-8-1.5-8-1.5S204.4,763.1,199.1,764.8z"/>
		</g>
		<g>
			<circle class="st25" cx="202.4" cy="775.5" r="3"/>
		</g>
	</g>
	<g class="st23">
		<g>
			<path class="st24" d="M301.6,737c-2.6,0.8-2.3,7-2.3,7s-5.8-1.1-6.5,2s1,4.7,3.7,5.2c0.2,3.9-0.2,6.8,4,7.5c4.2,0.7,5-3.7,5-3.7
				s4.1,3,7,1.4c2.9-1.6,2.5-6.6,0-8.2c0.8-1.6,3.8-1.9,3-5.7s-8-1.5-8-1.5S306.9,735.3,301.6,737z"/>
		</g>
		<g>
			<circle class="st25" cx="304.9" cy="747.7" r="3"/>
		</g>
	</g>
	<g class="st23">
		<g>
			<path class="st24" d="M302.4,703.5c-2.6,0.8-2.3,7-2.3,7s-5.8-1.1-6.5,2s1,4.7,3.7,5.2c0.2,3.9-0.2,6.8,4,7.5
				c4.2,0.7,5-3.7,5-3.7s4.1,3,7,1.4c2.9-1.6,2.5-6.6,0-8.2c0.8-1.6,3.8-1.9,3-5.7s-8-1.5-8-1.5S307.7,701.8,302.4,703.5z"/>
		</g>
		<g>
			<circle class="st25" cx="305.8" cy="714.2" r="3"/>
		</g>
	</g>
	<g class="st23">
		<g>
			<path class="st24" d="M271.5,697.2c-2.6,0.8-2.3,7-2.3,7s-5.8-1.1-6.5,2s1,4.7,3.7,5.2c0.2,3.9-0.2,6.8,4,7.5
				c4.2,0.7,5-3.7,5-3.7s4.1,3,7,1.4c2.9-1.6,2.5-6.6,0-8.2c0.8-1.6,3.8-1.9,3-5.7s-8-1.5-8-1.5S276.8,695.5,271.5,697.2z"/>
		</g>
		<g>
			<circle class="st25" cx="274.8" cy="708" r="3"/>
		</g>
	</g>
	<g class="st23">
		<g>
			<path class="st24" d="M239.7,690.6c-2.6,0.8-2.3,7-2.3,7s-5.8-1.1-6.5,2s1,4.7,3.7,5.2c0.2,3.9-0.2,6.8,4,7.5
				c4.2,0.7,5-3.7,5-3.7s4.1,3,7,1.4c2.9-1.6,2.5-6.6,0-8.2c0.8-1.6,3.8-1.9,3-5.7s-8-1.5-8-1.5S244.9,689,239.7,690.6z"/>
		</g>
		<g>
			<circle class="st25" cx="243" cy="701.4" r="3"/>
		</g>
	</g>
	<g class="st23">
		<g>
			<path class="st24" d="M223.8,719c-2.6,0.8-2.3,7-2.3,7s-5.8-1.1-6.5,2c-0.7,3,1,4.7,3.7,5.2c0.2,3.9-0.2,6.8,4,7.5
				c4.2,0.7,5-3.7,5-3.7s4.1,3,7,1.4c2.9-1.6,2.5-6.6,0-8.2c0.8-1.6,3.8-1.9,3-5.7c-0.7-3.9-8-1.5-8-1.5S229.1,717.3,223.8,719z"/>
		</g>
		<g>
			<circle class="st25" cx="227.2" cy="729.7" r="3"/>
		</g>
	</g>
	<g class="st23">
		<g>
			<path class="st24" d="M229.9,796c-2.6,0.8-2.3,7-2.3,7s-5.8-1.1-6.5,2c-0.7,3,1,4.7,3.7,5.2c0.2,3.9-0.2,6.8,4,7.5
				c4.2,0.7,5-3.7,5-3.7s4.1,3,7,1.4c2.9-1.6,2.5-6.6,0-8.2c0.8-1.6,3.8-1.9,3-5.7s-8-1.5-8-1.5S235.2,794.3,229.9,796z"/>
		</g>
		<g>
			<circle class="st25" cx="233.3" cy="806.7" r="3"/>
		</g>
	</g>
	<g class="st23">
		<g>
			<path class="st24" d="M234.7,842.6c-2.6,0.8-2.3,7-2.3,7s-5.8-1.1-6.5,2c-0.7,3,1,4.7,3.7,5.2c0.2,3.9-0.2,6.8,4,7.5
				c4.2,0.7,5-3.7,5-3.7s4.1,3,7,1.4c2.9-1.6,2.5-6.6,0-8.2c0.8-1.6,3.8-1.9,3-5.7c-0.7-3.9-8-1.5-8-1.5S239.9,841,234.7,842.6z"/>
		</g>
		<g>
			<circle class="st25" cx="238" cy="853.4" r="3"/>
		</g>
	</g>
	<g class="st23">
		<g>
			<path class="st24" d="M219.5,874c-2.6,0.8-2.3,7-2.3,7s-5.8-1.1-6.5,2s1,4.7,3.7,5.2c0.2,3.9-0.2,6.8,4,7.5c4.2,0.7,5-3.7,5-3.7
				s4.1,3,7,1.4c2.9-1.6,2.5-6.6,0-8.2c0.8-1.6,3.8-1.9,3-5.7s-8-1.5-8-1.5S224.8,872.3,219.5,874z"/>
		</g>
		<g>
			<circle class="st25" cx="222.8" cy="884.8" r="3"/>
		</g>
	</g>
	<g class="st23">
		<g>
			<path class="st24" d="M258.1,878.8c-2.6,0.8-2.3,7-2.3,7s-5.8-1.1-6.5,2s1,4.7,3.7,5.2c0.2,3.9-0.2,6.8,4,7.5
				c4.2,0.7,5-3.7,5-3.7s4.1,3,7,1.4s2.5-6.6,0-8.2c0.8-1.6,3.8-1.9,3-5.7s-8-1.5-8-1.5S263.4,877.1,258.1,878.8z"/>
		</g>
		<g>
			<circle class="st25" cx="261.4" cy="889.5" r="3"/>
		</g>
	</g>
	<g class="st23">
		<g>
			<path class="st24" d="M269.6,842.6c-2.6,0.8-2.3,7-2.3,7s-5.8-1.1-6.5,2s1,4.7,3.7,5.2c0.2,3.9-0.2,6.8,4,7.5
				c4.2,0.7,5-3.7,5-3.7s4.1,3,7,1.4s2.5-6.6,0-8.2c0.8-1.6,3.8-1.9,3-5.7c-0.7-3.9-8-1.5-8-1.5S274.9,841,269.6,842.6z"/>
		</g>
		<g>
			<circle class="st25" cx="273" cy="853.4" r="3"/>
		</g>
	</g>
	<g class="st23">
		<g>
			<path class="st24" d="M265.4,809.6c-2.6,0.8-2.3,7-2.3,7s-5.8-1.1-6.5,2c-0.7,3,1,4.7,3.7,5.2c0.2,3.9-0.2,6.8,4,7.5
				c4.2,0.7,5-3.7,5-3.7s4.1,3,7,1.4s2.5-6.6,0-8.2c0.8-1.6,3.8-1.9,3-5.7s-8-1.5-8-1.5S270.6,807.9,265.4,809.6z"/>
		</g>
		<g>
			<circle class="st25" cx="268.7" cy="820.3" r="3"/>
		</g>
	</g>
	<g class="st23">
		<g>
			<path class="st24" d="M263.2,776.8c-2.6,0.8-2.3,7-2.3,7s-5.8-1.1-6.5,2s1,4.7,3.7,5.2c0.2,3.9-0.2,6.8,4,7.5
				c4.2,0.7,5-3.7,5-3.7s4.1,3,7,1.4s2.5-6.6,0-8.2c0.8-1.6,3.8-1.9,3-5.7s-8-1.5-8-1.5S268.5,775.1,263.2,776.8z"/>
		</g>
		<g>
			<circle class="st25" cx="266.6" cy="787.5" r="3"/>
		</g>
	</g>
	<g class="st23">
		<g>
			<path class="st24" d="M294.5,772.4c-2.6,0.8-2.3,7-2.3,7s-5.8-1.1-6.5,2s1,4.7,3.7,5.2c0.2,3.9-0.2,6.8,4,7.5
				c4.2,0.7,5-3.7,5-3.7s4.1,3,7,1.4c2.9-1.6,2.5-6.6,0-8.2c0.8-1.6,3.8-1.9,3-5.7s-8-1.5-8-1.5S299.7,770.7,294.5,772.4z"/>
		</g>
		<g>
			<circle class="st25" cx="297.8" cy="783.1" r="3"/>
		</g>
	</g>
	<g class="st23">
		<g>
			<path class="st24" d="M327.2,757.4c-2.6,0.8-2.3,7-2.3,7s-5.8-1.1-6.5,2s1,4.7,3.7,5.2c0.2,3.9-0.2,6.8,4,7.5
				c4.2,0.7,5-3.7,5-3.7s4.1,3,7,1.4c2.9-1.6,2.5-6.6,0-8.2c0.8-1.6,3.8-1.9,3-5.7s-8-1.5-8-1.5S332.5,755.7,327.2,757.4z"/>
		</g>
		<g>
			<circle class="st25" cx="330.6" cy="768.2" r="3"/>
		</g>
	</g>
	<g class="st23">
		<g>
			<path class="st24" d="M347.6,737c-2.6,0.8-2.3,7-2.3,7s-5.8-1.1-6.5,2s1,4.7,3.7,5.2c0.2,3.9-0.2,6.8,4,7.5c4.2,0.7,5-3.7,5-3.7
				s4.1,3,7,1.4c2.9-1.6,2.5-6.6,0-8.2c0.8-1.6,3.8-1.9,3-5.7s-8-1.5-8-1.5S352.9,735.3,347.6,737z"/>
		</g>
		<g>
			<circle class="st25" cx="351" cy="747.7" r="3"/>
		</g>
	</g>
	<g class="st23">
		<g>
			<path class="st24" d="M364.5,698.9c-2.6,0.8-2.3,7-2.3,7s-5.8-1.1-6.5,2c-0.7,3,1,4.7,3.7,5.2c0.2,3.9-0.2,6.8,4,7.5
				c4.2,0.7,5-3.7,5-3.7s4.1,3,7,1.4s2.5-6.6,0-8.2c0.8-1.6,3.8-1.9,3-5.7s-8-1.5-8-1.5S369.8,697.2,364.5,698.9z"/>
		</g>
		<g>
			<circle class="st25" cx="367.9" cy="709.7" r="3"/>
		</g>
	</g>
	<g class="st23">
		<g>
			<path class="st24" d="M354.9,670c-2.6,0.8-2.3,7-2.3,7s-5.8-1.1-6.5,2s1,4.7,3.7,5.2c0.2,3.9-0.2,6.8,4,7.5c4.2,0.7,5-3.7,5-3.7
				s4.1,3,7,1.4c2.9-1.6,2.5-6.6,0-8.2c0.8-1.6,3.8-1.9,3-5.7s-8-1.5-8-1.5S360.2,668.3,354.9,670z"/>
		</g>
		<g>
			<circle class="st25" cx="358.3" cy="680.8" r="3"/>
		</g>
	</g>
	<g>
		<g>
			<path class="st24" d="M369.9,760.4c-2.6,0.8-2.3,7-2.3,7s-5.8-1.1-6.5,2s1,4.7,3.7,5.2c0.2,3.9-0.2,6.8,4,7.5
				c4.2,0.7,5-3.7,5-3.7s4.1,3,7,1.4c2.9-1.6,2.5-6.6,0-8.2c0.8-1.6,3.8-1.9,3-5.7s-8-1.5-8-1.5S375.1,758.7,369.9,760.4z"/>
		</g>
		<g>
			<circle class="st25" cx="373.2" cy="771.1" r="3"/>
		</g>
	</g>
	<g class="st23">
		<g>
			<path class="st24" d="M347.6,783.4c-2.6,0.8-2.3,7-2.3,7s-5.8-1.1-6.5,2s1,4.7,3.7,5.2c0.2,3.9-0.2,6.8,4,7.5
				c4.2,0.7,5-3.7,5-3.7s4.1,3,7,1.4c2.9-1.6,2.5-6.6,0-8.2c0.8-1.6,3.8-1.9,3-5.7s-8-1.5-8-1.5S352.9,781.8,347.6,783.4z"/>
		</g>
		<g>
			<circle class="st25" cx="351" cy="794.2" r="3"/>
		</g>
	</g>
	<g class="st23">
		<g>
			<path class="st24" d="M353.5,813.8c-2.6,0.8-2.3,7-2.3,7s-5.8-1.1-6.5,2c-0.7,3,1,4.7,3.7,5.2c0.2,3.9-0.2,6.8,4,7.5
				c4.2,0.7,5-3.7,5-3.7s4.1,3,7,1.4s2.5-6.6,0-8.2c0.8-1.6,3.8-1.9,3-5.7s-8-1.5-8-1.5S358.8,812.2,353.5,813.8z"/>
		</g>
		<g>
			<circle class="st25" cx="356.8" cy="824.6" r="3"/>
		</g>
	</g>
	<g class="st23">
		<g>
			<path class="st24" d="M315.7,801.3c-2.6,0.8-2.3,7-2.3,7s-5.8-1.1-6.5,2c-0.7,3,1,4.7,3.7,5.2c0.2,3.9-0.2,6.8,4,7.5
				c4.2,0.7,5-3.7,5-3.7s4.1,3,7,1.4c2.9-1.6,2.5-6.6,0-8.2c0.8-1.6,3.8-1.9,3-5.7c-0.7-3.9-8-1.5-8-1.5S321,799.6,315.7,801.3z"/>
		</g>
		<g>
			<circle class="st25" cx="319.1" cy="812" r="3"/>
		</g>
	</g>
	<g class="st23">
		<g>
			<path class="st24" d="M304.2,830c-2.6,0.8-2.3,7-2.3,7s-5.8-1.1-6.5,2s1,4.7,3.7,5.2c0.2,3.9-0.2,6.8,4,7.5c4.2,0.7,5-3.7,5-3.7
				s4.1,3,7,1.4c2.9-1.6,2.5-6.6,0-8.2c0.8-1.6,3.8-1.9,3-5.7s-8-1.5-8-1.5S309.5,828.3,304.2,830z"/>
		</g>
		<g>
			<circle class="st25" cx="307.6" cy="840.8" r="3"/>
		</g>
	</g>
	<g class="st23">
		<g>
			<path class="st24" d="M333,839.8c-2.6,0.8-2.3,7-2.3,7s-5.8-1.1-6.5,2s1,4.7,3.7,5.2c0.2,3.9-0.2,6.8,4,7.5c4.2,0.7,5-3.7,5-3.7
				s4.1,3,7,1.4s2.5-6.6,0-8.2c0.8-1.6,3.8-1.9,3-5.7s-8-1.5-8-1.5S338.3,838.2,333,839.8z"/>
		</g>
		<g>
			<circle class="st25" cx="336.4" cy="850.6" r="3"/>
		</g>
	</g>
	<g class="st23">
		<g>
			<path class="st24" d="M348.5,873c-2.6,0.8-2.3,7-2.3,7s-5.8-1.1-6.5,2c-0.7,3,1,4.7,3.7,5.2c0.2,3.9-0.2,6.8,4,7.5
				c4.2,0.7,5-3.7,5-3.7s4.1,3,7,1.4s2.5-6.6,0-8.2c0.8-1.6,3.8-1.9,3-5.7s-8-1.5-8-1.5S353.8,871.3,348.5,873z"/>
		</g>
		<g>
			<circle class="st25" cx="351.8" cy="883.7" r="3"/>
		</g>
	</g>
	<g class="st23">
		<g>
			<path class="st24" d="M308.1,867.7c-2.6,0.8-2.3,7-2.3,7s-5.8-1.1-6.5,2s1,4.7,3.7,5.2c0.2,3.9-0.2,6.8,4,7.5
				c4.2,0.7,5-3.7,5-3.7s4.1,3,7,1.4c2.9-1.6,2.5-6.6,0-8.2c0.8-1.6,3.8-1.9,3-5.7s-8-1.5-8-1.5S313.3,866.1,308.1,867.7z"/>
		</g>
		<g>
			<circle class="st25" cx="311.4" cy="878.5" r="3"/>
		</g>
	</g>
	<g class="st23">
		<g>
			<path class="st24" d="M290.1,892.9c-2.6,0.8-2.3,7-2.3,7s-5.8-1.1-6.5,2s1,4.7,3.7,5.2c0.2,3.9-0.2,6.8,4,7.5
				c4.2,0.7,5-3.7,5-3.7s4.1,3,7,1.4c2.9-1.6,2.5-6.6,0-8.2c0.8-1.6,3.8-1.9,3-5.7s-8-1.5-8-1.5S295.3,891.2,290.1,892.9z"/>
		</g>
		<g>
			<circle class="st25" cx="293.4" cy="903.6" r="3"/>
		</g>
	</g>
	<g class="st23">
		<g>
			<path class="st24" d="M216.4,943.7c-2.6,0.8-2.3,7-2.3,7s-5.8-1.1-6.5,2s1,4.7,3.7,5.2c0.2,3.9-0.2,6.8,4,7.5
				c4.2,0.7,5-3.7,5-3.7s4.1,3,7,1.4c2.9-1.6,2.5-6.6,0-8.2c0.8-1.6,3.8-1.9,3-5.7s-8-1.5-8-1.5S221.7,942.1,216.4,943.7z"/>
		</g>
		<g>
			<circle class="st25" cx="219.8" cy="954.5" r="3"/>
		</g>
	</g>
	<g class="st23">
		<g>
			<path class="st24" d="M204.3,911.3c-2.6,0.8-2.3,7-2.3,7s-5.8-1.1-6.5,2s1,4.7,3.7,5.2c0.2,3.9-0.2,6.8,4,7.5
				c4.2,0.7,5-3.7,5-3.7s4.1,3,7,1.4c2.9-1.6,2.5-6.6,0-8.2c0.8-1.6,3.8-1.9,3-5.7s-8-1.5-8-1.5S209.5,909.6,204.3,911.3z"/>
		</g>
		<g>
			<circle class="st25" cx="207.6" cy="922" r="3"/>
		</g>
	</g>
	<g class="st23">
		<g>
			<path class="st24" d="M187.6,943.7c-2.6,0.8-2.3,7-2.3,7s-5.8-1.1-6.5,2s1,4.7,3.7,5.2c0.2,3.9-0.2,6.8,4,7.5
				c4.2,0.7,5-3.7,5-3.7s4.1,3,7,1.4c2.9-1.6,2.5-6.6,0-8.2c0.8-1.6,3.8-1.9,3-5.7c-0.7-3.9-8-1.5-8-1.5S192.9,942.1,187.6,943.7z"
				/>
		</g>
		<g>
			<circle class="st25" cx="190.9" cy="954.5" r="3"/>
		</g>
	</g>
	<g class="st23">
		<g>
			<path class="st24" d="M222.2,669.9c-1.9,0.6-1.7,5.1-1.7,5.1s-4.2-0.8-4.7,1.4c-0.5,2.2,0.7,3.4,2.7,3.8c0.1,2.9-0.1,4.9,2.9,5.5
				c3.1,0.5,3.6-2.7,3.6-2.7s3,2.2,5.1,1c2.1-1.2,1.8-4.8,0-6c0.6-1.2,2.7-1.4,2.2-4.2c-0.5-2.8-5.8-1.1-5.8-1.1
				S226.1,668.7,222.2,669.9z"/>
		</g>
		<g>
			<circle class="st25" cx="224.7" cy="677.7" r="2.2"/>
		</g>
	</g>
	<g class="st26">
		<path class="st27" d="M252.6,893.7c0,8.4-2.9,52.6-9.7,78l-69.9,0.7c0,0,5.2-57.8,22.9-80.4c17.7-22.6,0.3-84.2-3.8-96.7
			c-4.1-12.5-10.2-40.1-7-50.2c0,0,6.7,4.4,13.1-7.8c6.4-12.2,23.7-52.2,5.5-72c0,0-2.8-1.3-0.6-2.4c1-0.5,5.8-1.8,10.9-3
			c6.9,13,16.7,37.1,14.1,65.3c-4,42.7-4.3,46.8,0.9,74.8C234.2,828,252.6,883,252.6,893.7z"/>
	</g>
	<g>
		<path class="st18" d="M329.8,610.6c0,0,5.5,11.7,8.3,20.4c2.8,8.7,8.3,29.4,13.8,33.5c5.5,4.1,17.5,17,18.8,33.5
			c1.4,16.5-1.4,30.8-1.4,39.7s4.4,32.9,7.5,42.5c3.1,9.6,9.5,47.3,27.2,51.2s44.8-7.6,33.5-46.6c-11.3-39.1-33.1-96.7-34.5-106.6
			c-1.4-9.9-0.5-38.4,3.4-47.3c3.2-7.3,18.3-30.2,23.9-38.5c1.2-1.7,0.8-4.1-0.8-5.4l0,0c-1.7-1.5-4.3-1.3-5.8,0.5l-18.2,21.6
			l11-38.9c0.7-2.4-0.4-4.9-2.6-6l0,0c-2.8-1.4-6.1-0.1-7.2,2.8l-13.1,34.3l-3.9-1.6l8.5-40.7c0.6-3.1-1.4-6.1-4.5-6.7h0
			c-2.9-0.5-5.6,1.3-6.4,4.1L376,599.8l-4.6,0.2l-3.8-37.7c-0.3-3.1-3.1-5.4-6.3-5h0c-2.8,0.4-4.9,2.8-4.8,5.6l0.4,41.2
			c0,0-0.2,20.2-3.2,22.7C350.7,629.4,347.3,599.8,329.8,610.6z"/>
	</g>
	<g>
		<path class="st20" d="M367.4,638.8c1.4-6.6,8-10.9,14.6-9.5c4.4,0.9,7.8,4.1,9.1,8.1c2.7-1.8,6-2.5,9.4-1.8
			c6.6,1.4,10.9,8,9.5,14.6s-8,10.9-14.6,9.5c-2.4-0.5-4.5-1.7-6.1-3.3c0.2,1.4,0.2,2.8-0.2,4.3c-1.4,6.6-8,10.9-14.6,9.5
			s-10.9-8-9.5-14.6c0.6-2.9,2.2-5.3,4.4-7.1C367.5,645.8,366.6,642.4,367.4,638.8z"/>
	</g>
	<g>
		<path class="st20" d="M379.8,607.4c-0.4-0.5-0.7-1-1-1.6c-2.5-4.8-0.6-10.7,4.2-13.1c2.6-1.4,5.6-1.4,8.2-0.4
			c0.7-1.9,2-3.6,3.8-4.8c0-0.1-0.1-0.2-0.1-0.2c-1.9-3.7-0.5-8.3,3.3-10.3c3.7-1.9,8.3-0.5,10.3,3.3c1.5,2.9,1,6.3-1.1,8.6
			c0.7,0.7,1.2,1.5,1.7,2.3c2.5,4.8,0.6,10.7-4.2,13.1c-2.6,1.4-5.6,1.4-8.2,0.4c-0.6,1.5-1.5,2.8-2.7,3.9c0.4,0.5,0.7,1,1,1.6
			c2.5,4.8,0.6,10.7-4.2,13.1c-4.8,2.5-10.7,0.6-13.1-4.2C375.4,615.1,376.5,610.2,379.8,607.4z"/>
	</g>
	<g>
		<path class="st20" d="M358.7,597.5c-0.2-0.4-0.3-0.8-0.4-1.3c-0.9-3.6,0.8-7.1,3.8-7.9c1.7-0.4,3.4,0.1,4.7,1.3
			c0.6-1.1,1.5-2,2.7-2.4c0-0.1,0-0.1-0.1-0.2c-0.7-2.8,0.6-5.6,3-6.2c2.3-0.6,4.8,1.2,5.5,4.1c0.5,2.2-0.1,4.3-1.5,5.5
			c0.3,0.6,0.5,1.2,0.7,1.9c0.9,3.6-0.8,7.1-3.8,7.9c-1.7,0.4-3.4-0.1-4.7-1.3c-0.5,0.9-1.1,1.6-2,2.1c0.2,0.4,0.3,0.8,0.4,1.3
			c0.9,3.6-0.8,7.1-3.8,7.9c-3,0.7-6.2-1.6-7.1-5.2C355.4,601.9,356.5,598.8,358.7,597.5z"/>
	</g>
	<g>
		<path class="st20" d="M131.9,592.9c-0.2-0.4-0.3-0.8-0.4-1.3c-0.9-3.6,0.8-7.1,3.8-7.9c1.7-0.4,3.4,0.1,4.7,1.3
			c0.6-1.1,1.5-2,2.7-2.4c0-0.1,0-0.1-0.1-0.2c-0.7-2.8,0.6-5.6,3-6.2c2.3-0.6,4.8,1.2,5.5,4.1c0.5,2.2-0.1,4.3-1.5,5.5
			c0.3,0.6,0.5,1.2,0.7,1.9c0.9,3.6-0.8,7.1-3.8,7.9c-1.7,0.4-3.4-0.1-4.7-1.3c-0.5,0.9-1.1,1.6-2,2.1c0.2,0.4,0.3,0.8,0.4,1.3
			c0.9,3.6-0.8,7.1-3.8,7.9c-3,0.7-6.2-1.6-7.1-5.2C128.6,597.2,129.7,594.2,131.9,592.9z"/>
	</g>
	<g>
		<path class="st20" d="M162.4,572.3c0.2-0.4,0.5-0.7,0.7-1.1c2.3-2.9,6.1-3.8,8.6-1.8c1.3,1.1,2,2.7,1.9,4.5c1.3-0.2,2.5,0,3.6,0.6
			c0-0.1,0.1-0.1,0.1-0.2c1.8-2.3,4.8-2.9,6.7-1.4c1.9,1.5,2,4.6,0.2,6.8c-1.4,1.8-3.5,2.6-5.3,2.1c-0.3,0.6-0.6,1.2-1,1.7
			c-2.3,2.9-6.1,3.8-8.6,1.8c-1.3-1.1-2-2.7-1.9-4.5c-1,0.2-2,0.1-2.8-0.3c-0.2,0.4-0.5,0.7-0.7,1.1c-2.3,2.9-6.1,3.8-8.6,1.8
			c-2.4-1.9-2.5-5.8-0.2-8.8C157,572.3,160.1,571.3,162.4,572.3z"/>
	</g>
	<g>
		<path class="st20" d="M153.4,678.2c0-0.4,0-0.9,0-1.3c0.3-3.7,3-6.6,6-6.3c1.7,0.1,3.2,1.1,4.1,2.7c0.9-0.9,2.1-1.4,3.3-1.5
			c0-0.1,0-0.1,0-0.2c0.2-2.9,2.3-5.1,4.7-5c2.4,0.2,4.2,2.7,4,5.6c-0.2,2.3-1.5,4.1-3.2,4.7c0.1,0.6,0.2,1.3,0.1,2
			c-0.3,3.7-3,6.6-6,6.3c-1.7-0.1-3.2-1.1-4.1-2.7c-0.7,0.7-1.6,1.2-2.5,1.4c0,0.4,0,0.9,0,1.3c-0.3,3.7-3,6.6-6,6.3
			c-3.1-0.2-5.4-3.4-5.1-7.1C149,681.2,151,678.7,153.4,678.2z"/>
	</g>
	<g>
		<path class="st28" d="M325.7,566.4c0,0,14.2-2.9,12,10.2c-2.1,13.1-8.6,19.1-16.5,18.9C313.3,595.3,325.7,566.4,325.7,566.4z"/>
	</g>
	<g>
		<path class="st29" d="M230.2,564.4c0,0-14.4-0.5-10.7,17.4s17.9,18.6,17.9,18.6L230.2,564.4z"/>
	</g>
	<g>
		<path class="st18" d="M226.9,568.3c0,0-3.4-35.4,5.2-48.2c0,0,3,14,0,20.4c0,0,6.7-19.2,6.4-33.5c0,0,8.5,20.7,3.7,27.8
			c0,0,32.9,8.5,44.2,2.9c0,0-3-22.7,3.9-30.6c0,0,1.3,9.8,2.5,13.7c1.2,4,4.3,10.1,3.7,12.8s18,0.6,18,0.6s-7-26.8-3.7-32.6
			c0,0,22.6,14.7,19.5,59.9s-18,59.9-32,67.8s-50.9,3.4-64.3-30.2C228.8,579,226.9,568.3,226.9,568.3z"/>
	</g>
	<g>
		<path d="M237.4,556c-0.3,0-0.5-0.1-0.7-0.2c-0.6-0.4-0.7-1.2-0.3-1.8c0.1-0.2,12.5-17.6,34.2-5.4c0.6,0.4,0.9,1.2,0.5,1.8
			c-0.4,0.6-1.2,0.9-1.8,0.5c-19.6-11.1-30.3,3.9-30.8,4.6C238.2,555.8,237.8,556,237.4,556z"/>
	</g>
	<g>
		<path d="M319.7,549.6c-0.2,0-0.5-0.1-0.7-0.2c-20.5-13.4-29.1-0.9-29.4-0.4c-0.4,0.6-1.2,0.8-1.8,0.4c-0.6-0.4-0.8-1.2-0.4-1.8
			c0.1-0.2,3.4-5.1,10.4-6.6c6.6-1.4,14.3,0.7,22.7,6.2c0.6,0.4,0.8,1.2,0.4,1.8C320.5,549.4,320.1,549.6,319.7,549.6z"/>
	</g>
	<g>
		<path class="st30" d="M275.5,589.4c-0.2,0-0.4-0.1-0.6-0.2c-0.6-0.3-0.9-1.1-0.5-1.8c8.3-15.4-1.5-29.1-1.6-29.2
			c-0.4-0.6-0.3-1.4,0.3-1.8c0.6-0.4,1.4-0.3,1.8,0.3c0.1,0.2,11,15.2,1.8,32C276.4,589.1,275.9,589.4,275.5,589.4z"/>
	</g>
	<g>
		<ellipse class="st17" cx="256.2" cy="563.3" rx="3.6" ry="5"/>
	</g>
	<g>
		<ellipse class="st17" cx="300.6" cy="561.6" rx="3.6" ry="5"/>
	</g>
	<g>
		<path class="st31" d="M263.7,595.5c0,0,12.6,8.4,29.4,0c0,3.7-1.7,16.6-14.7,16.6S265.1,601.4,263.7,595.5z"/>
	</g>
	<g>
		<path class="st17" d="M473.5,592.9c12.5,69.5,70.5,61.7,70.5,61.7l258.4-52.7c0,0,24.8-45.1-24.4-61.9s-31.5-33-31.9-44
			c-0.3-8.8-18.9-44.9-48.8-44.9c-14.2,0-11.7-22-11.6-26.2c0.2-8.4-12.1-101.9-100.4-70.3c-19.2,7.8-41.2,17.3-54.8,43.6
			c-14.1-5.2-37.8-2.9-45.6,16.2s-7.7,42.1,7.9,58.3c15.7,16.2,45.5,42.4,23.8,57.2C494.9,544.8,465.2,546.5,473.5,592.9z"/>
	</g>
	<g>
		<path class="st32" d="M624,796.3c0,0,21.9-29,36.1-49.1c14.2-20,44.5-94.9,46.5-100.1c1.9-5.2,40-65.5,44.5-66.5
			c0,0-29,1.9-44.5-3.9c-15.5-5.8,0,0,0,0s-73.9,30.7-81.5,32c-7.6,1.3-18.9,10-18.9,10s-3.2,14.8-3.7,25.1
			c-0.5,10.3,4.1,40.7,7,60.4c2.9,19.7,5,54.5,8.2,67.5C620.8,784.6,624,796.3,624,796.3z"/>
	</g>
	<g>
		<path class="st33" d="M603.6,731.5c0,0,55.6,4,75.7-5.2l-55.9,85.4L603.6,731.5z"/>
	</g>
	<g>
		<path class="st34" d="M751.2,580.7c0,0,82.4,11.3,93.1,76.5c10.7,65.2,14.8,66.4,13.6,85.4c-1.2,19-10.1,60.5-9.5,72.3
			c0.6,11.9,3,155.6,3,155.6H482.7c0,0-2.4-73.8,8.3-92.2c10.7-18.4,7.1-141.1,8.9-150.6s2.2-40.2,4.4-43.8
			c2.3-3.5,6.8-22.1,24.1-29.5c17.4-7.4,57.9-28.3,62-29.6s28.7-13.9,28.7-13.9s-17,13-13.7,45.8c3.2,32.8,13.1,109.1,15.1,117.3
			c1.9,7.6,3.4,17.9,3.4,17.9s39.5-51,47.8-69c8.4-18,35.4-85.8,38.6-90.6S739.6,582.2,751.2,580.7z"/>
	</g>
	<g>
		<path class="st35" d="M629.8,825.6l-2.2-2c0.4-0.4,38.5-43.4,47-62.4c1.1-2.5,2.4-5.4,3.9-8.6c10.1-22.5,27.1-60.2,33.9-80.2
			c7.9-23.2,36.4-81.7,52-87.5l1,2.8c-14,5.1-42.4,62.7-50.2,85.6c-6.8,20.1-23.8,57.8-34,80.4c-1.5,3.2-2.8,6.1-3.9,8.6
			C668.7,781.8,631.4,823.8,629.8,825.6z"/>
	</g>
	<g>
		<path class="st35" d="M601.3,815.1c-1.6-2.5-3.1-6.9-5.1-12.5c-1.8-4.9-3.7-10.5-6.1-15.9c-4.1-9.2-9-61.8-11.6-90.1
			c-0.6-6.9-1.1-12-1.3-13.9c-1.2-9.7-0.1-50.5,0-52.2l3,0.1c0,0.4-1.1,42.3,0,51.8c0.2,2,0.7,7.1,1.4,14
			c2.4,26.1,7.4,80.4,11.3,89.1c2.4,5.4,4.4,11.1,6.2,16.1c1.8,5.2,3.4,9.7,4.8,11.9L601.3,815.1z"/>
	</g>
	<g>
		<path class="st35" d="M778.4,649.8c0,0-14.4,41.7-19.8,51.4c-5.4,9.7-14,39.6-16.7,48.1c-2.7,8.5-18.6,60.4-18.6,67.6
			c0,7.3,17.4-26.5,33.1-81.7c7.6-26.7,35.9-71.6,32.8-68.5c-3.1,3.1-19.8,23.7-24.4,32.2C760.2,707.4,779.6,657.8,778.4,649.8z"/>
	</g>
	<g>
		<path class="st35" d="M811.8,889c-0.1,0-0.2,0-0.3,0c-2.6-0.2-4.4-2.9-6.5-6c-1.9-2.9-4.1-6.1-6.6-6.5c-3.9-0.6-5.9-2.8-9.2-6.3
			c-3.3-3.5-8.3-8.8-18.6-16.1c-10-7.1-18.8-8.9-24.4-9.2c-5.2-0.2-8.8,0.8-9.6,1.1c-1.3,1.1-7.8,6-13.8,3.1
			c-5-2.3-15.3-0.2-20.9,1.8c-5.3,1.9-17.2,0.1-17.7,0.1l0.4-3c3.2,0.5,12.4,1.4,16.2,0.1c5.3-1.9,16.9-4.7,23.2-1.7
			c4.9,2.3,10.7-2.8,10.8-2.9l0.2-0.2l0.2-0.1c0.7-0.3,16.5-6.3,37.1,8.3c10.5,7.5,15.6,12.9,19,16.5c3.2,3.3,4.6,4.9,7.5,5.4
			c3.8,0.6,6.3,4.4,8.6,7.8c1.4,2,3.1,4.6,4.2,4.7c0.4,0,1-0.4,1.3-0.8c4.5-4.8,4-7,3.9-7c0,0.1,0,0.1,0,0.1l2.8-1.2
			c0.3,0.6,1.3,3.9-4.6,10.1C814.1,888.5,813,889,811.8,889z"/>
	</g>
	<g>
		<path class="st35" d="M753.4,959.3c-0.8,0-1.6,0-2.4-0.1c-14.2-1.2-72.4-31.6-74.9-32.9l1.4-2.7c0.6,0.3,60.1,31.4,73.7,32.5
			c13.8,1.1,29.2-8.8,49.7-32.2c18.8-21.5,23-33,27.5-45.2c0.6-1.5,1.1-3.1,1.7-4.7c5.3-14.1,15.4-62.1,15.5-62.6l2.9,0.6
			c-0.4,2-10.2,48.8-15.6,63.1c-0.6,1.6-1.2,3.1-1.7,4.6c-4.6,12.5-8.9,24.3-28.1,46.2C783.1,948.9,767.6,959.3,753.4,959.3z"/>
	</g>
	<g>
		<path class="st36" d="M583.1,637.6c-0.6,0-1.1-0.3-1.4-0.9c-0.3-0.8,0-1.6,0.7-2l20.9-9.5c0.8-0.3,1.6,0,2,0.7s0,1.6-0.7,2
			l-20.9,9.5C583.5,637.5,583.3,637.6,583.1,637.6z"/>
	</g>
	<g>
		<path class="st36" d="M583.1,648.6c-0.6,0-1.1-0.3-1.4-0.9c-0.4-0.7,0-1.6,0.7-2l19.4-9.1c0.7-0.4,1.6,0,2,0.7
			c0.4,0.7,0,1.6-0.7,2l-19.4,9.1C583.6,648.5,583.3,648.6,583.1,648.6z"/>
	</g>
	<g>
		<path class="st36" d="M583.1,657.7c-0.6,0-1.1-0.3-1.4-0.9c-0.4-0.7,0-1.6,0.7-2l19.4-9.1c0.7-0.4,1.6,0,2,0.7
			c0.4,0.7,0,1.6-0.7,2l-19.4,9.1C583.6,657.7,583.3,657.7,583.1,657.7z"/>
	</g>
	<g>
		<path class="st36" d="M583.9,668c-0.6,0-1.1-0.3-1.4-0.9c-0.4-0.7,0-1.6,0.7-2l19.4-9.1c0.7-0.4,1.6,0,2,0.7c0.4,0.7,0,1.6-0.7,2
			l-19.4,9.1C584.3,667.9,584.1,668,583.9,668z"/>
	</g>
	<g>
		<path class="st36" d="M583.9,678.2c-0.6,0-1.1-0.3-1.4-0.9c-0.4-0.8,0-1.6,0.7-2l19.4-9.1c0.8-0.4,1.6,0,2,0.7
			c0.4,0.8,0,1.6-0.7,2l-19.4,9.1C584.3,678.2,584.1,678.2,583.9,678.2z"/>
	</g>
	<g>
		<path class="st36" d="M583.9,689.9c-0.6,0-1.1-0.3-1.4-0.9c-0.4-0.7,0-1.6,0.7-2l19.4-9.1c0.7-0.4,1.6,0,2,0.7
			c0.4,0.7,0,1.6-0.7,2l-19.4,9.1C584.3,689.8,584.1,689.9,583.9,689.9z"/>
	</g>
	<g>
		<path class="st36" d="M584.6,700.3c-0.6,0-1.1-0.3-1.4-0.9c-0.4-0.7,0-1.6,0.7-2l19.4-9.1c0.7-0.4,1.6,0,2,0.7
			c0.4,0.7,0,1.6-0.7,2l-19.4,9.1C585.1,700.3,584.8,700.3,584.6,700.3z"/>
	</g>
	<g>
		<path class="st36" d="M586.1,709.5c-0.6,0-1.1-0.3-1.4-0.9c-0.4-0.7,0-1.6,0.7-2l19.4-9.1c0.7-0.4,1.6,0,2,0.7
			c0.4,0.7,0,1.6-0.7,2l-19.4,9.1C586.5,709.4,586.3,709.5,586.1,709.5z"/>
	</g>
	<g>
		<path class="st36" d="M586.1,720.6c-0.6,0-1.1-0.3-1.4-0.9c-0.4-0.7,0-1.6,0.7-2l19.4-9.1c0.7-0.4,1.6,0,2,0.7
			c0.4,0.7,0,1.6-0.7,2l-19.4,9.1C586.5,720.5,586.3,720.6,586.1,720.6z"/>
	</g>
	<g>
		<path class="st36" d="M588,731.7c-0.6,0-1.1-0.3-1.4-0.9c-0.4-0.8,0-1.6,0.7-2l19.4-9.1c0.8-0.4,1.6,0,2,0.7s0,1.6-0.7,2
			l-19.4,9.1C588.4,731.7,588.2,731.7,588,731.7z"/>
	</g>
	<g>
		<path class="st36" d="M588,743.6c-0.6,0-1.1-0.3-1.4-0.9c-0.4-0.7,0-1.6,0.7-2l19.4-9.1c0.7-0.4,1.6,0,2,0.7c0.4,0.7,0,1.6-0.7,2
			l-19.4,9.1C588.4,743.5,588.2,743.6,588,743.6z"/>
	</g>
	<g>
		<path class="st36" d="M590.3,755.9c-0.6,0-1.1-0.3-1.4-0.9c-0.4-0.7,0-1.6,0.7-2l19.4-9.1c0.7-0.4,1.6,0,2,0.7
			c0.4,0.7,0,1.6-0.7,2l-19.4,9.1C590.8,755.9,590.5,755.9,590.3,755.9z"/>
	</g>
	<g>
		<path class="st36" d="M590.3,765.9c-0.6,0-1.1-0.3-1.4-0.9c-0.4-0.7,0-1.6,0.7-2l19.4-9.1c0.7-0.4,1.6,0,2,0.7
			c0.4,0.7,0,1.6-0.7,2l-19.4,9.1C590.8,765.9,590.5,765.9,590.3,765.9z"/>
	</g>
	<g>
		<path class="st36" d="M592.8,776.8c-0.6,0-1.1-0.3-1.4-0.9c-0.4-0.8,0-1.6,0.7-2l19.4-9.1c0.8-0.4,1.6,0,2,0.7
			c0.4,0.8,0,1.6-0.7,2l-19.4,9.1C593.2,776.8,593,776.8,592.8,776.8z"/>
	</g>
	<g>
		<path class="st36" d="M595.8,786.2c-0.6,0-1.1-0.3-1.4-0.9c-0.4-0.7,0-1.6,0.7-2l19.4-9.1c0.7-0.4,1.6,0,2,0.7
			c0.4,0.7,0,1.6-0.7,2l-19.4,9.1C596.3,786.1,596,786.2,595.8,786.2z"/>
	</g>
	<g>
		<path class="st36" d="M597.7,796.7c-0.6,0-1.1-0.3-1.4-0.9c-0.4-0.7,0-1.6,0.7-2l19.4-9.1c0.7-0.4,1.6,0,2,0.7
			c0.4,0.7,0,1.6-0.7,2l-19.4,9.1C598.1,796.6,597.9,796.7,597.7,796.7z"/>
	</g>
	<g>
		<path class="st36" d="M602.5,806.1c-0.6,0-1.1-0.3-1.4-0.9c-0.4-0.8,0-1.6,0.7-2l19.4-9.1c0.8-0.4,1.6,0,2,0.7
			c0.4,0.8,0,1.6-0.7,2l-19.4,9.1C603,806,602.7,806.1,602.5,806.1z"/>
	</g>
	<g>
		<path class="st36" d="M640.1,807.1c-0.3,0-0.6-0.1-0.9-0.3l-13.9-10.2c-0.7-0.5-0.8-1.4-0.3-2.1c0.5-0.7,1.4-0.8,2.1-0.3
			l13.9,10.2c0.7,0.5,0.8,1.4,0.3,2.1C641.1,806.9,640.6,807.1,640.1,807.1z"/>
	</g>
	<g>
		<path class="st36" d="M645,799.5c-0.3,0-0.6-0.1-0.9-0.3L630.3,789c-0.7-0.5-0.8-1.4-0.3-2.1c0.5-0.7,1.4-0.8,2.1-0.3l13.9,10.2
			c0.7,0.5,0.8,1.4,0.3,2.1C645.9,799.3,645.5,799.5,645,799.5z"/>
	</g>
	<g>
		<path class="st36" d="M651.9,791.3c-0.3,0-0.6-0.1-0.9-0.3l-13.9-10.2c-0.7-0.5-0.8-1.4-0.3-2.1c0.5-0.7,1.4-0.8,2.1-0.3
			l13.9,10.2c0.7,0.5,0.8,1.4,0.3,2.1C652.8,791.1,652.4,791.3,651.9,791.3z"/>
	</g>
	<g>
		<path class="st36" d="M657.7,783.5c-0.3,0-0.6-0.1-0.9-0.3L643,773c-0.7-0.5-0.8-1.4-0.3-2.1c0.5-0.7,1.4-0.8,2.1-0.3l13.9,10.2
			c0.7,0.5,0.8,1.4,0.3,2.1C658.7,783.2,658.2,783.5,657.7,783.5z"/>
	</g>
	<g>
		<path class="st36" d="M662.7,775.7c-0.3,0-0.6-0.1-0.9-0.3l-13.9-10.2c-0.7-0.5-0.8-1.4-0.3-2.1c0.5-0.7,1.4-0.8,2.1-0.3
			l13.9,10.2c0.7,0.5,0.8,1.4,0.3,2.1C663.6,775.4,663.1,775.7,662.7,775.7z"/>
	</g>
	<g>
		<path class="st36" d="M666.9,769.3c-0.3,0-0.6-0.1-0.9-0.3l-13.9-10.2c-0.7-0.5-0.8-1.4-0.3-2.1c0.5-0.7,1.4-0.8,2.1-0.3
			l13.9,10.2c0.7,0.5,0.8,1.4,0.3,2.1C667.8,769.1,667.3,769.3,666.9,769.3z"/>
	</g>
	<g>
		<path class="st36" d="M670.6,761.9c-0.3,0-0.6-0.1-0.9-0.3l-13.9-10.2c-0.7-0.5-0.8-1.4-0.3-2.1c0.5-0.7,1.4-0.8,2.1-0.3
			l13.9,10.2c0.7,0.5,0.8,1.4,0.3,2.1C671.6,761.7,671.1,761.9,670.6,761.9z"/>
	</g>
	<g>
		<path class="st36" d="M676.5,753.5c-0.3,0-0.6-0.1-0.9-0.3L661.8,743c-0.7-0.5-0.8-1.4-0.3-2.1c0.5-0.7,1.4-0.8,2.1-0.3l13.9,10.2
			c0.7,0.5,0.8,1.4,0.3,2.1C677.4,753.3,677,753.5,676.5,753.5z"/>
	</g>
	<g>
		<path class="st36" d="M680.3,746c-0.3,0-0.6-0.1-0.9-0.3l-13.4-9.9c-0.7-0.5-0.8-1.4-0.3-2.1c0.5-0.7,1.4-0.8,2.1-0.3l13.4,9.9
			c0.7,0.5,0.8,1.4,0.3,2.1C681.2,745.8,680.7,746,680.3,746z"/>
	</g>
	<g>
		<path class="st36" d="M684.2,736.9c-0.3,0-0.6-0.1-0.9-0.3l-12.2-9c-0.7-0.5-0.8-1.4-0.3-2.1c0.5-0.7,1.4-0.8,2.1-0.3l12.2,9
			c0.7,0.5,0.8,1.4,0.3,2.1C685.2,736.7,684.7,736.9,684.2,736.9z"/>
	</g>
	<g>
		<path class="st36" d="M687.6,730.3c-0.3,0-0.6-0.1-0.9-0.3l-12.6-9.3c-0.7-0.5-0.8-1.4-0.3-2.1c0.5-0.7,1.4-0.8,2.1-0.3l12.6,9.3
			c0.7,0.5,0.8,1.4,0.3,2.1C688.6,730.1,688.1,730.3,687.6,730.3z"/>
	</g>
	<g>
		<path class="st36" d="M691.1,722c-0.3,0-0.6-0.1-0.9-0.3l-12.1-8.9c-0.7-0.5-0.8-1.4-0.3-2.1c0.5-0.7,1.4-0.8,2.1-0.3l12.1,8.9
			c0.7,0.5,0.8,1.4,0.3,2.1C692,721.8,691.6,722,691.1,722z"/>
	</g>
	<g>
		<path class="st36" d="M694.5,713.6c-0.3,0-0.6-0.1-0.9-0.3l-11.7-8.7c-0.7-0.5-0.8-1.4-0.3-2.1c0.5-0.7,1.4-0.8,2.1-0.3l11.7,8.7
			c0.7,0.5,0.8,1.4,0.3,2.1C695.4,713.3,695,713.6,694.5,713.6z"/>
	</g>
	<g>
		<path class="st36" d="M697.8,704.7c-0.3,0-0.6-0.1-0.9-0.3l-11.7-8.7c-0.7-0.5-0.8-1.4-0.3-2.1c0.5-0.7,1.4-0.8,2.1-0.3l11.7,8.7
			c0.7,0.5,0.8,1.4,0.3,2.1C698.7,704.5,698.3,704.7,697.8,704.7z"/>
	</g>
	<g>
		<path class="st36" d="M701,696.2c-0.3,0-0.6-0.1-0.9-0.3l-11.7-8.7c-0.7-0.5-0.8-1.4-0.3-2.1c0.5-0.7,1.4-0.8,2.1-0.3l11.7,8.7
			c0.7,0.5,0.8,1.4,0.3,2.1C701.9,696,701.4,696.2,701,696.2z"/>
	</g>
	<g>
		<path class="st36" d="M703.7,689.6c-0.3,0-0.6-0.1-0.9-0.3l-11.7-8.7c-0.7-0.5-0.8-1.4-0.3-2.1c0.5-0.7,1.4-0.8,2.1-0.3l11.7,8.7
			c0.7,0.5,0.8,1.4,0.3,2.1C704.6,689.4,704.1,689.6,703.7,689.6z"/>
	</g>
	<g>
		<path class="st36" d="M706.8,682.8c-0.3,0-0.6-0.1-0.9-0.3l-11.7-8.7c-0.7-0.5-0.8-1.4-0.3-2.1c0.5-0.7,1.4-0.8,2.1-0.3l11.7,8.7
			c0.7,0.5,0.8,1.4,0.3,2.1C707.8,682.6,707.3,682.8,706.8,682.8z"/>
	</g>
	<g>
		<path class="st36" d="M709.2,676.3c-0.3,0-0.6-0.1-0.9-0.3l-11.7-8.7c-0.7-0.5-0.8-1.4-0.3-2.1c0.5-0.7,1.4-0.8,2.1-0.3l11.7,8.7
			c0.7,0.5,0.8,1.4,0.3,2.1C710.1,676.1,709.7,676.3,709.2,676.3z"/>
	</g>
	<g>
		<path class="st36" d="M712,669.6c-0.3,0-0.6-0.1-0.9-0.3l-11.7-8.7c-0.7-0.5-0.8-1.4-0.3-2.1c0.5-0.7,1.4-0.8,2.1-0.3l11.7,8.7
			c0.7,0.5,0.8,1.4,0.3,2.1C712.9,669.4,712.5,669.6,712,669.6z"/>
	</g>
	<g>
		<path class="st36" d="M715.1,661.7c-0.3,0-0.6-0.1-0.8-0.3l-11.3-7.8c-0.7-0.5-0.8-1.4-0.4-2s1.4-0.8,2-0.4l11.3,7.8
			c0.7,0.5,0.8,1.4,0.4,2C716,661.5,715.6,661.7,715.1,661.7z"/>
	</g>
	<g>
		<path class="st36" d="M717.5,655.2c-0.3,0-0.6-0.1-0.8-0.3l-11.3-7.8c-0.7-0.5-0.8-1.4-0.4-2c0.5-0.7,1.4-0.8,2-0.4l11.3,7.8
			c0.7,0.5,0.8,1.4,0.4,2C718.4,654.9,717.9,655.2,717.5,655.2z"/>
	</g>
	<g>
		<path class="st36" d="M720.8,648c-0.3,0-0.6-0.1-0.8-0.3l-11.3-7.8c-0.7-0.5-0.8-1.4-0.4-2c0.5-0.7,1.4-0.8,2-0.4l11.3,7.8
			c0.7,0.5,0.8,1.4,0.4,2C721.7,647.7,721.2,648,720.8,648z"/>
	</g>
	<g>
		<path class="st36" d="M724.6,641.6c-0.3,0-0.6-0.1-0.8-0.3l-11.3-7.8c-0.7-0.5-0.8-1.4-0.4-2c0.5-0.7,1.4-0.8,2-0.4l11.3,7.8
			c0.7,0.5,0.8,1.4,0.4,2C725.5,641.4,725.1,641.6,724.6,641.6z"/>
	</g>
	<g>
		<path class="st36" d="M728.1,634.8c-0.3,0-0.6-0.1-0.8-0.3l-11.3-7.8c-0.7-0.5-0.8-1.4-0.4-2s1.4-0.8,2-0.4l11.3,7.8
			c0.7,0.5,0.8,1.4,0.4,2C729,634.6,728.5,634.8,728.1,634.8z"/>
	</g>
	<g>
		<path class="st36" d="M731.2,627.5c-0.3,0-0.5-0.1-0.8-0.2L720,620c-0.6-0.4-0.8-1.3-0.3-1.9c0.4-0.6,1.3-0.8,1.9-0.3l10.5,7.3
			c0.6,0.4,0.8,1.3,0.3,1.9C732.1,627.3,731.7,627.5,731.2,627.5z"/>
	</g>
	<g>
		<path class="st36" d="M735.1,620.6c-0.3,0-0.5-0.1-0.7-0.2l-10.3-6.9c-0.6-0.4-0.8-1.2-0.4-1.8c0.4-0.6,1.2-0.8,1.8-0.4l10.3,6.9
			c0.6,0.4,0.8,1.2,0.4,1.8C735.9,620.4,735.5,620.6,735.1,620.6z"/>
	</g>
	<g>
		<path class="st36" d="M739.2,613.6c-0.2,0-0.5-0.1-0.7-0.2l-10-6.4c-0.6-0.4-0.8-1.2-0.4-1.8c0.4-0.6,1.2-0.8,1.8-0.4l10,6.4
			c0.6,0.4,0.8,1.2,0.4,1.8C740.1,613.4,739.6,613.6,739.2,613.6z"/>
	</g>
	<g>
		<path class="st36" d="M743.2,607.5c-0.2,0-0.5-0.1-0.7-0.2l-9.9-6.2c-0.6-0.4-0.8-1.1-0.4-1.7s1.2-0.8,1.7-0.4l9.9,6.2
			c0.6,0.4,0.8,1.1,0.4,1.7C744,607.3,743.6,607.5,743.2,607.5z"/>
	</g>
	<g>
		<path class="st36" d="M747.2,600.7c-0.2,0-0.4,0-0.6-0.2l-9-5.2c-0.5-0.3-0.7-1-0.4-1.6c0.3-0.5,1-0.7,1.6-0.4l9,5.2
			c0.5,0.3,0.7,1,0.4,1.6C748,600.5,747.6,600.7,747.2,600.7z"/>
	</g>
	<g>
		<path class="st36" d="M751.7,594.4c-0.2,0-0.4,0-0.5-0.1l-8.1-4.7c-0.5-0.3-0.7-0.9-0.4-1.4c0.3-0.5,0.9-0.7,1.4-0.4l8.1,4.7
			c0.5,0.3,0.7,0.9,0.4,1.4C752.4,594.2,752,594.4,751.7,594.4z"/>
	</g>
	<g>
		<path class="st36" d="M758.1,588.1c-0.1,0-0.3,0-0.4-0.1l-8.7-3.5c-0.5-0.2-0.8-0.8-0.6-1.3c0.2-0.5,0.8-0.8,1.3-0.6l8.7,3.5
			c0.5,0.2,0.8,0.8,0.6,1.3C758.9,587.9,758.5,588.1,758.1,588.1z"/>
	</g>
	<g>
		<path class="st32" d="M678.7,490.7c0,4.1-4.7,9.6-7.7,10.5c0,0-0.4,9.6,1.5,15.1c0,0,19.3,56.2,34.2,60.4c0,0-19.3,67-65.6,74.1
			c0,0-17.7-9.8-22-40.1c0,0,27.9-10.9,25.7-40.2c0,0-26.6,32.1-60.2,10c-14.8-9.7-25.8-18.9-34.1-33.2c-4-6.8-7.3-14.8-10.2-24.6
			c-4.8-16.5-8.3-38.1-10.9-67.7c0,0,22.3-19.3,37.4-5.6c15.1,13.6,34.9,63.2,88.1,33.9c0,0-3.8-12.8,9.3-15.9
			C677.3,464.4,678.7,486.6,678.7,490.7z"/>
	</g>
	<g>
		<path d="M663.4,489.9c-0.1-0.5-2.8-11.8,3.5-16l0.9,1.4c-5.4,3.5-2.9,14.1-2.8,14.2L663.4,489.9z"/>
	</g>
	<g>
		<path d="M586.5,479.4c-0.2,0-0.3,0-0.5-0.1c-1-0.6-1.9-1.2-2.7-1.8c-9.3-6-9.3-6-18.5-18.6l-1.2-1.6c-10.6-14.5-33.6-1.6-33.8-1.4
			c-0.4,0.2-0.9,0.1-1.2-0.3s-0.1-0.9,0.3-1.2c0.2-0.1,24.5-13.8,36,1.9l1.2,1.6c9,12.3,9,12.3,18.1,18.2c0.8,0.5,1.7,1.1,2.7,1.8
			c0.4,0.3,0.5,0.8,0.2,1.2C587.1,479.2,586.8,479.4,586.5,479.4z"/>
	</g>
	<g>
		<path class="st31" d="M586.5,553.4c0,0,17,2.9,33.3-11.7c1.2,3.5,3.6,16.3-11.1,21.5C594,568.3,590.1,558.4,586.5,553.4z"/>
	</g>
	<g>
		<path class="st37" d="M493.7,865c0,0,4.9,35.8,4.9,42s75.2,5.5,75.2,5.5s0.3-12.7-5.9-19.8c-6.2-7.2-23.8-36.8-23.8-41.3
			S493.7,865,493.7,865z"/>
	</g>
	<g>
		
			<ellipse transform="matrix(0.9239 -0.3825 0.3825 0.9239 -151.128 254.3615)" class="st17" cx="564.1" cy="507.2" rx="4" ry="5.4"/>
	</g>
	<g>
		
			<ellipse transform="matrix(0.9239 -0.3825 0.3825 0.9239 -144.138 270.3788)" class="st17" cx="607.9" cy="497.7" rx="4" ry="5.4"/>
	</g>
	<g>
		<path class="st17" d="M556.3,489.2c-9.3,1-12.1,5.2-17,12.5c0,0,10.6-6.1,14.3-7.5c5.5-2,17.9,0,17.9,0S568.4,488,556.3,489.2z"/>
	</g>
	<g>
		<path class="st17" d="M605.5,478.7c-9.3,1-12.1,5.2-17,12.5c0,0,10.6-6.1,14.3-7.5c5.5-2,17.9,0,17.9,0S617.6,477.4,605.5,478.7z"
			/>
	</g>
	<g>
		<path class="st30" d="M592.2,541.1c-2.1,0-3.7-0.5-4.9-1.6c-2.7-2.5-3-7.2-1-16.5c2.6-11.7-6.5-25.1-9.1-27.7
			c-0.5-0.5-0.5-1.3,0-1.9c0.5-0.5,1.3-0.5,1.9,0c3,2.9,12.8,17.2,9.9,30.2c-1.7,7.9-1.7,12.3,0.2,14c1.6,1.4,4.9,1.2,10.2-0.6
			c0.7-0.2,1.4,0.1,1.7,0.8c0.2,0.7-0.1,1.4-0.8,1.7C596.9,540.5,594.3,541.1,592.2,541.1z"/>
	</g>
	<g>
		<g>
			<path class="st32" d="M445,761.1c0,0,4,8.5,14.4,9.6s21.5,4.2,20.9,5.7c-0.6,1.4-25.2,17-28,21.5c-2.8,4.5-5.5,9.7-5.3,14
				c0,0-6.5,10.9-4.2,17.7c0,0-1.2,8.7,3.8,11.2c0,0-0.2,2.5,2.3,5.4c2.5,2.8,12.4,0.5,15.4,0c3-0.5,19.1-10,19.1-10l13.6,0.8
				c0,0,59.9,20.3,71.8,21.8c0,0,79.4,58.4,104.9,68.2c0,0,9.8-54.4,8.2-76.2c0,0-99.9-49.4-128.4-55.9c0,0-24-24.8-37.5-28.1
				s-33.4-4.4-39.9-5.7C469.6,759.9,442,753.4,445,761.1z"/>
		</g>
		<g>
			<path class="st38" d="M511.4,861.2c0,0,4,6.5,10.8,4.3s19.8-14.4,22.4-18.7c2.5-4.4-8.2-8.2-14.4-4.6
				C523.9,845.9,511.4,861.2,511.4,861.2z"/>
		</g>
		<g>
			<path class="st39" d="M494.1,861.2c0,0,6.3,6.9,13.8,4.3c7.5-2.5,23-17.3,25.9-22.5c2.9-5.3,3.2-12.6-2.9-12.1
				s-11.9,6.5-20.2,13.7C502.4,851.8,494.1,861.2,494.1,861.2z"/>
		</g>
		<g>
			<path class="st40" d="M477.8,857.6c0,0,0,13.4,12.6,7.9c6.3-2.7,22-14.9,27.4-23.3c5.4-8.4,13.7-20,8.7-20.7
				c-5.1-0.7-13.6-4.3-23.6,8.3C493,842.4,477.8,857.6,477.8,857.6z"/>
		</g>
		<g>
			<path class="st37" d="M487.5,831.3c0,0-25.9,22.6-27,24.9c-2.9,5.8,1.1,13.4,7.9,11.9c6.9-1.4,23.5-18.4,27.8-22.7
				s16.2-18,9.7-18.8C499.5,825.8,497.7,822.7,487.5,831.3z"/>
		</g>
	</g>
	<g>
		<path class="st20" d="M510.7,777.1c-0.4,0.6-0.9,1.2-1.4,1.8c-4.6,4.5-12.3,4.2-17.3-0.8c-2.7-2.8-4.1-6.4-3.9-9.8
			c-2.6-0.2-5.1-1.3-7.3-3.1c-0.1,0.1-0.2,0.2-0.2,0.2c-3.6,3.6-9.6,3.3-13.5-0.6c-3.9-3.9-4.1-10-0.6-13.5c2.8-2.8,7-3.2,10.6-1.4
			c0.5-1,1.2-2,2-2.8c4.6-4.5,12.3-4.2,17.3,0.8c2.7,2.8,4.1,6.4,3.9,9.8c2,0.2,4,0.9,5.8,2c0.4-0.6,0.9-1.2,1.4-1.8
			c4.6-4.5,12.3-4.2,17.3,0.8c5,5,5.3,12.7,0.7,17.3C521.7,779.8,515.5,780.1,510.7,777.1z"/>
	</g>
	<g>
		<path class="st20" d="M511.4,833.4c0.1,0.8,0,1.5-0.1,2.3c-0.9,6.4-7.3,10.8-14.3,9.8c-3.9-0.5-7.1-2.6-9.1-5.4
			c-2.2,1.3-4.9,2.1-7.7,1.9c0,0.1,0,0.2,0,0.3c-0.7,5-5.7,8.4-11.2,7.6c-5.5-0.8-9.3-5.4-8.6-10.4c0.5-3.9,3.7-6.8,7.6-7.6
			c-0.2-1.1-0.2-2.3-0.1-3.5c0.9-6.4,7.3-10.8,14.3-9.8c3.9,0.5,7.1,2.6,9.1,5.4c1.7-1,3.7-1.7,5.8-1.9c-0.1-0.8,0-1.5,0.1-2.3
			c0.9-6.4,7.3-10.8,14.3-9.8c7,1,11.9,7,11,13.3C521.8,829,517.1,832.9,511.4,833.4z"/>
	</g>
	<g>
		<path class="st20" d="M448.6,812.9c0.4,0.7,0.8,1.3,1.3,1.9c4.2,4.9,12,5,17.3,0.4c2.9-2.6,4.5-6.1,4.6-9.5
			c2.6-0.1,5.2-0.9,7.5-2.6c0.1,0.1,0.1,0.2,0.2,0.3c3.3,3.8,9.4,3.9,13.5,0.3c4.2-3.6,4.8-9.6,1.5-13.4c-2.6-2.9-6.8-3.7-10.5-2.2
			c-0.4-1-1-2-1.8-2.9c-4.2-4.9-12-5-17.3-0.4c-2.9,2.6-4.5,6.1-4.6,9.5c-2,0.1-4,0.6-5.9,1.6c-0.4-0.7-0.8-1.3-1.3-1.9
			c-4.2-4.9-12-5-17.3-0.4c-5.3,4.6-6.2,12.3-2,17.2C437.4,814.9,443.5,815.6,448.6,812.9z"/>
	</g>
	<g>
		<circle class="st25" cx="489.7" cy="729.5" r="4.4"/>
	</g>
	<g>
		<circle class="st41" cx="469.8" cy="729.7" r="7.4"/>
	</g>
	<g>
		<circle class="st25" cx="486.4" cy="710.8" r="2.8"/>
	</g>
	<g>
		<polygon class="st42" points="224,971.8 224,919.2 602.5,919.2 602.5,970.4 		"/>
	</g>
	<g>
		<ellipse class="st43" cx="413.3" cy="920.9" rx="189.2" ry="17.2"/>
	</g>
	<g class="st26">
		<path class="st25" d="M753.2,883.4v14.5c0,37.9,0,72.5,0,72.5H649.4v-79.2c0,0-2.6-50.8,37.4-66.3v-8h31.5v8.2
			C718.2,825.2,753.2,840.4,753.2,883.4z"/>
	</g>
	<g>
		<path class="st44" d="M753.2,884.8c0,44.7,0,85.6,0,85.6H649.4v-85.6H753.2z"/>
	</g>
	<g class="st45">
		<g>
			<path class="st25" d="M666.6,970.4h-6v-82.9c0-40.1,22.3-51.7,29.7-54.4V820h6v17.6l-2.3,0.5c-1.1,0.3-27.4,7.3-27.4,49.3V970.4z
				"/>
		</g>
	</g>
	<g>
		<rect x="695.3" y="778.5" class="st46" width="14.3" height="9.3"/>
	</g>
	<g>
		<path class="st47" d="M694.2,787.8c0,0-2.4,7.3-7.5,8.5v20.7h31.5v-20.7c0,0-7.5-3.5-7.5-8.5H694.2z"/>
	</g>
	<g>
		<path class="st48" d="M689.1,815.9L689.1,815.9c-0.5,0-0.8-0.4-0.8-0.8v-16.8c0-0.5,0.4-0.8,0.8-0.8l0,0c0.5,0,0.8,0.4,0.8,0.8
			v16.8C690,815.6,689.6,815.9,689.1,815.9z"/>
	</g>
	<g>
		<path class="st48" d="M692.1,815.9L692.1,815.9c-0.5,0-0.8-0.4-0.8-0.8v-16.8c0-0.5,0.4-0.8,0.8-0.8l0,0c0.5,0,0.8,0.4,0.8,0.8
			v16.8C693,815.6,692.6,815.9,692.1,815.9z"/>
	</g>
	<g>
		<path class="st48" d="M695.1,815.9L695.1,815.9c-0.5,0-0.8-0.4-0.8-0.8v-16.8c0-0.5,0.4-0.8,0.8-0.8l0,0c0.5,0,0.8,0.4,0.8,0.8
			v16.8C696,815.6,695.6,815.9,695.1,815.9z"/>
	</g>
	<g>
		<path class="st48" d="M698.1,815.9L698.1,815.9c-0.5,0-0.8-0.4-0.8-0.8v-16.8c0-0.5,0.4-0.8,0.8-0.8l0,0c0.5,0,0.8,0.4,0.8,0.8
			v16.8C699,815.6,698.6,815.9,698.1,815.9z"/>
	</g>
	<g>
		<path class="st48" d="M701.1,815.9L701.1,815.9c-0.5,0-0.8-0.4-0.8-0.8v-16.8c0-0.5,0.4-0.8,0.8-0.8l0,0c0.5,0,0.8,0.4,0.8,0.8
			v16.8C702,815.6,701.6,815.9,701.1,815.9z"/>
	</g>
	<g>
		<path class="st48" d="M704.1,815.9L704.1,815.9c-0.5,0-0.8-0.4-0.8-0.8v-16.8c0-0.5,0.4-0.8,0.8-0.8l0,0c0.5,0,0.8,0.4,0.8,0.8
			v16.8C705,815.6,704.6,815.9,704.1,815.9z"/>
	</g>
	<g>
		<path class="st48" d="M707.1,815.9L707.1,815.9c-0.5,0-0.8-0.4-0.8-0.8v-16.8c0-0.5,0.4-0.8,0.8-0.8l0,0c0.5,0,0.8,0.4,0.8,0.8
			v16.8C708,815.6,707.6,815.9,707.1,815.9z"/>
	</g>
	<g>
		<path class="st48" d="M710.1,815.9L710.1,815.9c-0.5,0-0.8-0.4-0.8-0.8v-16.8c0-0.5,0.4-0.8,0.8-0.8l0,0c0.5,0,0.8,0.4,0.8,0.8
			v16.8C711,815.6,710.6,815.9,710.1,815.9z"/>
	</g>
	<g>
		<path class="st48" d="M713.1,815.9L713.1,815.9c-0.5,0-0.8-0.4-0.8-0.8v-16.8c0-0.5,0.4-0.8,0.8-0.8l0,0c0.5,0,0.8,0.4,0.8,0.8
			v16.8C714,815.6,713.6,815.9,713.1,815.9z"/>
	</g>
	<g>
		<path class="st48" d="M716.1,815.9L716.1,815.9c-0.5,0-0.8-0.4-0.8-0.8v-16.8c0-0.5,0.4-0.8,0.8-0.8l0,0c0.5,0,0.8,0.4,0.8,0.8
			v16.8C717,815.6,716.6,815.9,716.1,815.9z"/>
	</g>
	<g>
		<polygon class="st47" points="670.6,759.1 677.5,754.4 712,754.4 712,759.1 708.3,759.1 708.3,777.9 696.7,777.9 696.7,759.8 
			678.2,759.8 670.6,764.3 		"/>
	</g>
	<g>
		<g>
			<defs>
				<path id="SVGID_1_" d="M433.4,971.5h-26.6V786.6c0-7.3,5.9-13.3,13.3-13.3h0c7.3,0,13.3,5.9,13.3,13.3V971.5z"/>
			</defs>
			<clipPath id="SVGID_2_">
				<use xlink:href="#SVGID_1_"  style="overflow:visible;"/>
			</clipPath>
			<path class="st49" d="M406.8,773.3v198.2V773.3z"/>
			<rect x="406.8" y="773.3" class="st49" width="0.2" height="198.2"/>
			<rect x="407.1" y="773.3" class="st50" width="0.2" height="198.2"/>
			<rect x="407.3" y="773.3" class="st51" width="0.2" height="198.2"/>
			<rect x="407.5" y="773.3" class="st52" width="0.2" height="198.2"/>
			<rect x="407.7" y="773.3" class="st53" width="0.2" height="198.2"/>
			<rect x="408" y="773.3" class="st54" width="0.2" height="198.2"/>
			<rect x="408.2" y="773.3" class="st55" width="0.2" height="198.2"/>
			<rect x="408.4" y="773.3" class="st56" width="0.2" height="198.2"/>
			<rect x="408.7" y="773.3" class="st57" width="0.2" height="198.2"/>
			<rect x="408.9" y="773.3" class="st58" width="0.2" height="198.2"/>
			<rect x="409.1" y="773.3" class="st59" width="0.2" height="198.2"/>
			<rect x="409.3" y="773.3" class="st60" width="0.2" height="198.2"/>
			<rect x="409.6" y="773.3" class="st61" width="0.2" height="198.2"/>
			<rect x="409.8" y="773.3" class="st62" width="0.2" height="198.2"/>
			<rect x="410" y="773.3" class="st63" width="0.2" height="198.2"/>
			<rect x="410.3" y="773.3" class="st64" width="0.2" height="198.2"/>
			<rect x="410.5" y="773.3" class="st65" width="0.2" height="198.2"/>
			<rect x="410.7" y="773.3" class="st66" width="0.2" height="198.2"/>
			<rect x="410.9" y="773.3" class="st67" width="0.2" height="198.2"/>
			<rect x="411.2" y="773.3" class="st68" width="0.2" height="198.2"/>
			<rect x="411.4" y="773.3" class="st69" width="0.2" height="198.2"/>
			<rect x="411.6" y="773.3" class="st70" width="0.2" height="198.2"/>
			<rect x="411.9" y="773.3" class="st71" width="0.2" height="198.2"/>
			<rect x="412.1" y="773.3" class="st72" width="0.2" height="198.2"/>
			<rect x="412.3" y="773.3" class="st73" width="0.2" height="198.2"/>
			<rect x="412.5" y="773.3" class="st74" width="0.2" height="198.2"/>
			<rect x="412.8" y="773.3" class="st75" width="0.2" height="198.2"/>
			<rect x="413" y="773.3" class="st76" width="0.2" height="198.2"/>
			<rect x="413.2" y="773.3" class="st77" width="0.2" height="198.2"/>
			<rect x="413.4" y="773.3" class="st78" width="0.2" height="198.2"/>
			<rect x="413.7" y="773.3" class="st79" width="0.2" height="198.2"/>
			<rect x="413.9" y="773.3" class="st80" width="0.2" height="198.2"/>
			<rect x="414.1" y="773.3" class="st81" width="0.2" height="198.2"/>
			<rect x="414.4" y="773.3" class="st82" width="0.2" height="198.2"/>
			<rect x="414.6" y="773.3" class="st83" width="0.2" height="198.2"/>
			<rect x="414.8" y="773.3" class="st84" width="0.2" height="198.2"/>
			<rect x="415" y="773.3" class="st85" width="0.2" height="198.2"/>
			<rect x="415.3" y="773.3" class="st86" width="0.2" height="198.2"/>
			<rect x="415.5" y="773.3" class="st87" width="0.2" height="198.2"/>
			<rect x="415.7" y="773.3" class="st88" width="0.2" height="198.2"/>
			<rect x="416" y="773.3" class="st89" width="0.2" height="198.2"/>
			<rect x="416.2" y="773.3" class="st90" width="0.2" height="198.2"/>
			<rect x="416.4" y="773.3" class="st91" width="0.2" height="198.2"/>
			<rect x="416.6" y="773.3" class="st92" width="0.2" height="198.2"/>
			<rect x="416.9" y="773.3" class="st93" width="0.2" height="198.2"/>
			<rect x="417.1" y="773.3" class="st94" width="0.2" height="198.2"/>
			<rect x="417.3" y="773.3" class="st95" width="0.2" height="198.2"/>
			<rect x="417.6" y="773.3" class="st96" width="0.2" height="198.2"/>
			<rect x="417.8" y="773.3" class="st97" width="0.2" height="198.2"/>
			<rect x="418" y="773.3" class="st98" width="0.2" height="198.2"/>
			<rect x="418.2" y="773.3" class="st99" width="0.2" height="198.2"/>
			<rect x="418.5" y="773.3" class="st100" width="0.2" height="198.2"/>
			<rect x="418.7" y="773.3" class="st101" width="0.2" height="198.2"/>
			<rect x="418.9" y="773.3" class="st102" width="0.2" height="198.2"/>
			<rect x="419.2" y="773.3" class="st103" width="0.2" height="198.2"/>
			<rect x="419.4" y="773.3" class="st104" width="0.2" height="198.2"/>
			<rect x="419.6" y="773.3" class="st105" width="0.2" height="198.2"/>
			<rect x="419.8" y="773.3" class="st106" width="0.2" height="198.2"/>
			<rect x="420.1" y="773.3" class="st106" width="0.4" height="198.2"/>
			<rect x="420.4" y="773.3" class="st105" width="0.4" height="198.2"/>
			<rect x="420.8" y="773.3" class="st104" width="0.4" height="198.2"/>
			<rect x="421.1" y="773.3" class="st107" width="0.4" height="198.2"/>
			<rect x="421.5" y="773.3" class="st108" width="0.4" height="198.2"/>
			<rect x="421.9" y="773.3" class="st101" width="0.4" height="198.2"/>
			<rect x="422.2" y="773.3" class="st100" width="0.4" height="198.2"/>
			<rect x="422.6" y="773.3" class="st109" width="0.4" height="198.2"/>
			<rect x="422.9" y="773.3" class="st110" width="0.4" height="198.2"/>
			<rect x="423.3" y="773.3" class="st111" width="0.4" height="198.2"/>
			<rect x="423.7" y="773.3" class="st112" width="0.4" height="198.2"/>
			<rect x="424" y="773.3" class="st113" width="0.4" height="198.2"/>
			<rect x="424.4" y="773.3" class="st114" width="0.4" height="198.2"/>
			<rect x="424.7" y="773.3" class="st115" width="0.4" height="198.2"/>
			<rect x="425.1" y="773.3" class="st116" width="0.4" height="198.2"/>
			<rect x="425.5" y="773.3" class="st117" width="0.4" height="198.2"/>
			<rect x="425.8" y="773.3" class="st118" width="0.4" height="198.2"/>
			<rect x="426.2" y="773.3" class="st119" width="0.4" height="198.2"/>
			<rect x="426.5" y="773.3" class="st120" width="0.4" height="198.2"/>
			<rect x="426.9" y="773.3" class="st121" width="0.4" height="198.2"/>
			<rect x="427.3" y="773.3" class="st122" width="0.4" height="198.2"/>
			<rect x="427.6" y="773.3" class="st123" width="0.4" height="198.2"/>
			<rect x="428" y="773.3" class="st124" width="0.4" height="198.2"/>
			<rect x="428.3" y="773.3" class="st125" width="0.4" height="198.2"/>
			<rect x="428.7" y="773.3" class="st126" width="0.4" height="198.2"/>
			<rect x="429.1" y="773.3" class="st127" width="0.4" height="198.2"/>
			<rect x="429.4" y="773.3" class="st128" width="0.4" height="198.2"/>
			<rect x="429.8" y="773.3" class="st129" width="0.4" height="198.2"/>
			<rect x="430.1" y="773.3" class="st130" width="0.4" height="198.2"/>
			<rect x="430.5" y="773.3" class="st131" width="0.4" height="198.2"/>
			<rect x="430.9" y="773.3" class="st132" width="0.4" height="198.2"/>
			<rect x="431.2" y="773.3" class="st133" width="0.4" height="198.2"/>
			<rect x="431.6" y="773.3" class="st134" width="0.4" height="198.2"/>
			<rect x="431.9" y="773.3" class="st135" width="0.4" height="198.2"/>
			<rect x="432.3" y="773.3" class="st136" width="0.4" height="198.2"/>
			<rect x="432.7" y="773.3" class="st137" width="0.4" height="198.2"/>
			<rect x="433" y="773.3" class="st138" width="0.4" height="198.2"/>
			<path class="st138" d="M433.4,971.5V773.3V971.5z"/>
		</g>
	</g>
	<g>
		<path class="st25" d="M476.1,698.2c-0.4,0-0.7,0-1.1-0.1c-2.9-0.6-4.7-3.5-4.1-6.4c0.3-1.4,1.1-2.6,2.3-3.4c1.2-0.8,2.6-1,4-0.7
			c1.4,0.3,2.6,1.1,3.4,2.3s1,2.6,0.7,4l0,0C480.8,696.4,478.6,698.2,476.1,698.2z M476.1,689.4c-0.6,0-1.3,0.2-1.8,0.5
			c-0.8,0.5-1.3,1.2-1.5,2.1c-0.4,1.8,0.8,3.6,2.6,4c1.8,0.4,3.6-0.8,4-2.6l0,0c0.2-0.9,0-1.8-0.5-2.5s-1.2-1.3-2.1-1.5
			C476.5,689.5,476.3,689.4,476.1,689.4z"/>
	</g>
	<g>
		<path class="st25" d="M456.1,701.4c-0.6,0-1.2-0.1-1.8-0.2c-2.2-0.5-4.1-1.8-5.3-3.6c-1.2-1.9-1.6-4.1-1.2-6.3
			c0.5-2.2,1.8-4.1,3.6-5.3c1.9-1.2,4.1-1.6,6.3-1.2c2.2,0.5,4.1,1.8,5.3,3.6c1.2,1.9,1.6,4.1,1.2,6.3l0,0
			C463.5,698.7,460,701.4,456.1,701.4z M456.1,686.6c-1.2,0-2.4,0.3-3.5,1c-1.4,0.9-2.4,2.4-2.8,4c-0.4,1.7,0,3.4,0.9,4.8
			s2.4,2.4,4,2.8c3.4,0.7,6.8-1.5,7.6-4.9l0,0c0.4-1.7,0-3.4-0.9-4.8c-0.9-1.4-2.4-2.4-4-2.8C457,686.7,456.6,686.6,456.1,686.6z"/>
	</g>
	<g>
		<path class="st25" d="M472.8,677.3c-0.2,0-0.5,0-0.7-0.1c-0.9-0.2-1.6-0.7-2.1-1.4c-0.5-0.7-0.6-1.6-0.5-2.5
			c0.2-0.9,0.7-1.6,1.4-2.1c0.7-0.5,1.6-0.6,2.5-0.5c0.9,0.2,1.6,0.7,2.1,1.4c0.5,0.7,0.6,1.6,0.5,2.5
			C475.7,676.3,474.3,677.3,472.8,677.3z M472.8,671.7c-0.4,0-0.9,0.1-1.2,0.4c-0.5,0.3-0.9,0.8-1,1.4c-0.1,0.6,0,1.2,0.3,1.7
			s0.8,0.9,1.4,1c1.2,0.3,2.5-0.5,2.7-1.8l0,0c0.1-0.6,0-1.2-0.3-1.7c-0.3-0.5-0.8-0.9-1.4-1C473.1,671.7,472.9,671.7,472.8,671.7z"
			/>
	</g>
	<g>
		<g>
			<path class="st139" d="M112.5,830c0,0,11.2,26,26.2,39.6c15,13.6,78.4,64,78.4,102.3h-13.8c0,0-2-29.1-19.3-49.6
				C166.7,901.9,114.9,860.6,112.5,830z"/>
		</g>
		<g>
			<path class="st140" d="M203.4,923c-0.3,0-0.5-0.1-0.7-0.3c-14.3-14.4-14.3-14.4-13.4-15.4c0.7-0.8,1.4-0.2,3,1.3
				c0.3,0.2,0.4,0.6,0.3,0.9c2.7,2.9,7.9,8.2,11.5,11.8c0.4,0.4,0.4,1,0,1.4C204,922.9,203.7,923,203.4,923z"/>
		</g>
		<g>
			<path class="st140" d="M203.4,948.2c-0.1,0-0.3,0-0.4-0.1c-0.5-0.2-0.7-0.8-0.5-1.3c0.2-0.5,5.1-11.3,8.5-15.4
				c0.4-0.4,1-0.5,1.4-0.1c0.4,0.4,0.5,1,0.1,1.4c-3.2,3.9-8.1,14.8-8.2,14.9C204.2,948,203.8,948.2,203.4,948.2z"/>
		</g>
		<g>
			<path class="st140" d="M204,972.5c-0.3,0-0.6-0.1-0.8-0.4l-12.3-16.4c-0.3-0.4-0.2-1.1,0.2-1.4c0.4-0.3,1.1-0.2,1.4,0.2
				l10.4,13.9c-0.2-7.1-0.5-25.4-0.5-45.2c0.1-36.1,1.5-58.5,4.2-66.6c0.2-0.5,0.7-0.8,1.3-0.6c0.5,0.2,0.8,0.7,0.6,1.3
				c-2.5,7.8-4,30.6-4.1,66c-0.1,25.2,0.5,48.1,0.6,48.3c0,0.4-0.3,0.8-0.7,1C204.2,972.5,204.1,972.5,204,972.5z"/>
		</g>
		<g>
			<path class="st141" d="M236.7,778.5l0-0.9c0-0.3,0-0.4,0-0.4V777l0.2-0.1c0.2-0.1,0.4-0.1,0.6,0c0.2,0.3,0,0.6-0.2,0.8
				L236.7,778.5z"/>
		</g>
		<g>
			<path class="st140" d="M237.1,809.5c-0.2,8.3-7.3,55.4-30.4,53.9c-0.7,0-1.4-0.1-2.1-0.2c-14.7-2.7-13.4-43.1,11.3-65.5
				c15.2-13.8,19.6-18.4,20.8-19.8c0.1-0.1,0.1-0.2,0.2-0.2C237,780.7,237.3,801.6,237.1,809.5z"/>
		</g>
		<g>
			<path class="st142" d="M237.1,809.5c-0.2,8.3-7.3,55.4-30.4,53.9c1.4-11.9,4.6-33.9,11-45.9c8.8-16.5,16.8-31.5,19-39.7
				c0-0.2,0.1-0.4,0.2-0.6c0,0,0.5-0.2,0,0.4C237,780.7,237.3,801.6,237.1,809.5z"/>
		</g>
		<g>
			<path class="st140" d="M210,935c0,0,0-0.3,0-0.8c-0.1-4.7-0.1-29.8,10.6-39.8c11.9-11.1,27.5-22.7,27.5-22.7s0,0.4,0,1.1
				C248.1,881.2,246.9,935.2,210,935z"/>
		</g>
		<g>
			<path class="st142" d="M210,935c0,0,0-0.3,0-0.8c7.1-8.6,24.2-29.4,29.5-40.3c4.2-8.5,7-16.3,8.6-21.1
				C248.1,881.2,246.9,935.2,210,935z"/>
		</g>
		<g>
			<path class="st140" d="M193.8,959.2C193.8,959.2,193.8,959.2,193.8,959.2c-0.5-0.4-17.8-12.2-30.5-18.1
				c-12.9-6.1-25.5-28-27-37.1c-1.5-9.2-11.6-21.6-11.6-21.6c29.9,9.6,44.9,28.7,54.4,38.4C188.8,930.4,193.8,959.2,193.8,959.2z"/>
		</g>
		<g>
			<path class="st142" d="M193.8,959.2c-0.5-0.4-17.8-12.2-30.5-18.1c-12.9-6.1-25.5-28-27-37.1c-1.5-9.2-11.6-21.6-11.6-21.6
				S175.8,923.1,193.8,959.2z"/>
		</g>
		<g>
			<path class="st140" d="M192.3,910.9c0,0-0.2-0.1-0.6-0.3c-3.8-2.1-24.1-14.1-23.7-31.8c0.3-15.6,0.5-20.5,0.5-21.8
				c0-0.3,0-0.5,0-0.5s10.3,14.2,14.6,17.7C187.5,877.6,197.9,893.7,192.3,910.9z"/>
		</g>
		<g>
			<path class="st142" d="M191.7,910.6c-3.8-2.1-24.1-14.1-23.7-31.8c0.3-15.6,0.5-20.5,0.5-21.8c2.7,12,11.1,31.7,13.2,37.5
				C183.3,898.8,188.6,906.4,191.7,910.6z"/>
		</g>
	</g>
	<g>
		<path class="st19" d="M208.1,671.4c0,0-14.5,1.1-21.5,4.8c-7.1,3.7-12.6,34.1-14.6,43c-2.1,8.9-3,23.1-8,34.8
			c-5,11.5-19.4,27.3-19.8,27.8c0.3-0.5,8.9-16.9,13.1-25.7c4.3-8.9,7.2-38,9.7-47.5c2.5-9.6,11.7-37.7,13.9-42.6
			c0,1.6,16.6-6.1,24.5-0.2c0,0,0,0,0.1,0C206.9,668.6,208.1,671.4,208.1,671.4z"/>
	</g>
</g>
</svg>
