<?xml version="1.0" encoding="utf-8"?>
<!-- Generator: Adobe Illustrator 24.0.3, SVG Export Plug-In . SVG Version: 6.00 Build 0)  -->
<svg version="1.0" id="Layer_1" xmlns="http://www.w3.org/2000/svg" xmlns:xlink="http://www.w3.org/1999/xlink" x="0px" y="0px"
	 viewBox="0 0 640.3 779.8" style="enable-background:new 0 0 640.3 779.8;" xml:space="preserve">
<style type="text/css">
	.st0{fill:#F66330;}
	.st1{fill:#FFFFFF;}
	.st2{fill:#0070BA;}
	.st3{fill:#014785;}
	.st4{fill:#0053A0;}
	.st5{fill:#F90B0B;}
	.st6{fill:#FFBA81;}
	.st7{fill:#FF9F6D;}
	.st8{fill:#003081;}
	.st9{fill:#99E0CA;}
	.st10{fill:#30997B;}
	.st11{fill:#FFBC80;}
	.st12{fill:#F08853;}
	.st13{fill:#003975;}
	.st14{fill:#D2E9F7;}
	.st15{fill:#FFB77E;}
	.st16{fill:#070033;}
	.st17{fill:#B0DFFF;}
	.st18{fill-rule:evenodd;clip-rule:evenodd;fill:#8FD0FA;}
	.st19{fill:#FFBB82;}
	.st20{fill:#FFDC7B;}
	.st21{fill:#FFB847;}
</style>
<g>
	<path class="st0" d="M288.1,744.5h-56.2c-1.7-1.5-2.3-3.4-2.3-5.3c0.1-3.6,2.4-7.4,3.9-8.7c2.4-2,3.4-10,3.4-10l17.8,0.3
		c0,7.2,15.2,13.4,18.9,13.2c5.5-0.3,10.7,3.1,10.7,3.1L288.1,744.5z"/>
</g>
<g>
	<path class="st0" d="M397.6,744.5h-72.4c-0.9-2-1.3-3.7-1.4-5.3c-0.2-4.6,2.5-7.6,2.8-9.3c0.5-2.3-2.9-5.9-2.9-5.9l21.1-8.6
		c0,0,0,0,4,4.7c3.7,4.3,25.1,12.3,33.4,13c0.9,0.1,1.6,0.1,2.1,0c5.7-0.9,9.6,4.5,9.6,4.5L397.6,744.5z"/>
</g>
<g>
	<g>
		<path class="st1" d="M232.2,743.7c-1.1-1-1.6-2.3-1.8-3.8h43c0.2,0,0.3,0,0.4-0.1c0,0,3.3-2.1,8.1-2.1c0.7,0,1.3,0,2,0.1l2.9,5.9
			H232.2z"/>
	</g>
	<g>
		<path class="st0" d="M281.9,738.4L281.9,738.4c0.5,0,1,0,1.5,0.1l2.2,4.4h-53.1c-0.6-0.6-1-1.4-1.2-2.2h42.1
			c0.3,0,0.6-0.1,0.9-0.3C274.3,740.4,277.3,738.4,281.9,738.4 M281.9,736.9c-5.2,0-8.6,2.3-8.6,2.3h-43.8c-0.1,1.9,0.5,3.8,2.3,5.3
			h56.2l-3.6-7.4C283.6,736.9,282.7,736.9,281.9,736.9L281.9,736.9z"/>
	</g>
</g>
<g>
	<g>
		<path class="st1" d="M325.8,743.7c-0.6-1.3-0.9-2.5-1-3.7H380c0.4,0,0.8-0.3,0.8-0.8c0,0,0-3,1.9-5.3c0.3,0,0.6,0,0.9,0
			c0.4,0,0.7,0,1-0.1c0.4-0.1,0.8-0.1,1.2-0.1c4.3,0,7.3,3.8,7.6,4.2l3,5.7H325.8z"/>
	</g>
	<g>
		<path class="st0" d="M385.8,734.6L385.8,734.6c3.8,0,6.5,3.3,6.9,3.9l2.4,4.5h-68.8c-0.3-0.7-0.5-1.5-0.6-2.2H380
			c0.9,0,1.5-0.7,1.6-1.5c0,0,0-2.5,1.5-4.5c0.2,0,0.3,0,0.5,0c0.4,0,0.8,0,1.2-0.1C385,734.6,385.4,734.6,385.8,734.6 M385.8,733
			c-0.4,0-0.9,0-1.3,0.1c-0.3,0-0.6,0.1-0.9,0.1c-0.4,0-0.8,0-1.2-0.1c-2.4,2.5-2.4,6.1-2.4,6.1h-56.1c0.1,1.6,0.4,3.3,1.4,5.3h72.4
			l-3.6-6.9C394,737.6,390.7,733,385.8,733L385.8,733z"/>
	</g>
</g>
<g>
	<path class="st2" d="M233.3,722.3c0,0-22.1-116.3-15.7-143.4c6.4-27.1,13.6-43.7,16.9-58.7c3.4-15.1,6.8-58,6.8-68.5
		c0-10.5,3.8-69.6,3.8-69.6h115.4c0,0,2.7,123-1,143.7s-6.8,79.8-9,102.4c-2.3,22.6-4.9,79.8-1.5,91.8c0,0-21.1,6.8-27.9,6.4
		c0,0-33.9-117.8-32.7-155.1c0,0-33.5,125-30.9,151.7L233.3,722.3z"/>
</g>
<g>
	<path class="st3" d="M243.9,402c0,0,35-19.4,40.8-19.4h-39.6L243.9,402z"/>
</g>
<g>
	<path class="st4" d="M331.1,725.1c-0.5,0-0.9-0.4-1-0.8c0-0.3-0.1-0.6-0.2-1c0-0.1,0-0.1,0-0.2c0-0.5,0.3-0.9,0.8-1
		c0.5-0.1,1.1,0.3,1.2,0.8c0.1,0.3,0.1,0.5,0.2,0.8l0,0.3c0.1,0.6-0.3,1.1-0.8,1.2C331.2,725.1,331.2,725.1,331.1,725.1z M330,719.5
		c-0.5,0-0.9-0.3-1-0.8c0-0.2-0.1-0.4-0.1-0.6l-0.1-0.5c0-0.1,0-0.1,0-0.2c0-0.5,0.4-0.9,0.8-1c0.6-0.1,1.1,0.3,1.2,0.8c0,0,0,0,0,0
		c0,0,0,0,0,0l0.1,0.4c0,0.2,0.1,0.4,0.1,0.6c0.1,0.6-0.2,1.1-0.8,1.2C330.1,719.5,330,719.5,330,719.5z M328.9,713.9
		c-0.5,0-0.9-0.4-1-0.8l0-0.1c-0.1-0.3-0.1-0.6-0.2-1c0-0.1,0-0.1,0-0.2c0-0.5,0.3-0.9,0.8-1c0.6-0.1,1.1,0.3,1.2,0.8l0.2,1
		c0.1,0.6-0.3,1.1-0.8,1.2C329,713.9,328.9,713.9,328.9,713.9z M327.8,708.3c-0.5,0-0.9-0.3-1-0.8c-0.1-0.3-0.1-0.7-0.2-1
		c0-0.1,0-0.1,0-0.2c0-0.5,0.4-0.9,0.8-1c0.5-0.1,1.1,0.3,1.2,0.8c0.1,0.3,0.1,0.7,0.2,1c0.1,0.6-0.2,1.1-0.8,1.2
		C327.9,708.3,327.8,708.3,327.8,708.3z M326.7,702.7c-0.5,0-0.9-0.4-1-0.8c-0.1-0.3-0.1-0.7-0.2-1c0-0.1,0-0.1,0-0.2
		c0-0.5,0.4-0.9,0.8-1c0.5-0.1,1.1,0.3,1.2,0.8c0.1,0.3,0.1,0.6,0.2,0.9l0,0.1c0.1,0.6-0.2,1.1-0.8,1.2
		C326.8,702.7,326.7,702.7,326.7,702.7z M325.6,697c-0.5,0-0.9-0.3-1-0.8l-0.2-1c0-0.1,0-0.1,0-0.2c0-0.5,0.4-0.9,0.8-1
		c0.6-0.1,1.1,0.3,1.2,0.8c0.1,0.3,0.1,0.7,0.2,1c0.1,0.6-0.3,1.1-0.8,1.2C325.7,697,325.6,697,325.6,697z M324.5,691.4
		c-0.5,0-0.9-0.4-1-0.8c-0.1-0.3-0.1-0.7-0.2-1c0-0.1,0-0.1,0-0.2c0-0.5,0.4-0.9,0.8-1c0.5-0.1,1.1,0.3,1.2,0.8
		c0,0.1,0.1,0.3,0.1,0.5c0,0.2,0.1,0.4,0.1,0.5c0.1,0.3,0,0.5-0.2,0.8c-0.1,0.2-0.4,0.4-0.7,0.4
		C324.6,691.4,324.5,691.4,324.5,691.4z M323.4,685.8c-0.5,0-0.9-0.3-1-0.8c-0.1-0.3-0.1-0.7-0.2-1c0-0.1,0-0.1,0-0.2
		c0-0.5,0.4-0.9,0.8-1c0.6-0.1,1.1,0.3,1.2,0.8l0.2,1c0.1,0.3,0,0.6-0.2,0.8c-0.1,0.2-0.4,0.4-0.7,0.4
		C323.5,685.8,323.4,685.8,323.4,685.8z M322.3,680.2c-0.5,0-0.9-0.4-1-0.8c-0.1-0.3-0.1-0.7-0.2-1v0c0-0.1,0-0.1,0-0.2
		c0-0.5,0.4-0.9,0.8-1c0.6-0.1,1.1,0.3,1.2,0.8c0.1,0.3,0.1,0.7,0.2,1c0.1,0.6-0.3,1.1-0.8,1.2C322.4,680.2,322.4,680.2,322.3,680.2
		z M321.2,674.6c-0.5,0-0.9-0.4-1-0.8c0-0.1,0-0.3-0.1-0.5c0-0.2-0.1-0.4-0.1-0.6c0-0.1,0-0.1,0-0.2c0-0.5,0.4-0.9,0.8-1
		c0.6-0.1,1.1,0.3,1.2,0.8c0,0.2,0.1,0.4,0.1,0.5l0.1,0.5c0.1,0.3,0,0.5-0.2,0.8c-0.1,0.2-0.4,0.4-0.7,0.4
		C321.3,674.6,321.3,674.6,321.2,674.6z M320.1,669c-0.5,0-0.9-0.3-1-0.8c-0.1-0.3-0.1-0.5-0.2-0.8l0-0.2c0,0,0,0,0,0
		c0-0.1,0-0.1,0-0.2c0-0.5,0.4-0.9,0.9-1c0.5-0.1,1.1,0.3,1.2,0.8l0.1,0.4c0,0.2,0.1,0.4,0.1,0.6c0,0.3,0,0.6-0.2,0.8
		c-0.2,0.2-0.4,0.4-0.7,0.4C320.3,669,320.2,669,320.1,669z M319.1,663.4c-0.5,0-0.9-0.4-1-0.8c-0.1-0.3-0.1-0.7-0.2-1
		c0-0.1,0-0.1,0-0.2c0-0.5,0.4-0.9,0.9-1c0.5-0.1,1.1,0.3,1.2,0.8c0,0.2,0.1,0.4,0.1,0.6l0.1,0.4c0.1,0.6-0.3,1.1-0.8,1.2
		C319.2,663.4,319.1,663.4,319.1,663.4z M318,657.7c-0.5,0-0.9-0.3-1-0.8l-0.2-1c0-0.1,0-0.1,0-0.2c0-0.5,0.4-0.9,0.8-1
		c0.6-0.1,1.1,0.3,1.2,0.8l0,0.2c0.1,0.3,0.1,0.6,0.2,0.9c0,0.3,0,0.5-0.2,0.8c-0.2,0.2-0.4,0.4-0.7,0.4
		C318.1,657.7,318.1,657.7,318,657.7z M316.9,652.1c-0.5,0-0.9-0.4-1-0.9l-0.2-1c0-0.1,0-0.1,0-0.2c0-0.5,0.4-0.9,0.9-1
		c0.6-0.1,1.1,0.3,1.2,0.8l0.2,1c0.1,0.6-0.3,1.1-0.8,1.2C317.1,652.1,317,652.1,316.9,652.1z M315.9,646.5c-0.5,0-0.9-0.4-1-0.9
		c0-0.2-0.1-0.3-0.1-0.5c0-0.2-0.1-0.4-0.1-0.5c0,0,0,0,0,0c0,0,0-0.1,0-0.2c0-0.5,0.3-0.9,0.8-1c0.6-0.1,1.1,0.3,1.2,0.8
		c0.1,0.3,0.1,0.7,0.2,1c0.1,0.6-0.3,1.1-0.8,1.2C316,646.5,315.9,646.5,315.9,646.5z M314.8,640.9c-0.5,0-0.9-0.4-1-0.9
		c-0.1-0.3-0.1-0.6-0.2-1l0-0.1c0-0.1,0-0.1,0-0.2c0-0.5,0.4-0.9,0.8-1c0.6-0.1,1.1,0.3,1.2,0.8c0.1,0.3,0.1,0.7,0.2,1
		c0.1,0.6-0.3,1.1-0.8,1.2C315,640.9,314.9,640.9,314.8,640.9z M313.8,635.3c-0.5,0-0.9-0.4-1-0.9c-0.1-0.3-0.1-0.7-0.2-1v0
		c0-0.1,0-0.1,0-0.2c0-0.5,0.4-0.9,0.9-1c0.5-0.1,1.1,0.3,1.2,0.8c0.1,0.3,0.1,0.7,0.2,1c0.1,0.6-0.3,1.1-0.8,1.2
		C313.9,635.3,313.9,635.3,313.8,635.3z M312.8,629.6c-0.5,0-0.9-0.4-1-0.9c-0.1-0.3-0.1-0.7-0.2-1c0-0.1,0-0.1,0-0.2
		c0-0.5,0.4-0.9,0.9-1c0.5-0.1,1.1,0.3,1.2,0.8c0,0,0,0,0,0l0.1,0.3c0,0.2,0.1,0.5,0.1,0.7c0.1,0.3,0,0.5-0.2,0.8
		c-0.2,0.2-0.4,0.4-0.7,0.4C312.9,629.6,312.9,629.6,312.8,629.6z M311.8,624c-0.5,0-0.9-0.4-1-0.9l-0.1-0.4c0-0.2-0.1-0.4-0.1-0.6
		c0,0,0,0,0,0c0,0,0-0.1,0-0.2c0-0.5,0.4-0.9,0.9-1c0.6-0.1,1.1,0.3,1.2,0.8c0,0.2,0.1,0.4,0.1,0.6l0.1,0.4c0.1,0.6-0.3,1.1-0.8,1.2
		C311.9,624,311.9,624,311.8,624z M310.8,618.4c-0.5,0-0.9-0.4-1-0.9l-0.1-0.4c0-0.2-0.1-0.4-0.1-0.6c0-0.1,0-0.1,0-0.2
		c0-0.5,0.4-0.9,0.9-1c0.6-0.1,1.1,0.3,1.2,0.9c0,0.2,0.1,0.5,0.1,0.7l0.1,0.3c0.1,0.6-0.3,1.1-0.9,1.2
		C310.9,618.4,310.9,618.4,310.8,618.4z M309.9,612.7c-0.5,0-0.9-0.4-1-0.9l-0.1-0.4c0-0.2-0.1-0.5-0.1-0.7c0,0,0-0.1,0-0.2
		c0-0.5,0.4-0.9,0.9-1c0.6-0.1,1.1,0.3,1.2,0.9c0,0.3,0.1,0.7,0.2,1c0.1,0.6-0.3,1.1-0.9,1.2C310,612.7,310,612.7,309.9,612.7z
		 M309.1,607.1c-0.5,0-1-0.4-1-0.9c0-0.2-0.1-0.3-0.1-0.5c0-0.2,0-0.4-0.1-0.6c0,0,0,0,0,0c0,0,0-0.1,0-0.1c0-0.5,0.4-1,0.9-1
		c0.6-0.1,1.1,0.3,1.1,0.9c0,0,0,0,0,0c0,0,0,0.1,0,0.1l0,0.2c0,0.2,0.1,0.5,0.1,0.7c0.1,0.6-0.3,1.1-0.9,1.2
		C309.2,607.1,309.1,607.1,309.1,607.1z M308.4,601.4c-0.5,0-1-0.4-1-1c0-0.3-0.1-0.7-0.1-1c0,0,0,0,0-0.1c0-0.5,0.4-1,0.9-1
		c0.6,0,1.1,0.4,1.1,1c0,0.3,0.1,0.7,0.1,1c0,0.3-0.1,0.5-0.2,0.8C309,601.2,308.8,601.4,308.4,601.4
		C308.5,601.4,308.5,601.4,308.4,601.4z M308.1,595.7L308.1,595.7c-0.6,0-1-0.4-1.1-1c0-0.4,0-0.7,0-1v0v0c0-0.6,0.4-1,1-1
		c0.6,0,1.1,0.4,1.1,1l0,0c0,0.3,0,0.5,0,0.8v0.2C309.1,595.2,308.7,595.7,308.1,595.7L308.1,595.7z M307.9,590L307.9,590
		c-0.3,0-0.5-0.1-0.7-0.3c-0.2-0.2-0.3-0.5-0.3-0.7c0-0.4,0-0.7,0-1.1c0-0.6,0.5-1,1-1c0.6,0,1,0.5,1,1c0,0.3,0,0.7,0,1
		C309,589.5,308.5,590,307.9,590z M308.1,584.3L308.1,584.3c-0.6,0-1.1-0.5-1-1.1l0.1-1.1l0,0c0-0.6,0.5-1,1.1-1c0.5,0,1,0.5,1,1
		c0,0,0,0,0,0.1c0,0.3,0,0.7-0.1,1C309.1,583.9,308.6,584.3,308.1,584.3z M308.5,578.6c0,0-0.1,0-0.1,0c-0.6,0-1-0.6-0.9-1.1l0.1-1
		c0.1-0.6,0.6-1,1.1-0.9c0.5,0.1,0.9,0.5,0.9,1c0,0,0,0.1,0,0.1c0,0.2-0.1,0.5-0.1,0.8l0,0.3C309.5,578.2,309,578.6,308.5,578.6z
		 M309.2,573c0,0-0.1,0-0.1,0c-0.3,0-0.5-0.2-0.7-0.4c-0.2-0.2-0.2-0.5-0.2-0.8c0-0.4,0.1-0.7,0.2-1c0,0,0,0,0,0
		c0.1-0.6,0.6-0.9,1.2-0.9c0.5,0.1,0.9,0.5,0.9,1c0,0,0,0.1,0,0.1c0,0,0,0,0,0c0,0,0,0,0,0.1l0,0.2c0,0.2-0.1,0.5-0.1,0.7
		C310.2,572.6,309.7,573,309.2,573z M310.2,567.3c-0.1,0-0.1,0-0.2,0c-0.3-0.1-0.5-0.2-0.7-0.4c-0.1-0.2-0.2-0.5-0.2-0.8
		c0.1-0.3,0.1-0.7,0.2-1c0.1-0.5,0.7-0.9,1.2-0.8c0.5,0.1,0.8,0.5,0.8,1c0,0.1,0,0.1,0,0.2c0,0.2-0.1,0.3-0.1,0.5
		c0,0.2-0.1,0.3-0.1,0.5C311.1,567,310.7,567.3,310.2,567.3z M311.3,561.7c-0.1,0-0.2,0-0.2,0c-0.6-0.1-0.9-0.7-0.8-1.2
		c0.1-0.3,0.1-0.7,0.2-1c0.1-0.6,0.7-0.9,1.2-0.8c0.5,0.1,0.8,0.5,0.8,1c0,0.1,0,0.2,0,0.2c-0.1,0.3-0.1,0.7-0.2,1
		C312.2,561.4,311.8,561.7,311.3,561.7z M312.7,556.2c-0.1,0-0.2,0-0.3,0c-0.5-0.1-0.9-0.7-0.8-1.3l0-0.1c0.1-0.3,0.2-0.6,0.2-0.9
		c0.1-0.5,0.7-0.9,1.3-0.7c0.5,0.1,0.8,0.5,0.8,1c0,0.1,0,0.2,0,0.3c-0.1,0.3-0.2,0.7-0.3,1C313.6,555.9,313.2,556.2,312.7,556.2z
		 M314.1,550.7c-0.1,0-0.2,0-0.3,0c-0.6-0.2-0.9-0.7-0.7-1.3c0.1-0.2,0.1-0.4,0.1-0.6l0.1-0.4c0.1-0.5,0.7-0.9,1.3-0.7
		c0.4,0.1,0.8,0.5,0.8,1c0,0.1,0,0.2,0,0.3c-0.1,0.3-0.2,0.6-0.2,0.9l0,0.1C315,550.4,314.6,550.7,314.1,550.7z M315.6,545.2
		c-0.1,0-0.2,0-0.2,0c-0.3-0.1-0.5-0.2-0.6-0.5c-0.1-0.2-0.2-0.5-0.1-0.8c0.1-0.3,0.1-0.7,0.2-1c0.1-0.6,0.7-0.9,1.2-0.8
		c0.5,0.1,0.8,0.5,0.8,1c0,0.1,0,0.1,0,0.2c-0.1,0.3-0.1,0.7-0.2,1C316.5,544.8,316.1,545.2,315.6,545.2z M316.6,539.6
		c0,0-0.1,0-0.1,0c-0.6-0.1-1-0.6-0.9-1.1c0-0.3,0.1-0.7,0.1-1c0,0,0,0,0,0c0-0.6,0.5-1,1.1-0.9c0.5,0.1,0.9,0.5,0.9,1
		c0,0,0,0.1,0,0.1c0,0.4-0.1,0.7-0.1,1.1C317.5,539.2,317.1,539.6,316.6,539.6z M317,533.9C317,533.9,317,533.9,317,533.9
		c-0.3,0-0.6-0.1-0.8-0.3c-0.2-0.2-0.3-0.5-0.3-0.8c0-0.4,0-0.7,0-1c0,0,0,0,0,0c0-0.6,0.5-1,1.1-1c0.6,0,1,0.5,1,1.1c0,0,0,0,0,0
		c0,0.4,0,0.7,0,1C318,533.4,317.6,533.9,317,533.9z M317.1,528.2L317.1,528.2c-0.6,0-1-0.5-1-1v-0.2c0-0.1,0-0.3,0-0.4
		c0-0.1,0-0.3,0-0.4c0,0,0,0,0,0c0-0.3,0.1-0.5,0.3-0.7c0.2-0.2,0.5-0.3,0.7-0.3c0.6,0,1,0.5,1,1c0,0.2,0,0.3,0,0.4
		c0,0.1,0,0.3,0,0.4c0,0.1,0,0.1,0,0.2C318.2,527.7,317.7,528.2,317.1,528.2z M317,522.4c-0.6,0-1-0.4-1-1c0-0.2,0-0.3,0-0.5
		c0-0.2,0-0.3,0-0.5c0,0,0,0,0-0.1c0-0.5,0.4-1,1-1c0.6,0,1.1,0.4,1.1,1l0,0.2c0,0.3,0,0.6,0,0.9C318.1,521.9,317.6,522.4,317,522.4
		C317.1,522.4,317,522.4,317,522.4z M316.8,516.7c-0.6,0-1-0.4-1-1l-0.1-1c0,0,0-0.1,0-0.1c0-0.5,0.4-1,1-1c0.6-0.1,1.1,0.4,1.1,1
		l0,0.3c0,0.2,0,0.5,0.1,0.7C317.8,516.2,317.4,516.7,316.8,516.7C316.8,516.7,316.8,516.7,316.8,516.7z M316.4,511
		c-0.5,0-1-0.4-1-0.9l0-0.5c0-0.2,0-0.4-0.1-0.6l0,0c0,0,0-0.1,0-0.1c0-0.5,0.4-1,1-1c0.6,0,1.1,0.4,1.1,1v0c0,0.3,0.1,0.7,0.1,1
		C317.4,510.5,317,511,316.4,511C316.4,511,316.4,511,316.4,511z M315.8,505.4c-0.5,0-1-0.4-1-0.9c0-0.2-0.1-0.5-0.1-0.7l0-0.3
		c0,0,0,0,0,0c0,0,0-0.1,0-0.1c0-0.5,0.4-1,0.9-1c0.6-0.1,1.1,0.4,1.1,0.9l0,0.1c0,0.3,0.1,0.6,0.1,1c0,0.3-0.1,0.5-0.2,0.8
		c-0.2,0.2-0.4,0.3-0.7,0.4C315.9,505.4,315.9,505.4,315.8,505.4z M315.2,499.7c-0.5,0-1-0.4-1-0.9c0-0.2-0.1-0.5-0.1-0.7l0-0.3
		c0,0,0-0.1,0-0.1c0-0.5,0.4-1,0.9-1c0.6-0.1,1.1,0.3,1.2,0.9l0,0.4c0,0.2,0,0.4,0.1,0.7c0.1,0.6-0.3,1.1-0.9,1.2
		C315.3,499.7,315.2,499.7,315.2,499.7z M314.5,494c-0.5,0-1-0.4-1-0.9c0-0.3-0.1-0.7-0.1-1c0,0,0-0.1,0-0.1c0-0.5,0.4-1,0.9-1
		c0.6-0.1,1.1,0.3,1.2,0.9c0,0.3,0.1,0.7,0.1,1c0.1,0.6-0.3,1.1-0.9,1.2C314.6,494,314.5,494,314.5,494z M313.7,488.4
		c-0.5,0-1-0.4-1-0.9c-0.1-0.7-0.2-1-0.2-1c-0.1-0.6,0.3-1.1,0.9-1.2s1.1,0.3,1.2,0.8c0,0,0,0,0,0.1c0,0.1,0.1,0.5,0.2,1
		c0,0.3,0,0.5-0.2,0.8c-0.2,0.2-0.4,0.4-0.7,0.4C313.8,488.3,313.7,488.4,313.7,488.4z"/>
</g>
<g>
	<path class="st5" d="M288.6,571.5c-0.1,0-0.1,0-0.2,0c-0.3-0.1-0.4-0.4-0.3-0.6l45.4-148.4c0.1-0.3,0.4-0.4,0.6-0.3
		c0.3,0.1,0.4,0.4,0.3,0.6l-45.4,148.4C289,571.4,288.8,571.5,288.6,571.5z"/>
</g>
<g>
	<path class="st4" d="M239.7,721.8c-0.5,0-1-0.4-1-0.9c0-0.3-0.1-0.7-0.1-1c0,0,0-0.1,0-0.1c0-0.5,0.4-1,0.9-1
		c0.6-0.1,1.1,0.3,1.1,0.9c0,0.2,0,0.4,0.1,0.6c0,0.2,0,0.3,0.1,0.5c0.1,0.6-0.4,1.1-0.9,1.1C239.7,721.8,239.7,721.8,239.7,721.8z
		 M239,716.1c-0.5,0-1-0.4-1-0.9c0-0.3-0.1-0.7-0.1-1l0,0c0,0,0-0.1,0-0.1c0-0.5,0.4-1,0.9-1c0.6-0.1,1.1,0.4,1.2,0.9
		c0,0.4,0.1,0.7,0.1,1c0.1,0.6-0.4,1.1-0.9,1.1C239.1,716.1,239.1,716.1,239,716.1z M238.4,710.5L238.4,710.5c-0.5,0-1-0.4-1-0.9
		c0-0.3-0.1-0.6-0.1-0.9l0-0.1v0c0,0,0-0.1,0-0.1c0-0.5,0.4-1,0.9-1c0.6-0.1,1.1,0.3,1.1,0.9v0c0,0,0,0,0,0c0,0.3,0.1,0.7,0.1,1
		c0.1,0.6-0.4,1.1-0.9,1.2C238.5,710.4,238.4,710.5,238.4,710.5z M237.8,704.8c-0.5,0-1-0.4-1-0.9c0-0.2,0-0.4-0.1-0.6l0-0.4
		c0,0,0,0,0,0c0,0,0-0.1,0-0.1c0-0.5,0.4-1,0.9-1c0.6-0.1,1.1,0.4,1.1,0.9l0,0.1c0,0.3,0.1,0.6,0.1,0.9c0.1,0.6-0.3,1.1-0.9,1.1
		C237.8,704.8,237.8,704.8,237.8,704.8z M237.1,699.1c-0.5,0-1-0.4-1-0.9c0-0.2,0-0.3-0.1-0.5s0-0.3,0-0.5c0,0,0,0,0,0
		c0,0,0-0.1,0-0.1c0-0.5,0.4-1,0.9-1c0.6,0,1.1,0.4,1.1,0.9l0,0.1c0,0.3,0.1,0.6,0.1,0.9c0.1,0.6-0.4,1.1-0.9,1.1
		C237.2,699.1,237.2,699.1,237.1,699.1z M236.5,693.4c-0.5,0-1-0.4-1-0.9c0-0.2,0-0.4-0.1-0.5c0-0.2,0-0.3-0.1-0.5c0,0,0,0,0,0
		c0,0,0-0.1,0-0.1c0-0.5,0.4-1,0.9-1c0.6,0,1.1,0.4,1.1,0.9c0,0.2,0,0.3,0,0.5c0,0.2,0,0.4,0.1,0.5c0.1,0.6-0.3,1.1-0.9,1.2
		C236.6,693.4,236.5,693.4,236.5,693.4z M235.9,687.7c-0.5,0-1-0.4-1-0.9l0-0.2c0-0.3,0-0.5-0.1-0.8c0,0,0-0.1,0-0.1
		c0-0.5,0.4-1,0.9-1c0.6-0.1,1.1,0.4,1.1,0.9c0,0.2,0,0.4,0.1,0.6l0.1,0.4c0,0.3-0.1,0.5-0.2,0.8c-0.2,0.2-0.4,0.4-0.7,0.4
		C236,687.7,235.9,687.7,235.9,687.7z M235.3,682c-0.5,0-1-0.4-1-0.9l-0.1-1c0,0,0-0.1,0-0.1c0-0.5,0.4-1,0.9-1
		c0.6-0.1,1.1,0.4,1.1,0.9c0,0.3,0.1,0.7,0.1,1c0.1,0.6-0.4,1.1-0.9,1.1C235.4,682,235.3,682,235.3,682z M234.7,676.3
		c-0.5,0-1-0.4-1-0.9c0-0.2,0-0.4-0.1-0.6l0-0.4c0,0,0,0,0,0c0,0,0-0.1,0-0.1c0-0.5,0.4-1,0.9-1c0.6-0.1,1.1,0.4,1.1,0.9l0,0.4
		c0,0.2,0,0.4,0.1,0.6c0,0.3,0,0.5-0.2,0.8c-0.2,0.2-0.4,0.4-0.7,0.4C234.7,676.3,234.7,676.3,234.7,676.3z M234.1,670.7
		c-0.5,0-1-0.4-1-0.9l-0.1-1v0c0,0,0-0.1,0-0.1c0-0.5,0.4-1,0.9-1c0.6-0.1,1.1,0.4,1.1,0.9c0,0.3,0.1,0.7,0.1,1
		c0.1,0.6-0.4,1.1-0.9,1.1C234.1,670.7,234.1,670.7,234.1,670.7z M233.5,665c-0.5,0-1-0.4-1-0.9c0-0.2,0-0.4-0.1-0.5l0-0.5
		c0,0,0-0.1,0-0.1c0-0.5,0.4-1,0.9-1c0.6-0.1,1.1,0.4,1.1,0.9c0,0.4,0.1,0.7,0.1,1c0,0.3-0.1,0.5-0.2,0.8c-0.2,0.2-0.4,0.3-0.7,0.4
		C233.6,665,233.5,665,233.5,665z M232.9,659.3c-0.5,0-1-0.4-1-0.9c0-0.4-0.1-0.7-0.1-1c0,0,0-0.1,0-0.1c0-0.5,0.4-1,0.9-1
		c0.6-0.1,1.1,0.4,1.1,0.9v0l0,0l0,0l-0.1,0h0.1l0,0.2c0,0.3,0.1,0.5,0.1,0.8C234,658.7,233.6,659.2,232.9,659.3
		C233,659.3,232.9,659.3,232.9,659.3z M232.3,653.6c-0.5,0-1-0.4-1-0.9l0-0.3c0-0.2,0-0.5-0.1-0.8c0,0,0-0.1,0-0.1
		c0-0.5,0.4-1,0.9-1c0.6,0,1.1,0.4,1.1,0.9c0,0.3,0.1,0.6,0.1,0.9l0,0.1c0.1,0.6-0.4,1.1-0.9,1.1
		C232.4,653.6,232.4,653.6,232.3,653.6z M231.8,647.9c-0.5,0-1-0.4-1-0.9l0-0.1c0-0.3-0.1-0.6-0.1-1c0,0,0-0.1,0-0.1
		c0-0.5,0.4-1,1-1c0.6,0,1.1,0.4,1.1,0.9c0,0.3,0.1,0.7,0.1,1c0.1,0.6-0.4,1.1-0.9,1.1C231.8,647.9,231.8,647.9,231.8,647.9z
		 M231.3,642.2c-0.5,0-1-0.4-1-1c0-0.1,0-0.1,0-0.2c0-0.1,0-0.3,0-0.5l0-0.4c0,0,0-0.1,0-0.1c0-0.5,0.4-1,1-1c0.6,0,1.1,0.4,1.1,1
		l0,0.3c0,0.2,0,0.3,0,0.5v0c0,0.1,0,0.1,0,0.2c0,0.3-0.1,0.5-0.2,0.8C231.9,642.1,231.6,642.2,231.3,642.2
		C231.3,642.2,231.3,642.2,231.3,642.2z M230.8,636.5c-0.5,0-1-0.4-1-1c0-0.3,0-0.7-0.1-1c0,0,0,0,0,0c0-0.6,0.4-1,1-1
		c0.6,0,1.1,0.4,1.1,1v0c0,0,0,0,0,0.1c0,0.3,0.1,0.6,0.1,1C231.9,636,231.5,636.5,230.8,636.5C230.9,636.5,230.9,636.5,230.8,636.5
		z M230.5,630.8c-0.6,0-1-0.4-1-1l0-1c0,0,0,0,0-0.1c0-0.5,0.4-1,1-1c0.6-0.1,1.1,0.4,1.1,1c0,0.3,0,0.7,0.1,1
		C231.6,630.3,231.1,630.8,230.5,630.8C230.6,630.8,230.5,630.8,230.5,630.8z M230.3,625.1L230.3,625.1c-0.6,0-1.1-0.4-1.1-1
		c0-0.3,0-0.7,0-1c0,0,0,0,0,0c0-0.6,0.4-1,1-1c0.6,0,1,0.4,1.1,1c0,0.3,0,0.7,0,1C231.3,624.6,230.9,625.1,230.3,625.1L230.3,625.1
		z M230.1,619.4c-0.6,0-1-0.5-1-1v0c0-0.3,0-0.7,0-1v0c0,0,0,0,0,0c0-0.6,0.4-1,1-1h0c0.6,0,1,0.4,1,1l0,0c0,0.3,0,0.7,0,1
		c0,0.3-0.1,0.5-0.3,0.7C230.6,619.3,230.4,619.4,230.1,619.4C230.1,619.4,230.1,619.4,230.1,619.4z M229.9,613.7L229.9,613.7
		L229.9,613.7c-0.6,0-1.1-0.5-1.1-1c0-0.2,0-0.4,0-0.6l0-0.5c0-0.6,0.4-1,1-1h0c0.6,0,1,0.4,1,1c0,0.2,0,0.3,0,0.5
		c0,0.2,0,0.4,0,0.5C231,613.2,230.5,613.7,229.9,613.7z M229.8,608L229.8,608L229.8,608c-0.6,0-1-0.5-1-1v-0.4c0-0.2,0-0.4,0-0.6
		c0-0.3,0.1-0.5,0.3-0.7c0.2-0.2,0.4-0.3,0.7-0.3h0c0.6,0,1,0.5,1,1v0.2c0,0.3,0,0.6,0,0.9C230.9,607.5,230.4,608,229.8,608z
		 M229.8,602.3L229.8,602.3c-0.6,0-1-0.5-1-1c0-0.2,0-0.3,0-0.5c0-0.2,0-0.3,0-0.5c0-0.6,0.5-1,1-1c0.6,0,1,0.4,1,1v0c0,0,0,0,0,0.1
		v0.4c0,0.2,0,0.4,0,0.5C230.8,601.8,230.4,602.3,229.8,602.3z M229.8,596.6L229.8,596.6c-0.3,0-0.5-0.1-0.7-0.3
		c-0.2-0.2-0.3-0.5-0.3-0.7c0-0.3,0-0.6,0-0.9v-0.2c0-0.6,0.5-1,1-1c0.3,0,0.5,0.1,0.7,0.3c0.2,0.2,0.3,0.5,0.3,0.7c0,0.3,0,0.7,0,1
		C230.8,596.1,230.4,596.6,229.8,596.6z M229.9,590.9L229.9,590.9c-0.3,0-0.6-0.1-0.7-0.3c-0.2-0.2-0.3-0.5-0.3-0.7l0-1
		c0-0.6,0.5-1,1-1h0c0.6,0,1,0.5,1,1c0,0,0,0,0,0l0,1C230.9,590.4,230.4,590.9,229.9,590.9z M230,585.2
		C230,585.2,230,585.2,230,585.2c-0.3,0-0.6-0.1-0.8-0.3c-0.2-0.2-0.3-0.5-0.3-0.7c0-0.4,0-0.7,0-1v0c0-0.6,0.5-1,1.1-1
		c0.6,0,1,0.5,1,1v0v0c0,0.2,0,0.3,0,0.5c0,0.2,0,0.4,0,0.5C231,584.7,230.6,585.2,230,585.2z M230.2,579.5
		C230.2,579.5,230.2,579.5,230.2,579.5c-0.3,0-0.6-0.1-0.8-0.3c-0.2-0.2-0.3-0.5-0.3-0.8c0-0.3,0-0.7,0-1c0-0.6,0.5-1,1.1-1
		c0.5,0,1,0.5,1,1c0,0,0,0,0,0l-0.1,1C231.2,579,230.8,579.5,230.2,579.5z M230.6,573.8C230.6,573.8,230.5,573.8,230.6,573.8
		c-0.4,0-0.6-0.2-0.8-0.4c-0.2-0.2-0.3-0.5-0.2-0.8l0.1-1c0-0.6,0.5-1,1.1-1c0.5,0,1,0.5,1,1c0,0,0,0,0,0.1c0,0.2,0,0.4,0,0.5
		c0,0.2,0,0.3,0,0.5C231.6,573.3,231.1,573.8,230.6,573.8z M231.1,568.1c0,0-0.1,0-0.1,0c-0.3,0-0.5-0.2-0.7-0.4
		c-0.2-0.2-0.2-0.5-0.2-0.8c0-0.4,0.1-0.7,0.1-1c0.1-0.6,0.6-1,1.1-0.9c0.5,0.1,0.9,0.5,0.9,1c0,0,0,0.1,0,0.1c0,0.3-0.1,0.7-0.1,1
		C232,567.7,231.6,568.1,231.1,568.1z M231.8,562.4c-0.1,0-0.1,0-0.2,0c-0.3,0-0.5-0.2-0.7-0.4c-0.2-0.2-0.2-0.5-0.2-0.8
		c0.1-0.4,0.1-0.7,0.2-1c0,0,0,0,0,0c0.1-0.5,0.6-0.9,1.2-0.8c0.5,0.1,0.8,0.5,0.8,1c0,0.1,0,0.1,0,0.2c0,0.3-0.1,0.7-0.2,1
		C232.7,562,232.3,562.4,231.8,562.4z M233,556.8c-0.1,0-0.2,0-0.3,0c-0.3-0.1-0.5-0.2-0.6-0.5s-0.2-0.5-0.1-0.8
		c0.1-0.3,0.2-0.7,0.3-1l0,0c0.1-0.5,0.7-0.9,1.3-0.7c0.5,0.1,0.8,0.5,0.8,1c0,0.1,0,0.2,0,0.3c-0.1,0.3-0.1,0.5-0.2,0.8l-0.1,0.2
		C233.9,556.5,233.5,556.8,233,556.8z M234.5,551.3L234.5,551.3c-0.1,0-0.2,0-0.3,0c-0.3-0.1-0.5-0.3-0.6-0.5
		c-0.1-0.2-0.2-0.5-0.1-0.8c0.1-0.3,0.2-0.7,0.3-1v0c0.2-0.5,0.8-0.8,1.3-0.7c0.4,0.1,0.8,0.5,0.8,1c0,0.1,0,0.2,0,0.3
		c-0.1,0.3-0.2,0.7-0.3,1C235.4,551,235,551.3,234.5,551.3z M236.1,545.9c-0.1,0-0.2,0-0.3,0c-0.5-0.2-0.9-0.8-0.7-1.3l0.3-1
		c0.2-0.5,0.8-0.9,1.3-0.7c0.4,0.1,0.7,0.5,0.7,1c0,0.1,0,0.2,0,0.3c-0.1,0.3-0.2,0.7-0.3,1v0C237,545.6,236.6,545.9,236.1,545.9z
		 M237.8,540.4c-0.1,0-0.2,0-0.3,0c-0.3-0.1-0.5-0.3-0.6-0.5c-0.1-0.2-0.2-0.5-0.1-0.8l0.3-1c0.2-0.5,0.8-0.8,1.3-0.7
		c0.4,0.1,0.7,0.5,0.7,1c0,0.1,0,0.2-0.1,0.3l-0.3,1C238.7,540.1,238.3,540.4,237.8,540.4z M239.5,534.9c-0.1,0-0.2,0-0.3,0
		c-0.5-0.2-0.9-0.8-0.7-1.3c0.1-0.3,0.2-0.5,0.2-0.8l0.1-0.2c0.2-0.5,0.8-0.9,1.3-0.7c0.4,0.1,0.7,0.5,0.7,1c0,0.1,0,0.2,0,0.3
		c-0.1,0.2-0.1,0.3-0.1,0.5c-0.1,0.2-0.1,0.3-0.2,0.5C240.4,534.6,240,534.9,239.5,534.9z M241.2,529.5c-0.1,0-0.2,0-0.3,0
		c-0.3-0.1-0.5-0.3-0.6-0.5c-0.1-0.2-0.2-0.5-0.1-0.8c0.1-0.3,0.2-0.7,0.3-1c0.2-0.5,0.8-0.9,1.3-0.7c0.4,0.1,0.8,0.5,0.8,1
		c0,0.1,0,0.2,0,0.3c-0.1,0.3-0.2,0.7-0.3,1C242,529.2,241.6,529.5,241.2,529.5z M242.7,524c-0.1,0-0.2,0-0.3,0
		c-0.5-0.1-0.9-0.7-0.7-1.3c0.1-0.3,0.2-0.7,0.3-1c0.2-0.5,0.7-0.9,1.3-0.7c0.4,0.1,0.8,0.5,0.8,1c0,0.1,0,0.2,0,0.3
		c0,0.2-0.1,0.4-0.2,0.6l-0.1,0.4C243.6,523.7,243.2,524,242.7,524z M244.2,518.5c-0.1,0-0.2,0-0.2,0c-0.6-0.1-0.9-0.7-0.8-1.3
		c0-0.2,0.1-0.4,0.2-0.6l0.1-0.4c0.1-0.5,0.7-0.9,1.2-0.8c0.5,0.1,0.8,0.5,0.8,1c0,0.1,0,0.2,0,0.2c-0.1,0.3-0.2,0.6-0.2,1l0,0.1
		C245.1,518.1,244.7,518.5,244.2,518.5z M245.4,512.9c-0.1,0-0.1,0-0.2,0c-0.3-0.1-0.5-0.2-0.7-0.4c-0.1-0.2-0.2-0.5-0.2-0.8
		c0.1-0.3,0.1-0.7,0.2-1l0,0c0.1-0.6,0.7-0.9,1.2-0.8c0.5,0.1,0.9,0.5,0.9,1c0,0.1,0,0.1,0,0.2c-0.1,0.3-0.1,0.7-0.2,1
		C246.4,512.5,245.9,512.9,245.4,512.9z M246.3,507.3C246.3,507.3,246.2,507.3,246.3,507.3c-0.4,0-0.6-0.2-0.8-0.4
		c-0.2-0.2-0.3-0.5-0.2-0.8c0-0.1,0-0.1,0-0.2l0-0.4c0-0.1,0-0.3,0-0.4c0-0.6,0.5-1,1.1-0.9c0.5,0,0.9,0.5,1,1c0,0,0,0.1,0,0.1
		l0,0.3c0,0.1,0,0.3,0,0.4l0,0.4C247.3,506.9,246.8,507.3,246.3,507.3z M246.8,501.6C246.8,501.6,246.8,501.6,246.8,501.6
		c-0.7-0.1-1.1-0.6-1-1.1l0-0.4c0-0.2,0-0.4,0.1-0.7v0c0.1-0.6,0.6-1,1.1-0.9c0.5,0,0.9,0.5,0.9,1c0,0,0,0.1,0,0.1l0,0.3
		c0,0.2,0,0.5-0.1,0.7C247.8,501.2,247.3,501.6,246.8,501.6z M247.3,495.9C247.3,495.9,247.3,495.9,247.3,495.9
		c-0.7-0.1-1.1-0.6-1-1.1c0-0.2,0-0.4,0.1-0.6l0-0.4c0-0.6,0.6-1,1.1-0.9c0.5,0,0.9,0.5,0.9,1c0,0,0,0.1,0,0.1c0,0.2,0,0.4,0,0.6
		l0,0.4C248.3,495.5,247.9,495.9,247.3,495.9z M247.8,490.2c0,0-0.1,0-0.1,0c-0.6-0.1-1-0.6-0.9-1.1c0-0.2,0-0.4,0-0.6
		c0-0.2,0-0.3,0.1-0.5c0-0.6,0.5-1,1.1-0.9c0.5,0,0.9,0.5,1,1c0,0,0,0.1,0,0.1c0,0,0,0,0,0c0,0.2,0,0.3,0,0.5c0,0.2,0,0.3-0.1,0.5
		C248.8,489.8,248.4,490.2,247.8,490.2z M248.4,484.5C248.3,484.5,248.3,484.5,248.4,484.5c-0.7-0.1-1.1-0.6-1-1.1
		c0-0.3,0-0.5,0.1-0.8l0-0.2c0.1-0.6,0.5-1,1.1-0.9c0.5,0,0.9,0.5,0.9,1c0,0,0,0.1,0,0.1c0,0.2,0,0.3,0,0.5c0,0.2,0,0.3,0,0.5
		C249.3,484.1,248.9,484.5,248.4,484.5z M248.9,478.8C248.8,478.8,248.8,478.8,248.9,478.8c-0.7-0.1-1.1-0.6-1-1.1l0.1-1
		c0-0.6,0.5-1,1.1-0.9c0.5,0,0.9,0.5,1,1c0,0,0,0.1,0,0.1c0,0.4-0.1,0.7-0.1,1C249.9,478.4,249.4,478.8,248.9,478.8z M249.4,473.1
		C249.4,473.1,249.3,473.1,249.4,473.1c-0.4,0-0.6-0.2-0.8-0.4c-0.2-0.2-0.3-0.5-0.2-0.8l0.1-1c0-0.6,0.5-1,1.1-0.9
		c0.5,0.1,0.9,0.5,0.9,1c0,0,0,0.1,0,0.1l-0.1,1C250.4,472.7,249.9,473.1,249.4,473.1z M249.9,467.4c0,0-0.1,0-0.1,0
		c-0.3,0-0.5-0.2-0.7-0.4c-0.2-0.2-0.3-0.5-0.2-0.8c0-0.3,0.1-0.7,0.1-1v0c0.1-0.6,0.5-1,1.1-0.9c0.5,0,0.9,0.5,0.9,1
		c0,0,0,0.1,0,0.1c0,0.3-0.1,0.6-0.1,0.9l0,0.1C250.9,467,250.5,467.4,249.9,467.4z M250.5,461.7c0,0-0.1,0-0.1,0
		c-0.3,0-0.5-0.2-0.7-0.4c-0.2-0.2-0.3-0.5-0.2-0.8c0-0.3,0.1-0.6,0.1-0.9l0-0.1c0.1-0.6,0.6-1,1.1-0.9c0.5,0,0.9,0.5,0.9,1
		c0,0,0,0.1,0,0.1c0,0.3-0.1,0.7-0.1,1C251.5,461.3,251,461.7,250.5,461.7z M251,456.1C251,456.1,251,456.1,251,456.1
		c-0.4,0-0.6-0.2-0.8-0.4c-0.2-0.2-0.3-0.5-0.2-0.8c0-0.3,0.1-0.7,0.1-1c0.1-0.6,0.6-1,1.1-0.9c0.5,0.1,0.9,0.5,0.9,1
		c0,0,0,0.1,0,0.1c0,0.3-0.1,0.7-0.1,1C252,455.7,251.6,456.1,251,456.1z M251.6,450.4c0,0-0.1,0-0.1,0c-0.3,0-0.5-0.2-0.7-0.4
		c-0.2-0.2-0.2-0.5-0.2-0.8c0-0.3,0.1-0.6,0.1-0.9l0-0.1c0.1-0.6,0.6-1,1.1-0.9c0.5,0.1,0.9,0.5,0.9,1c0,0,0,0.1,0,0.1l-0.1,1
		C252.6,450,252.2,450.4,251.6,450.4z M252.3,444.7c0,0-0.1,0-0.1,0c-0.3,0-0.5-0.2-0.7-0.4c-0.2-0.2-0.2-0.5-0.2-0.8
		c0-0.4,0.1-0.7,0.1-1c0.1-0.6,0.6-1,1.1-0.9c0.5,0.1,0.9,0.5,0.9,1c0,0,0,0.1,0,0.1c0,0.1,0,0.3,0,0.4c0,0.2,0,0.4-0.1,0.6
		C253.2,444.3,252.8,444.7,252.3,444.7z M252.9,439L252.9,439C252.9,439,252.8,439,252.9,439c-0.7,0-1.1-0.5-1-1.1l0-0.3
		c0-0.2,0-0.5,0.1-0.7c0-0.6,0.6-1,1.1-1c0.5,0,1,0.5,1,1c0,0,0,0,0,0.1c0,0.2,0,0.5,0,0.7l0,0.4C253.9,438.6,253.4,439,252.9,439z
		 M253.3,433.3C253.3,433.3,253.3,433.3,253.3,433.3c-0.4,0-0.6-0.1-0.8-0.3c-0.2-0.2-0.3-0.5-0.3-0.8l0-0.1c0-0.3,0-0.6,0.1-0.9
		c0-0.6,0.5-1,1.1-1c0.5,0,1,0.5,1,1c0,0,0,0,0,0c0,0.2,0,0.4,0,0.6l0,0.5C254.3,432.9,253.9,433.3,253.3,433.3z M253.7,427.6
		C253.6,427.6,253.6,427.6,253.7,427.6c-0.3,0-0.6-0.1-0.8-0.3c-0.2-0.2-0.3-0.5-0.3-0.8c0-0.2,0-0.4,0-0.6l0-0.4l0,0
		c0-0.6,0.5-1,1.1-1c0.5,0,1,0.5,1,1c0,0,0,0,0,0l0,0.5c0,0.2,0,0.4,0,0.6C254.7,427.2,254.2,427.6,253.7,427.6z M253.9,421.9
		C253.9,421.9,253.9,421.9,253.9,421.9c-0.6,0-1.1-0.5-1-1.1c0-0.3,0-0.7,0-1c0-0.6,0.5-1,1.1-1c0.6,0,1,0.5,1,1c0,0,0,0,0,0.1
		l-0.1,1C255,421.4,254.5,421.9,253.9,421.9z M254.2,416.2C254.2,416.2,254.2,416.2,254.2,416.2c-0.3,0-0.6-0.1-0.8-0.3
		c-0.2-0.2-0.3-0.5-0.3-0.8l0-1c0-0.6,0.5-1,1.1-1c0.6,0,1,0.5,1,1c0,0,0,0,0,0v0c0,0,0,0,0,0.1c0,0.2,0,0.3,0,0.5
		c0,0.2,0,0.3,0,0.5C255.2,415.7,254.8,416.2,254.2,416.2z M254.4,410.5L254.4,410.5c-0.6,0-1.1-0.5-1-1.1c0-0.3,0-0.7,0-1v-0.1
		c0-0.6,0.5-1,1.1-1c0.6,0,1,0.5,1,1c0,0,0,0,0,0c0,0.4,0,0.7,0,1C255.5,410,255,410.5,254.4,410.5z M254.7,404.7L254.7,404.7
		c-0.6,0-1.1-0.5-1-1.1l0-1c0-0.6,0.5-1.1,1.1-1c0.6,0,1,0.5,1,1.1v0l0,1.1C255.7,404.3,255.2,404.7,254.7,404.7z M254.9,399
		L254.9,399c-0.6,0-1.1-0.5-1-1.1c0-0.2,0-0.4,0-0.6c0-0.2,0-0.3,0-0.5c0-0.6,0.5-1,1.1-1c0.6,0,1,0.5,1,1v0v0c0,0.2,0,0.4,0,0.6
		l0,0.4C255.9,398.6,255.4,399,254.9,399z M255.1,393.3L255.1,393.3L255.1,393.3c-0.6,0-1.1-0.5-1-1.1l0-0.4c0-0.2,0-0.4,0-0.6
		c0-0.6,0.5-1,1-1h0c0.6,0,1,0.5,1,1c0,0,0,0,0,0c0,0.3,0,0.7,0,1C256.1,392.9,255.6,393.3,255.1,393.3z M255.2,387.6L255.2,387.6
		c-0.3,0-0.6-0.1-0.8-0.3c-0.2-0.2-0.3-0.5-0.3-0.7l0-1c0-0.6,0.5-1,1-1h0c0.6,0,1,0.5,1,1.1l0,1
		C256.3,387.1,255.8,387.6,255.2,387.6z"/>
</g>
<g>
	<path class="st6" d="M398.4,220.9c0,0,19.6,43.2,23.3,46.9s39.8,34.1,43.5,35h-71.9c0,0-23.3-20.2-27.6-28.7
		c-4.3-8.5-8.8-35.5,0-41.2C374.6,227.2,398.4,220.9,398.4,220.9z"/>
</g>
<g>
	<path class="st7" d="M367.6,250.3c0,0,31-15.6,37-16c-3.7-8.3-3.7-8.3-3.7-8.3S371.8,233.4,367.6,250.3z"/>
</g>
<g>
	<path class="st8" d="M403.2,234.2c0,0,7.8-6.3,6.5-11.6c0,0-10.9,4-11.5,4.2C397.7,227,403.2,234.2,403.2,234.2z"/>
</g>
<g>
	<path class="st2" d="M240.9,382.5c0,0-3.6-119-6.8-127.8c-3.2-8.8-23.5-64.9-12.3-76.8c11.1-11.9,50.8-36.2,65.7-37.6
		s39.8,7.2,39.8,7.2s23.3,9.5,33,16.1c9.8,6.6,45.7,53.2,48.1,56.4c2.4,3.2,0,3.7,0,3.7s-33.2,7.9-37.4,22.3l-9.9,136.4H240.9z"/>
</g>
<g>
	<path class="st9" d="M295.1,302.7c0,0-24.3,3.5-23.1,28.1c1.2,24.6-1.6,324.3,155.3,413.6c0,0,132.2-33.4,157.7-407.6
		c0,0,2.2-33.8-24-34.1S295.1,302.7,295.1,302.7z"/>
</g>
<g>
	<path class="st9" d="M428.5,715.4"/>
</g>
<g>
	<path class="st10" d="M309.2,328.9c0,0-10.9-2.1-10.2,12.3c0.6,14.4,14.6,303.2,129.5,374.2c0,0,107.1-42.6,131.8-368.6
		c0,0,1.7-17.5-10.7-18S309.2,328.9,309.2,328.9z"/>
</g>
<g>
	<path class="st11" d="M457.2,291c0,0-8.4,2.7-7,10.7c1.4,8.1,8,11.1,8.8,13.5c0.8,2.4-1.8,5.4,0,5.4s7-0.1,4-10.2
		c-3-10.1-2.4-8.3,0-8.5c2.4-0.2,8.6,11.1,7.2,13.9c-1.4,2.8-5.8,7-4.6,7.8c1.2,0.8,14.8,1.2,23.6-11.2s-4.4-24.4-6.4-24.4
		S464.3,282.4,457.2,291z"/>
</g>
<g>
	<path class="st12" d="M471.1,323.8c-0.2,0-0.4-0.1-0.5-0.3c-0.1-0.2-0.1-0.6,0.2-0.7c3.7-2.2,8.9-5.9,8.8-7.6
		c-0.2-2.8-2.2-11-2.9-12.4c-0.1-0.3,0-0.6,0.2-0.7c0.3-0.1,0.6,0,0.7,0.2c0.8,1.7,2.8,10.1,3,12.8c0.2,2.9-7.7,7.6-9.3,8.6
		C471.3,323.8,471.2,323.8,471.1,323.8z"/>
</g>
<g>
	<path class="st12" d="M483.4,318.9c-0.1,0-0.2,0-0.3-0.1c-0.2-0.2-0.2-0.5-0.1-0.7c0,0,2.3-2.8,2-5.3c-0.4-2.8-2.1-10.7-2.1-10.8
		c-0.1-0.3,0.1-0.6,0.4-0.6c0.3-0.1,0.6,0.1,0.6,0.4c0.1,0.3,1.7,8,2.1,10.8c0.4,3-2.1,6-2.2,6.1
		C483.7,318.8,483.5,318.9,483.4,318.9z"/>
</g>
<g>
	<path class="st12" d="M489.5,311.2c-0.3,0-0.5-0.2-0.5-0.5c0-2.1-0.2-7.8-1-9.3c-0.1-0.2-0.1-0.6,0.2-0.7c0.2-0.1,0.6-0.1,0.7,0.2
		c1.1,2,1.2,9,1.2,9.8C490,311,489.8,311.2,489.5,311.2C489.5,311.2,489.5,311.2,489.5,311.2z"/>
</g>
<g>
	<path class="st3" d="M351.2,160.8c0,0,24,29.3,24.7,77.9c0,0-3.3,1-4.2,5.5C371.7,244.2,375,202.5,351.2,160.8z"/>
</g>
<g>
	<path class="st13" d="M327.9,268.7C327.9,268.7,327.9,268.7,327.9,268.7c-0.6,0-1-0.5-1-1.1c0-0.7,0.3-17.6,2.4-24.4
		c0.4-1.3,0.8-2.7,1.3-4.2c2.1-6.6,4.7-14.7,5.3-23.6c0.8-12.4,0.6-58.9-9.2-67c-0.4-0.4-0.5-1-0.1-1.5c0.4-0.4,1-0.5,1.5-0.1
		c11.2,9.3,10.6,59.9,10,68.8c-0.6,9.2-3.3,17.4-5.4,24.1c-0.5,1.5-0.9,2.9-1.3,4.2c-2,6.6-2.3,23.7-2.3,23.9
		C328.9,268.3,328.5,268.7,327.9,268.7z"/>
</g>
<g>
	<path class="st13" d="M332.7,236.7c-0.6,0-1-0.4-1-1c-0.6-13.9-18.5-34-32.9-50.1c-6.2-7-11.6-13-14.8-17.6
		c-10.8-15.7-4.6-26.1-4.3-26.6c0.3-0.5,0.9-0.6,1.4-0.3c0.5,0.3,0.6,0.9,0.3,1.4l0,0c-0.2,0.4-5.7,9.8,4.3,24.3
		c3.1,4.5,8.5,10.5,14.6,17.4c14.6,16.4,32.8,36.7,33.4,51.4C333.8,236.2,333.3,236.6,332.7,236.7
		C332.7,236.7,332.7,236.7,332.7,236.7z"/>
</g>
<g>
	<polygon class="st14" points="309.2,256.7 309.2,281.8 345.3,285.5 345.3,261.3 	"/>
</g>
<g>
	<path class="st13" d="M272.2,219.9c0,0,23.8-5.2,40.2-3.4v11.2c0,0-36.7,0.6-40.2,4.1V219.9z"/>
</g>
<g>
	<path class="st4" d="M255.4,383.5c-0.1,0-0.2,0-0.3,0c-0.3-0.1-0.5-0.3-0.6-0.5c-0.1-0.2-0.1-0.5-0.1-0.8c0-0.1,0.1-0.2,0.1-0.3
		c0,0,0,0,0,0c0.1-0.5,0.7-0.9,1.3-0.7c0.4,0.1,0.8,0.5,0.8,1c0,0.1,0,0.2,0,0.3c0,0.1-0.1,0.2-0.1,0.4
		C256.3,383.2,255.9,383.5,255.4,383.5z M256.4,378.6c0,0-0.1,0-0.1,0c-0.3,0-0.5-0.2-0.7-0.4c-0.2-0.2-0.2-0.5-0.2-0.8
		c0-0.3,0.1-0.6,0.1-1c0.1-0.6,0.6-1,1.1-0.9c0.5,0.1,0.9,0.5,0.9,1c0,0,0,0.1,0,0.1c0,0,0,0,0,0c0,0,0,0,0,0.1c0,0.3-0.1,0.7-0.1,1
		C257.3,378.2,256.9,378.6,256.4,378.6z M256.8,372.9C256.8,372.9,256.8,372.9,256.8,372.9c-0.3,0-0.6-0.1-0.8-0.4
		c-0.2-0.2-0.3-0.5-0.3-0.8c0-0.3,0-0.7,0.1-1c0-0.6,0.5-1,1.1-1c0.5,0,1,0.5,1,1c0,0,0,0,0,0.1c0,0.4,0,0.7,0,1
		C257.9,372.5,257.4,372.9,256.8,372.9z M257.1,367.2C257.1,367.2,257,367.2,257.1,367.2c-0.3,0-0.6-0.1-0.8-0.3
		c-0.2-0.2-0.3-0.5-0.3-0.7c0-0.3,0-0.7,0-1c0-0.6,0.5-1,1-1h0c0.6,0,1,0.5,1,1v0c0,0.4,0,0.7,0,1
		C258.1,366.7,257.6,367.2,257.1,367.2z M257.1,361.5L257.1,361.5c-0.6,0-1-0.5-1-1c0-0.3,0-0.7,0-1c0-0.6,0.5-1,1-1
		c0.6,0,1,0.5,1,1v1C258.2,361,257.7,361.5,257.1,361.5z M257.1,355.8L257.1,355.8L257.1,355.8c-0.6,0-1-0.5-1-1l0-1.1
		c0-0.6,0.5-1,1-1c0.6,0,1,0.5,1.1,1l0,1c0,0.3-0.1,0.5-0.3,0.7C257.7,355.7,257.4,355.8,257.1,355.8z M257,350.1c-0.6,0-1-0.5-1-1
		c0-0.3,0-0.7,0-1V348c0-0.6,0.5-1,1-1h0c0.6,0,1,0.4,1,1l0,0c0,0.3,0,0.7,0,1c0,0.3-0.1,0.5-0.3,0.7S257.3,350.1,257,350.1
		C257,350.1,257,350.1,257,350.1z M256.9,344.4c-0.6,0-1-0.4-1-1c0-0.3,0-0.7,0-1c0,0,0,0,0,0c0-0.6,0.5-1,1-1h0c0.6,0,1,0.4,1,1
		l0,1c0,0.3-0.1,0.5-0.3,0.7C257.4,344.2,257.2,344.4,256.9,344.4C256.9,344.4,256.9,344.4,256.9,344.4z M256.7,338.7
		c-0.6,0-1-0.4-1-1c0-0.2,0-0.3,0-0.5c0-0.2,0-0.4,0-0.5v0v0c0-0.6,0.4-1,1-1c0.6,0,1,0.4,1.1,1c0,0.3,0,0.7,0,1
		c0,0.3-0.1,0.5-0.3,0.7C257.2,338.5,257,338.6,256.7,338.7C256.7,338.7,256.7,338.7,256.7,338.7z M256.4,332.9c-0.6,0-1-0.4-1-1
		c0-0.4,0-0.7-0.1-1c0,0,0,0,0-0.1c0-0.5,0.4-1,1-1c0.6,0,1.1,0.4,1.1,1c0,0.2,0,0.4,0,0.6l0,0.5
		C257.5,332.4,257.1,332.9,256.4,332.9C256.5,332.9,256.5,332.9,256.4,332.9z M256.2,327.2c-0.6,0-1-0.4-1-1c0-0.4,0-0.7,0-1
		c0,0,0,0,0,0c0-0.6,0.4-1,1-1c0.6,0,1.1,0.4,1.1,1l0,1c0,0.3-0.1,0.5-0.3,0.7C256.8,327.1,256.5,327.2,256.2,327.2
		C256.2,327.2,256.2,327.2,256.2,327.2z M255.9,321.5L255.9,321.5c-0.6,0-1-0.4-1-1c0-0.3,0-0.7,0-1c0,0,0,0,0,0c0-0.5,0.4-1,1-1
		c0.6,0,1,0.4,1.1,1c0,0,0,0,0,0l0,0.1c0,0.3,0,0.6,0,0.9c0,0.3-0.1,0.5-0.3,0.8C256.5,321.4,256.2,321.5,255.9,321.5
		C255.9,321.5,255.9,321.5,255.9,321.5z M255.6,315.8c-0.5,0-1-0.4-1-1c0-0.2,0-0.3,0-0.5c0-0.2,0-0.4,0-0.5c0,0,0,0,0-0.1
		c0-0.5,0.4-1,1-1c0.6,0,1.1,0.4,1.1,1c0,0.2,0,0.3,0,0.5c0,0.2,0,0.4,0,0.5c0,0.3-0.1,0.5-0.3,0.7
		C256.2,315.7,255.9,315.8,255.6,315.8C255.6,315.8,255.6,315.8,255.6,315.8z M255.3,310.1c-0.5,0-1-0.4-1-1l-0.1-1c0,0,0,0,0-0.1
		c0-0.6,0.4-1,1-1c0.6,0,1.1,0.4,1.1,1v0.1c0,0.3,0,0.7,0.1,1C256.3,309.6,255.9,310.1,255.3,310.1
		C255.3,310.1,255.3,310.1,255.3,310.1z M254.9,304.4c-0.6,0-1-0.4-1-1l0-0.5c0-0.2,0-0.4,0-0.6c0,0,0,0,0-0.1c0-0.5,0.4-1,1-1
		c0.6,0,1.1,0.4,1.1,1c0,0.2,0,0.4,0,0.6l0,0.4c0,0.3-0.1,0.5-0.2,0.8C255.5,304.3,255.2,304.4,254.9,304.4
		C254.9,304.4,254.9,304.4,254.9,304.4z M254.5,298.7c-0.5,0-1-0.4-1-1l0-0.4c0-0.2,0-0.4,0-0.6c0,0,0-0.1,0-0.1c0-0.5,0.4-1,1-1
		c0.6,0,1.1,0.4,1.1,1c0,0.3,0.1,0.7,0.1,1c0,0.3-0.1,0.5-0.3,0.8C255.1,298.6,254.9,298.7,254.5,298.7
		C254.6,298.7,254.6,298.7,254.5,298.7z M254.2,293c-0.5,0-1-0.4-1-1c0-0.4,0-0.7-0.1-1c0,0,0-0.1,0-0.1c0-0.5,0.4-1,1-1
		c0.6,0,1.1,0.4,1.1,1l0,0.3c0,0.2,0,0.5,0.1,0.8C255.2,292.5,254.8,293,254.2,293C254.2,293,254.2,293,254.2,293z M253.8,287.3
		c-0.5,0-1-0.4-1-1c0-0.4,0-0.7-0.1-1c0,0,0-0.1,0-0.1c0-0.5,0.4-1,1-1c0.6,0,1.1,0.4,1.1,1c0,0.2,0,0.4,0.1,0.7l0,0.4
		C254.8,286.8,254.4,287.3,253.8,287.3C253.8,287.3,253.8,287.3,253.8,287.3z M253.4,281.6c-0.5,0-1-0.4-1-1l0-0.3
		c0-0.2,0-0.5-0.1-0.7c0,0,0,0,0-0.1c0-0.5,0.4-1,1-1c0.6-0.1,1.1,0.4,1.1,1c0,0.3,0,0.7,0.1,1C254.5,281.1,254,281.6,253.4,281.6
		C253.4,281.6,253.4,281.6,253.4,281.6z M253,275.9c-0.5,0-1-0.4-1-1l0-0.4c0-0.2,0-0.4,0-0.6c0,0,0,0,0-0.1c0-0.6,0.4-1,1-1
		c0.6,0,1.1,0.4,1.1,1c0,0.3,0,0.7,0.1,1C254.1,275.4,253.6,275.9,253,275.9C253,275.9,253,275.9,253,275.9z M252.7,270.2
		c-0.6,0-1-0.4-1-1c0-0.4,0-0.7,0-1v0v0c0-0.5,0.4-1,1-1h0c0.6,0,1,0.4,1,1c0,0,0,0,0,0c0,0,0,0,0,0c0,0,0,0,0,0l0,1
		c0,0.3-0.1,0.5-0.3,0.8C253.3,270.1,253,270.2,252.7,270.2C252.7,270.2,252.7,270.2,252.7,270.2z M252.6,264.5L252.6,264.5
		c-0.6,0-1-0.5-1-1c0-0.4,0-0.7,0-1c0-0.6,0.5-1,1-1c0.6,0,1,0.4,1,1v0c0,0.3,0,0.7,0,1v0C253.6,264.1,253.2,264.5,252.6,264.5z
		 M252.8,258.8C252.7,258.8,252.7,258.8,252.8,258.8c-0.6,0-1.1-0.5-1-1.1c0-0.3,0-0.6,0.1-0.9l0-0.1v0c0-0.6,0.5-1,1.1-1
		c0.6,0,1,0.5,1,1c0,0,0,0,0,0.1c0,0.2,0,0.4,0,0.7l0,0.4C253.8,258.4,253.3,258.8,252.8,258.8z M253.2,253.2
		C253.2,253.2,253.1,253.2,253.2,253.2c-0.4,0-0.6-0.2-0.8-0.4c-0.2-0.2-0.3-0.5-0.2-0.8l0-0.3c0-0.2,0-0.5,0.1-0.7
		c0.1-0.6,0.6-1,1.1-0.9c0.5,0.1,0.9,0.5,0.9,1c0,0,0,0.1,0,0.1c0,0.2,0,0.5-0.1,0.7l0,0.4C254.2,252.8,253.7,253.2,253.2,253.2z
		 M253.8,247.5L253.8,247.5c0,0-0.1,0-0.1,0c-0.3,0-0.5-0.2-0.7-0.4c-0.2-0.2-0.2-0.5-0.2-0.8l0-0.2c0-0.3,0.1-0.5,0.1-0.8
		c0.1-0.6,0.6-1,1.2-0.9c0.5,0.1,0.9,0.5,0.9,1c0,0,0,0.1,0,0.1c0,0.3-0.1,0.7-0.1,1C254.8,247.1,254.3,247.5,253.8,247.5z
		 M254.5,241.8c0,0-0.1,0-0.1,0c-0.3,0-0.5-0.2-0.7-0.4c-0.2-0.2-0.2-0.5-0.2-0.8l0-0.2c0-0.3,0.1-0.6,0.1-0.8
		c0.1-0.6,0.6-1,1.2-0.9c0.5,0.1,0.9,0.5,0.9,1c0,0,0,0.1,0,0.1l0,0.4c0,0.2-0.1,0.4-0.1,0.7C255.5,241.4,255.1,241.8,254.5,241.8z
		 M255.3,236.2c0,0-0.1,0-0.1,0c-0.3,0-0.5-0.2-0.7-0.4c-0.2-0.2-0.2-0.5-0.2-0.8c0-0.3,0.1-0.6,0.1-0.9l0-0.2
		c0.1-0.6,0.6-1,1.2-0.9c0.5,0.1,0.9,0.5,0.9,1c0,0,0,0.1,0,0.2l0,0.1c0,0.3-0.1,0.6-0.1,0.9C256.3,235.8,255.8,236.2,255.3,236.2z
		 M256.1,230.5c-0.1,0-0.1,0-0.2,0c-0.6-0.1-1-0.6-0.9-1.2l0.1-0.4c0-0.2,0.1-0.4,0.1-0.6c0.1-0.6,0.6-1,1.2-0.9
		c0.5,0.1,0.9,0.5,0.9,1c0,0.1,0,0.1,0,0.2c0,0.2-0.1,0.5-0.1,0.7l0,0.4C257.1,230.2,256.6,230.5,256.1,230.5z M257,224.9
		c0,0-0.1,0-0.2,0c-0.3,0-0.5-0.2-0.7-0.4c-0.2-0.2-0.2-0.5-0.2-0.8c0-0.3,0.1-0.7,0.1-1c0.1-0.6,0.6-1,1.2-0.9
		c0.5,0.1,0.9,0.5,0.9,1c0,0.1,0,0.1,0,0.2l0,0.1c-0.1,0.3-0.1,0.6-0.1,0.9C257.9,224.5,257.5,224.9,257,224.9z M257.8,219.2
		c0,0-0.1,0-0.1,0c-0.3,0-0.5-0.2-0.7-0.4c-0.2-0.2-0.2-0.5-0.2-0.8l0-0.2c0-0.3,0.1-0.6,0.1-0.9c0-0.6,0.5-1,1.1-0.9
		c0.5,0,0.9,0.5,0.9,1c0,0,0,0.1,0,0.1c0,0.4-0.1,0.7-0.1,1C258.7,218.8,258.3,219.2,257.8,219.2z M258.2,213.6
		C258.2,213.6,258.2,213.6,258.2,213.6c-0.6,0-1.1-0.5-1-1.1c0-0.3,0-0.7,0-1c0-0.6,0.5-1,1-1h0c0.6,0,1,0.5,1,1v0c0,0,0,0,0,0
		c0,0,0,0,0,0.1c0,0.3,0,0.6,0,1v0C259.2,213.1,258.7,213.6,258.2,213.6z M258.1,207.9c-0.5,0-1-0.4-1-1c0-0.3,0-0.7-0.1-1
		c0,0,0-0.1,0-0.1c0-0.5,0.4-1,1-1c0.6,0,1.1,0.4,1.1,1c0,0,0,0,0,0v0c0,0.4,0.1,0.7,0.1,1c0,0.3-0.1,0.5-0.3,0.7
		C258.7,207.7,258.4,207.8,258.1,207.9C258.1,207.9,258.1,207.9,258.1,207.9z M257.5,202.2c-0.5,0-0.9-0.4-1-0.9
		c-0.1-0.3-0.1-0.7-0.1-1c0,0,0-0.1,0-0.2c0-0.5,0.4-1,0.9-1c0.6-0.1,1.1,0.3,1.2,0.9c0,0,0,0,0,0v0c0,0.3,0.1,0.7,0.2,1
		c0,0.3,0,0.5-0.2,0.8c-0.2,0.2-0.4,0.4-0.7,0.4C257.6,202.2,257.6,202.2,257.5,202.2z M256.5,196.6c-0.5,0-0.9-0.3-1-0.8l0-0.1
		c-0.1-0.3-0.2-0.6-0.2-0.9c0,0,0,0,0,0c0-0.1,0-0.2,0-0.3c0-0.5,0.3-0.9,0.8-1c0.5-0.1,1.1,0.2,1.3,0.7c0.1,0.3,0.2,0.7,0.3,1
		c0.1,0.6-0.2,1.1-0.8,1.3C256.6,196.6,256.5,196.6,256.5,196.6z M254.8,191.1c-0.4,0-0.8-0.3-1-0.7c-0.1-0.3-0.2-0.6-0.3-1
		c0-0.1-0.1-0.2-0.1-0.4c0-0.4,0.3-0.8,0.7-1c0.5-0.2,1.1,0.1,1.3,0.6c0.1,0.3,0.2,0.6,0.4,1c0.2,0.5-0.1,1.1-0.6,1.3
		C255.1,191.1,255,191.1,254.8,191.1z M252.7,185.8c-0.4,0-0.8-0.2-0.9-0.6c-0.1-0.3-0.3-0.6-0.4-0.9c-0.1-0.1-0.1-0.3-0.1-0.5
		c0-0.4,0.2-0.8,0.6-0.9c0.5-0.2,1.1,0,1.4,0.5c0.2,0.3,0.3,0.6,0.4,0.9c0.2,0.5,0,1.1-0.5,1.4C253,185.8,252.9,185.8,252.7,185.8z
		 M250.1,180.8c-0.4,0-0.7-0.2-0.9-0.5c-0.2-0.3-0.3-0.6-0.5-0.9l0,0c-0.1-0.2-0.2-0.3-0.2-0.5c0-0.4,0.2-0.7,0.5-0.9
		c0.5-0.3,1.1-0.1,1.4,0.3c0.2,0.3,0.4,0.6,0.5,0.9c0.3,0.5,0.1,1.1-0.4,1.4C250.5,180.7,250.3,180.8,250.1,180.8z M247,176
		c-0.3,0-0.6-0.2-0.9-0.4c-0.2-0.3-0.4-0.5-0.6-0.8c-0.1-0.2-0.2-0.4-0.2-0.6c0-0.3,0.1-0.6,0.4-0.8c0.4-0.3,1.1-0.2,1.5,0.2v0
		c0,0,0,0,0,0c0.2,0.2,0.4,0.5,0.6,0.8l0,0.1c0.2,0.2,0.2,0.5,0.2,0.8c-0.1,0.3-0.2,0.5-0.4,0.7C247.4,175.9,247.2,176,247,176z
		 M243.4,171.5c-0.3,0-0.6-0.1-0.8-0.4c-0.2-0.3-0.5-0.5-0.7-0.8c0,0,0,0,0,0c-0.2-0.2-0.3-0.4-0.3-0.7c0-0.3,0.1-0.6,0.3-0.8
		c0.4-0.4,1.1-0.3,1.5,0.1c0.2,0.2,0.5,0.5,0.7,0.8c0.4,0.4,0.3,1.1-0.1,1.5C243.9,171.4,243.7,171.5,243.4,171.5z M239.4,167.4
		c-0.2,0-0.5-0.1-0.7-0.3c-0.5-0.4-0.7-0.6-0.7-0.6c-0.2-0.2-0.4-0.4-0.4-0.7c0-0.3,0-0.6,0.2-0.8c0.3-0.4,1-0.5,1.5-0.2
		c0,0,0.3,0.2,0.9,0.7c0.4,0.4,0.5,1,0.1,1.5C240,167.3,239.7,167.4,239.4,167.4z"/>
</g>
<g>
	<path class="st15" d="M283.7,149.8c0,0-2.2-4.2-0.5-6.5s4.3-2.9,4.3-2.9v-35.2c0,0-13.8-1.4-10.8-17.4c2-2.8,3.6-3.9,6.3-3.2
		c2.7,0.7,10.6-28.5,10.6-28.5l45.7-0.7l3.1,32.3v10.9c0,0,0.4,32.8-18.7,36.1c0,0,0.6,12.5,3.7,13c0,0,7.6,14,3.3,21.5
		C330.6,169.1,294.8,167.7,283.7,149.8z"/>
</g>
<g>
	<path class="st7" d="M325,147.6c0,0-35.1-10.8-34.3-37.1s0,0,0,0l33.2,22.3C323.8,132.7,322.9,142.7,325,147.6z"/>
</g>
<g>
	<path class="st16" d="M288.9,94.3c0,0-18.8-15.3-14.5-36.2c3.1-15.3,18.8-10.2,18.8-10.2s-0.6-11,24.3-12.6
		c24.9-1.6,27.5,17.3,26.5,26.3c-1,9-1.8,26-1.8,26s-5.5-17.4-4.3-26.5c0,0-22.3,9.5-38.3,1.8c0,0,2.8,14.9-8.2,13.4L288.9,94.3z"/>
</g>
<g>
	<path class="st17" d="M288,90.7c0,0,14,15.5,32.8,12.3c0,0,3.8-4.2,9.4-4.2s7,2.5,7,2.5s1.2,0.5,5.1-2.8
		c3.9-3.3,3.5,36.4-18.7,36.1c0,0-27.2-3.9-32.9-24.1S288,90.7,288,90.7z"/>
</g>
<g>
	<path class="st18" d="M483.7,483.4v2.3c0,6.5-5.3,12-12,12H440v31.7c0,6.7-5.5,12-12,12h-2.3c-6.5,0-12-5.3-12-12v-31.7h-31.8
		c-6.5,0-12-5.5-12-12v-2.3c0-6.5,5.5-12,12-12h31.8v-31.8c0-6.5,5.5-12,12-12h2.3c6.5,0,12,5.5,12,12v31.8h31.7
		C478.4,471.4,483.7,476.8,483.7,483.4z"/>
</g>
<g>
	<path class="st19" d="M195.9,106L195.9,106c4.2,0,7.7,3.4,7.8,7.6l1.9,59c0.1,2.5,2.1,4.5,4.6,4.5h0c1.9,0,3.6-1.2,4.3-2.9
		l19.3-49.6c0.9-2.4,3.4-3.7,5.9-3.1l0,0c2.7,0.6,4.4,3.3,3.8,6L232,179.6c0,0-0.6,27.7,2.9,30.3s18.5-28.1,33.4-18.3
		c9.2,6.1-15.2,19.9-16.2,32c-1,12.1,2.7,45.3-37.3,53.3c-40,8-55-13.5-57.6-27.7c-2.5-14.2-4.9-42.6-6.6-45.5
		c-1.4-2.3-17.1-24.4-23.8-33.9c-1.7-2.4-1.4-5.7,0.8-7.7l0,0c2.4-2.2,6.2-2.1,8.4,0.4l23.4,26.3c1,1.2,2.9,1.3,4,0.2l0,0
		c0.7-0.6,1.1-1.6,0.9-2.6l-9.3-59.9c-0.5-3,1.4-5.9,4.4-6.7h0c3.1-0.8,6.3,1.1,7.2,4.2l13.5,51c0.6,2.1,2.9,3.3,4.9,2.5l0.4-0.1
		c1.4-0.5,2.4-1.9,2.4-3.5l0.2-60.3C188.1,109.5,191.6,106,195.9,106z"/>
</g>
<g>
	<path class="st12" d="M198.1,252.2c-0.1,0-0.1,0-0.2,0c-0.6-0.1-1-0.6-0.9-1.2c0.1-0.4,6.3-40.5,37.8-42.2c0.6,0,1.1,0.4,1.1,1
		c0,0.6-0.4,1.1-1,1.1c-29.8,1.6-35.8,40-35.9,40.4C199.1,251.8,198.6,252.2,198.1,252.2z"/>
</g>
<g>
	<path class="st12" d="M156.9,200.3c-0.3,0-0.5-0.1-0.7-0.3c-0.4-0.4-0.4-1,0-1.5c0.3-0.3,26.4-27.5,66.9-18
		c0.6,0.1,0.9,0.7,0.8,1.2c-0.1,0.6-0.7,0.9-1.2,0.8c-39.2-9.2-64.6,17.1-64.9,17.4C157.5,200.2,157.2,200.3,156.9,200.3z"/>
</g>
<g>
	<circle class="st20" cx="125" cy="363.7" r="44.5"/>
</g>
<g>
	<circle class="st20" cx="479.7" cy="131.3" r="46.1"/>
</g>
<g>
	<circle class="st20" cx="539" cy="389.8" r="46.1"/>
</g>
<g>
	<circle class="st20" cx="305.7" cy="576.2" r="41.1"/>
</g>
<g>
	<path class="st16" d="M306.7,80.9c0,0,9.4-2.6,14.1,3.7c-2.8,1.2-3,0.5-4.4,0S312.9,80.8,306.7,80.9z"/>
</g>
<g>
	<path class="st16" d="M331.3,83.5c0,0,2.9,0.2,3.8-0.7c0.9-0.9,3.6-3.6,5-3.1C340.1,79.7,335.8,76.5,331.3,83.5z"/>
</g>
<g>
	<path class="st16" d="M320.8,92.3c0,0-10.8,0.8-13-0.8c0,0,1.3,1.9,2.8,2.7c0,0,0.7,2.3,1.9,2.7c0,0,1.7,1.2,3.1-1.7
		C315.6,95.4,320.1,94.4,320.8,92.3z"/>
</g>
<g>
	<path class="st16" d="M339.2,88.2c0,0-4.6,3.4-7.1,3.8c0,0,1,0.8,1.8,0.8c0,0,0.3,1.5,1.7,1.6c0,0,2.7-0.1,1.9-3.1
		C337.6,91.3,339.1,89.6,339.2,88.2z"/>
</g>
<g>
	<g>
		<path class="st21" d="M515.2,131.9c0.7,0.9,0.6,2.3-0.4,3.1c-0.9,0.7-2.3,0.6-3.1-0.4c-0.7-0.9-0.6-2.3,0.4-3.1
			C513.1,130.8,514.5,130.9,515.2,131.9z M522.3,141.6c-0.7,0.6-1.6,0.5-2.2-0.2c-0.6-0.7-0.5-1.6,0.2-2.2c0.7-0.6,1.6-0.5,2.2,0.2
			C523,140,523,141,522.3,141.6z M513.4,147.2c0.7-0.6,1.6-0.5,2.2,0.2c0.6,0.7,0.5,1.6-0.2,2.2c-0.7,0.6-1.6,0.5-2.2-0.2
			C512.6,148.8,512.7,147.8,513.4,147.2z M513.5,155.9c-0.8,0.7-2,0.6-2.7-0.2c-0.7-0.8-0.6-2,0.2-2.7c0.8-0.7,2-0.6,2.7,0.2
			C514.4,154,514.3,155.2,513.5,155.9z M503.5,159.7c-0.2,0.9-1,1.4-1.8,1.2c-0.9-0.2-1.4-1-1.2-1.8c0.2-0.9,1-1.4,1.8-1.2
			C503.1,158,503.7,158.9,503.5,159.7L503.5,159.7z M509.5,165c-0.2,1-1.2,1.7-2.2,1.5c-1-0.2-1.7-1.2-1.5-2.2
			c0.2-1,1.2-1.7,2.2-1.5C509.1,163,509.7,164,509.5,165z M493.8,173.9c-1.2-0.2-2-1.4-1.7-2.6c0.2-1.2,1.4-2,2.6-1.7
			c1.2,0.2,2,1.4,1.7,2.6C496.1,173.3,495,174.1,493.8,173.9z M486,158.9c-2.1-2.6-1.6-6.4,1-8.4s6.4-1.6,8.4,1
			c2.1,2.6,1.6,6.4-1,8.4S488.1,161.5,486,158.9z M460,138.7c-1.1-1.3-0.8-3.3,0.5-4.4c1.3-1.1,3.3-0.8,4.4,0.5
			c1.1,1.3,0.8,3.3-0.5,4.4C463,140.3,461.1,140.1,460,138.7L460,138.7z M459.5,125c0.9-0.7,2.3-0.6,3.1,0.4
			c0.7,0.9,0.6,2.3-0.4,3.1c-0.9,0.7-2.3,0.6-3.1-0.4C458.4,127.1,458.5,125.8,459.5,125z M439.7,133.4c-0.9,0.7-2.3,0.6-3.1-0.4
			c-0.7-0.9-0.6-2.3,0.4-3.1c0.9-0.7,2.3-0.6,3.1,0.4C440.8,131.3,440.7,132.7,439.7,133.4z M445.5,111c0,0.9-0.7,1.6-1.6,1.6
			s-1.6-0.7-1.6-1.6c0-0.9,0.7-1.6,1.6-1.6S445.5,110.1,445.5,111z M453.5,118.4c0.5,0.7,0.4,1.7-0.3,2.2c-0.7,0.5-1.7,0.4-2.2-0.3
			c-0.5-0.7-0.4-1.7,0.3-2.2C452,117.6,453,117.7,453.5,118.4z M454.6,133.4c-0.9,0.7-2.3,0.6-3.1-0.4c-0.7-0.9-0.6-2.3,0.4-3.1
			c0.9-0.7,2.3-0.6,3.1,0.4C455.7,131.3,455.5,132.7,454.6,133.4z M451.2,137.6c0.9-0.7,2.3-0.6,3.1,0.4c0.7,0.9,0.6,2.3-0.4,3.1
			c-0.9,0.7-2.3,0.6-3.1-0.4C450.1,139.7,450.3,138.3,451.2,137.6z M446.4,146.1c1.3-1.1,3.3-0.8,4.4,0.5c1.1,1.3,0.8,3.3-0.5,4.4
			c-1.3,1.1-3.3,0.8-4.4-0.5C444.8,149.2,445,147.2,446.4,146.1z M452.4,103c0.5,0.7,0.4,1.7-0.3,2.2c-0.7,0.5-1.7,0.4-2.2-0.3
			c-0.5-0.7-0.4-1.7,0.3-2.2C450.8,102.2,451.8,102.3,452.4,103z M462.1,94.7c1.2,0,2.2,1,2.2,2.2s-1,2.2-2.2,2.2
			c-1.2,0-2.2-1-2.2-2.2C459.9,95.7,460.8,94.7,462.1,94.7z M476.3,90c1.2,0,2.2,1,2.2,2.2s-1,2.2-2.2,2.2c-1.2,0-2.2-1-2.2-2.2
			S475.1,90,476.3,90z M471.4,119.9c-0.8,0.7-2,0.5-2.7-0.3c-0.7-0.8-0.5-2,0.3-2.7c0.8-0.7,2-0.5,2.7,0.3
			C472.4,118,472.2,119.2,471.4,119.9z M478.6,126.7c0,1.7-1.4,3.1-3.1,3.1c-1.7,0-3.1-1.4-3.1-3.1c0-1.7,1.4-3.1,3.1-3.1
			C477.2,123.6,478.6,125,478.6,126.7z M468.2,101.1c0-1.7,1.4-3.1,3.1-3.1c1.7,0,3.1,1.4,3.1,3.1c0,1.7-1.4,3.1-3.1,3.1
			C469.6,104.2,468.2,102.8,468.2,101.1z M465.1,91.4c0-1.2,1-2.2,2.2-2.2c1.2,0,2.2,1,2.2,2.2c0,1.2-1,2.2-2.2,2.2
			C466,93.6,465.1,92.6,465.1,91.4z M478,148.8c-2.6,2.1-6.4,1.6-8.4-1c-2.1-2.6-1.6-6.4,1-8.4c2.6-2.1,6.4-1.6,8.4,1
			C481,143,480.6,146.7,478,148.8z M482.4,87.3c0.9,0,1.6,0.7,1.6,1.6s-0.7,1.6-1.6,1.6s-1.6-0.7-1.6-1.6
			C480.8,88,481.5,87.3,482.4,87.3z M490.7,91.5c0,1.1-0.9,1.9-1.9,1.9c-1.1,0-1.9-0.9-1.9-1.9s0.9-1.9,1.9-1.9
			S490.7,90.5,490.7,91.5z M505.6,97.6c0.9,0,1.6,0.7,1.6,1.6c0,0.9-0.7,1.6-1.6,1.6c-0.9,0-1.6-0.7-1.6-1.6
			C504.1,98.3,504.8,97.6,505.6,97.6z M515.4,119.6c-0.7-0.8-0.5-2,0.3-2.7c0.8-0.7,2-0.5,2.7,0.3c0.7,0.8,0.5,2-0.3,2.7
			C517.2,120.5,516,120.4,515.4,119.6z M512.1,110.2c-1.1,0-1.9-0.9-1.9-1.9c0-1.1,0.9-1.9,1.9-1.9c1.1,0,1.9,0.9,1.9,1.9
			C514,109.4,513.1,110.2,512.1,110.2z M510.1,120.6c-0.7,0.5-1.7,0.4-2.2-0.3c-0.5-0.7-0.4-1.7,0.3-2.2c0.7-0.5,1.7-0.4,2.2,0.3
			C510.9,119.1,510.8,120,510.1,120.6z M498,118.1c0.7-0.5,1.7-0.4,2.2,0.3c0.5,0.7,0.4,1.7-0.3,2.2c-0.7,0.5-1.7,0.4-2.2-0.3
			C497.2,119.6,497.3,118.7,498,118.1z M498.5,130c0.9-0.7,2.3-0.6,3.1,0.4c0.7,0.9,0.6,2.3-0.4,3.1c-0.9,0.7-2.3,0.6-3.1-0.4
			C497.4,132.1,497.5,130.7,498.5,130z M505.6,107.3c-0.9,0-1.6-0.7-1.6-1.6c0-0.9,0.7-1.6,1.6-1.6c0.9,0,1.6,0.7,1.6,1.6
			C507.2,106.6,506.5,107.3,505.6,107.3z M483.3,112.1c-2.1-2.6-1.6-6.4,1-8.4c2.6-2.1,6.4-1.6,8.4,1c2.1,2.6,1.6,6.4-1,8.4
			C489.2,115.1,485.4,114.7,483.3,112.1z M489.5,124.2c-1.3,1.1-3.3,0.8-4.4-0.5c-1.1-1.3-0.8-3.3,0.5-4.4c1.3-1.1,3.3-0.8,4.4,0.5
			C491.1,121.2,490.8,123.2,489.5,124.2L489.5,124.2z M484,144.1c-1.1-1.3-0.8-3.3,0.5-4.4c1.3-1.1,3.3-0.8,4.4,0.5
			c1.1,1.3,0.8,3.3-0.5,4.4C487,145.7,485.1,145.4,484,144.1z M483.6,130c0.9-0.7,2.3-0.6,3.1,0.4c0.7,0.9,0.6,2.3-0.4,3.1
			c-0.9,0.7-2.3,0.6-3.1-0.4C482.5,132.1,482.7,130.7,483.6,130z M497.5,140.6c-0.7-0.9-0.6-2.3,0.4-3.1c0.9-0.7,2.3-0.6,3.1,0.4
			c0.7,0.9,0.6,2.3-0.4,3.1C499.6,141.7,498.2,141.6,497.5,140.6z M536.2,110.7c-2.4,1.1-3.8,3.4-3.8,5.8c-2.1,0.7-4.5,1.4-7.1,1.9
			c-1.4-5-3.7-9.6-6.5-13.8c1.8-1.2,3.7-2.2,5.2-2.9c1.1,1.1,2.8,1.4,4.2,0.6c1.6-0.9,2.2-3,1.3-4.6c-0.9-1.6-3-2.2-4.7-1.2
			c-1.2,0.7-1.8,1.9-1.7,3.2c-1.8,0.8-4,1.6-6.5,2.1c-2.7-3.4-6-6.4-9.5-9c1.6-3.6,3.3-7,5-9.8c-0.5-0.1-1-0.3-1.5-0.5
			c-1.1-0.5-2-1.3-2.8-2.1c-1.8,2.7-4,5.9-6.6,8.9c-3.8-1.9-7.8-3.4-12-4.2c-0.2-3,0.2-5.9,0.6-8.2c1.5-0.2,2.8-1.5,2.9-3.1
			c0.2-1.9-1.2-3.5-3.1-3.7c-1.9-0.2-3.5,1.2-3.7,3.1c-0.1,1.3,0.6,2.6,1.6,3.2c-0.5,2.3-1.3,5.2-2.7,8c-1.8-0.2-3.6-0.3-5.4-0.3
			c-3.4,0-6.8,0.4-10,1.1c-1.4-3.3-2.5-6.5-3.2-9.3c2.5-1.6,3.6-4.9,2.5-7.8c-1.3-3.4-5.1-5.1-8.4-3.8c-3.4,1.3-5,5.1-3.7,8.5
			c0.9,2.4,3.1,4,5.6,4.2c0.7,2.8,1.4,6.2,1.8,9.8c-4.5,1.5-8.7,3.7-12.4,6.5c-1.8-1.7-3.3-3.6-4.5-5.3c0.9-1.2,0.9-3-0.2-4.2
			c-1.2-1.4-3.4-1.6-4.8-0.4c-1.4,1.2-1.6,3.4-0.3,4.8c0.9,1,2.2,1.4,3.5,1.1c1.1,1.7,2.4,3.9,3.4,6.3c-3.1,2.7-5.9,5.7-8.3,9.1
			c-4.3-2-8.3-4.3-11.5-6.4c-0.2,0.5-0.4,1-0.6,1.5c-0.6,1.1-1.4,2-2.3,2.7c3.2,2.3,7,5.4,10.5,9c-1.6,3.4-2.9,7.1-3.6,10.9
			c-1.9-0.1-3.7-0.3-5.2-0.5c-0.2-1.5-1.5-2.8-3.1-2.9c-1.9-0.1-3.5,1.3-3.6,3.1c-0.1,1.9,1.3,3.5,3.2,3.6c1.3,0.1,2.6-0.6,3.2-1.7
			c1.5,0.3,3.3,0.7,5.1,1.3c-0.3,2.1-0.5,4.3-0.5,6.5c0,2.4,0.2,4.7,0.5,7c-4,1.6-7.9,2.8-11.2,3.6c-1.6-2.5-4.7-3.8-7.7-2.8
			c-3.4,1.2-5.3,4.9-4.1,8.3c1.1,3.4,4.9,5.2,8.3,4c2.5-0.8,4.1-3,4.4-5.4c3.3-0.7,7.4-1.3,11.7-1.5c2.1,7.2,5.8,13.7,10.7,19
			c-1.4,2.5-3.1,4.6-4.6,6.4c-1.7-0.7-3.8-0.1-4.9,1.5c-1.3,1.9-0.9,4.4,1,5.7c1.8,1.3,4.4,0.8,5.7-1c0.9-1.3,1-3,0.2-4.4
			c1.4-1.6,3.3-3.5,5.5-5.2c5.7,5.2,12.6,9,20.3,11c-0.1,3-0.4,5.8-0.7,8.3c0.5-0.1,0.9-0.1,1.4-0.1c0.4,0,0.9,0,1.3,0.1
			c1.1,0.2,2,0.5,2.9,1c0.7-2.5,1.7-5.2,3.1-8c1.3,0.1,2.5,0.2,3.8,0.2c6.1,0,11.9-1.1,17.2-3.2c2,2,3.6,4.3,4.8,6.1
			c-1,1.2-1,3,0,4.3c1.2,1.5,3.3,1.8,4.8,0.6c1.5-1.1,1.7-3.3,0.6-4.8c-0.8-1.1-2.2-1.5-3.4-1.2c-1-1.7-2.2-4-3.1-6.5
			c6.1-3,11.6-7.3,15.9-12.5c2.5,0.7,4.7,1.5,6.8,2.3c0-0.5,0.1-1,0.3-1.6c0.3-1.2,0.9-2.2,1.7-3.1c-1.6-0.7-3.4-1.6-5.3-2.5
			c4.7-7.4,7.4-16.1,7.4-25.5c0-2.8-0.2-5.5-0.7-8.1c2.6-1.2,5-2.2,7.2-3c1.8,2.4,5.1,3.2,8,1.9c3.3-1.5,4.7-5.4,3.2-8.7
			C543.3,110.5,539.5,109.1,536.2,110.7L536.2,110.7z"/>
	</g>
	<g>
		<path class="st21" d="M511.3,81c0.9,0.4,1.9,0.7,2.9,0.7c2.7,0,5.1-1.6,6.3-4c1.7-3.5,0.2-7.6-3.2-9.2c-0.9-0.4-1.9-0.7-2.9-0.7
			c-2.7,0-5.1,1.6-6.3,4C506.5,75.2,507.9,79.4,511.3,81z"/>
	</g>
	<g>
		<path class="st21" d="M525.4,168.5c0.9,1.6,2.4,2.8,4.2,3.3c0.6,0.2,1.3,0.3,2,0.3c3,0,5.8-2,6.6-4.9c1.1-3.6-1.1-7.5-4.7-8.5
			c-0.6-0.2-1.3-0.3-2-0.3c-3,0-5.8,2-6.6,4.9C524.3,165,524.6,166.9,525.4,168.5L525.4,168.5z"/>
	</g>
	<g>
		<path class="st21" d="M469.5,187.7c-0.4-0.1-0.7-0.1-1.1-0.1c-3.6,0-6.7,2.7-7.3,6.4c-0.6,4.1,2.2,7.8,6.2,8.4
			c0.4,0.1,0.7,0.1,1.1,0.1c3.6,0,6.7-2.7,7.3-6.4C476.3,192.1,473.5,188.3,469.5,187.7z"/>
	</g>
	<g>
		<path class="st21" d="M417.4,101.5c1,0.6,2.2,0.8,3.3,0.8c2.5,0,4.9-1.4,6-3.6c0.9-1.6,1.1-3.5,0.5-5.2c-0.5-1.8-1.7-3.2-3.4-4.1
			c-1-0.6-2.2-0.8-3.3-0.8c-2.5,0-4.9,1.4-6,3.6C412.7,95.5,414,99.7,417.4,101.5L417.4,101.5z"/>
	</g>
</g>
<g>
	<g>
		<path class="st21" d="M160.1,364.2c0.7,0.9,0.6,2.3-0.4,3.1c-0.9,0.7-2.3,0.6-3.1-0.4c-0.7-0.9-0.6-2.3,0.4-3.1
			C158,363.1,159.4,363.3,160.1,364.2z M167.2,373.9c-0.7,0.6-1.6,0.5-2.2-0.2c-0.6-0.7-0.5-1.6,0.2-2.2c0.7-0.6,1.6-0.5,2.2,0.2
			C167.9,372.4,167.8,373.3,167.2,373.9z M158.3,379.6c0.7-0.6,1.6-0.5,2.2,0.2c0.6,0.7,0.5,1.6-0.2,2.2c-0.7,0.6-1.6,0.5-2.2-0.2
			C157.5,381.1,157.6,380.1,158.3,379.6z M158.3,388.3c-0.8,0.7-2,0.6-2.7-0.2c-0.7-0.8-0.6-2,0.2-2.7c0.8-0.7,2-0.6,2.7,0.2
			C159.2,386.4,159.1,387.6,158.3,388.3z M148.4,392.1c-0.2,0.9-1,1.4-1.8,1.2c-0.9-0.2-1.4-1-1.2-1.8c0.2-0.9,1-1.4,1.8-1.2
			C148,390.4,148.5,391.2,148.4,392.1L148.4,392.1z M154.4,397.3c-0.2,1-1.2,1.7-2.2,1.5c-1-0.2-1.7-1.2-1.5-2.2
			c0.2-1,1.2-1.7,2.2-1.5C153.9,395.3,154.6,396.3,154.4,397.3z M138.7,406.2c-1.2-0.2-2-1.4-1.7-2.6c0.2-1.2,1.4-2,2.6-1.7
			c1.2,0.2,2,1.4,1.7,2.6C141,405.7,139.9,406.4,138.7,406.2z M130.9,391.2c-2.1-2.6-1.6-6.4,1-8.4c2.6-2.1,6.4-1.6,8.4,1
			s1.6,6.4-1,8.4C136.7,394.2,132.9,393.8,130.9,391.2z M104.9,371.1c-1.1-1.3-0.8-3.3,0.5-4.4c1.3-1.1,3.3-0.8,4.4,0.5
			c1.1,1.3,0.8,3.3-0.5,4.4C107.9,372.6,105.9,372.4,104.9,371.1L104.9,371.1z M104.4,357.3c0.9-0.7,2.3-0.6,3.1,0.4
			c0.7,0.9,0.6,2.3-0.4,3.1c-0.9,0.7-2.3,0.6-3.1-0.4C103.3,359.5,103.4,358.1,104.4,357.3z M84.6,365.7c-0.9,0.7-2.3,0.6-3.1-0.4
			c-0.7-0.9-0.6-2.3,0.4-3.1c0.9-0.7,2.3-0.6,3.1,0.4C85.7,363.6,85.6,365,84.6,365.7z M90.4,343.3c0,0.9-0.7,1.6-1.6,1.6
			s-1.6-0.7-1.6-1.6s0.7-1.6,1.6-1.6S90.4,342.5,90.4,343.3z M98.4,350.7c0.5,0.7,0.4,1.7-0.3,2.2c-0.7,0.5-1.7,0.4-2.2-0.3
			c-0.5-0.7-0.4-1.7,0.3-2.2C96.9,349.9,97.9,350,98.4,350.7z M99.5,365.7c-0.9,0.7-2.3,0.6-3.1-0.4c-0.7-0.9-0.6-2.3,0.4-3.1
			c0.9-0.7,2.3-0.6,3.1,0.4C100.6,363.6,100.4,365,99.5,365.7z M96.1,369.9c0.9-0.7,2.3-0.6,3.1,0.4c0.7,0.9,0.6,2.3-0.4,3.1
			c-0.9,0.7-2.3,0.6-3.1-0.4C95,372,95.2,370.6,96.1,369.9z M91.2,378.5c1.3-1.1,3.3-0.8,4.4,0.5c1.1,1.3,0.8,3.3-0.5,4.4
			c-1.3,1.1-3.3,0.8-4.4-0.5C89.7,381.5,89.9,379.5,91.2,378.5z M97.2,335.3c0.5,0.7,0.4,1.7-0.3,2.2c-0.7,0.5-1.7,0.4-2.2-0.3
			c-0.5-0.7-0.4-1.7,0.3-2.2C95.7,334.5,96.7,334.6,97.2,335.3z M106.9,327.1c1.2,0,2.2,1,2.2,2.2c0,1.2-1,2.2-2.2,2.2
			c-1.2,0-2.2-1-2.2-2.2C104.8,328,105.7,327.1,106.9,327.1z M121.2,322.4c1.2,0,2.2,1,2.2,2.2c0,1.2-1,2.2-2.2,2.2
			c-1.2,0-2.2-1-2.2-2.2C119,323.3,120,322.4,121.2,322.4z M116.3,352.2c-0.8,0.7-2,0.5-2.7-0.3c-0.7-0.8-0.5-2,0.3-2.7
			c0.8-0.7,2-0.5,2.7,0.3C117.3,350.4,117.1,351.6,116.3,352.2z M123.5,359.1c0,1.7-1.4,3.1-3.1,3.1c-1.7,0-3.1-1.4-3.1-3.1
			c0-1.7,1.4-3.1,3.1-3.1S123.5,357.3,123.5,359.1z M113.1,333.4c0-1.7,1.4-3.1,3.1-3.1c1.7,0,3.1,1.4,3.1,3.1
			c0,1.7-1.4,3.1-3.1,3.1S113.1,335.2,113.1,333.4z M109.9,323.7c0-1.2,1-2.2,2.2-2.2c1.2,0,2.2,1,2.2,2.2c0,1.2-1,2.2-2.2,2.2
			C110.9,325.9,109.9,324.9,109.9,323.7z M122.9,381.1c-2.6,2.1-6.4,1.6-8.4-1c-2.1-2.6-1.6-6.4,1-8.4c2.6-2.1,6.4-1.6,8.4,1
			C125.9,375.3,125.5,379.1,122.9,381.1z M127.3,319.7c0.9,0,1.6,0.7,1.6,1.6s-0.7,1.6-1.6,1.6s-1.6-0.7-1.6-1.6
			C125.7,320.4,126.4,319.7,127.3,319.7z M135.6,323.9c0,1.1-0.9,1.9-1.9,1.9c-1.1,0-1.9-0.9-1.9-1.9s0.9-1.9,1.9-1.9
			C134.8,322,135.6,322.8,135.6,323.9z M150.5,330c0.9,0,1.6,0.7,1.6,1.6s-0.7,1.6-1.6,1.6s-1.6-0.7-1.6-1.6S149.6,330,150.5,330z
			 M160.2,351.9c-0.7-0.8-0.5-2,0.3-2.7c0.8-0.7,2-0.5,2.7,0.3c0.7,0.8,0.5,2-0.3,2.7C162.1,352.9,160.9,352.7,160.2,351.9z
			 M156.9,342.6c-1.1,0-1.9-0.9-1.9-1.9c0-1.1,0.9-1.9,1.9-1.9c1.1,0,1.9,0.9,1.9,1.9C158.8,341.7,158,342.6,156.9,342.6z
			 M155,352.9c-0.7,0.5-1.7,0.4-2.2-0.3c-0.5-0.7-0.4-1.7,0.3-2.2c0.7-0.5,1.7-0.4,2.2,0.3C155.8,351.4,155.7,352.4,155,352.9z
			 M142.8,350.5c0.7-0.5,1.7-0.4,2.2,0.3c0.5,0.7,0.4,1.7-0.3,2.2c-0.7,0.5-1.7,0.4-2.2-0.3S142.2,351,142.8,350.5z M143.4,362.3
			c0.9-0.7,2.3-0.6,3.1,0.4c0.7,0.9,0.6,2.3-0.4,3.1c-0.9,0.7-2.3,0.6-3.1-0.4C142.3,364.4,142.4,363.1,143.4,362.3z M150.5,339.6
			c-0.9,0-1.6-0.7-1.6-1.6c0-0.9,0.7-1.6,1.6-1.6s1.6,0.7,1.6,1.6C152.1,338.9,151.4,339.6,150.5,339.6z M128.2,344.4
			c-2.1-2.6-1.6-6.4,1-8.4c2.6-2.1,6.4-1.6,8.4,1c2.1,2.6,1.6,6.4-1,8.4C134,347.5,130.3,347,128.2,344.4z M134.4,356.6
			c-1.3,1.1-3.3,0.8-4.4-0.5c-1.1-1.3-0.8-3.3,0.5-4.4c1.3-1.1,3.3-0.8,4.4,0.5C135.9,353.6,135.7,355.5,134.4,356.6L134.4,356.6z
			 M128.9,376.4c-1.1-1.3-0.8-3.3,0.5-4.4c1.3-1.1,3.3-0.8,4.4,0.5c1.1,1.3,0.8,3.3-0.5,4.4C131.9,378,130,377.8,128.9,376.4z
			 M128.5,362.3c0.9-0.7,2.3-0.6,3.1,0.4c0.7,0.9,0.6,2.3-0.4,3.1c-0.9,0.7-2.3,0.6-3.1-0.4C127.4,364.4,127.6,363.1,128.5,362.3z
			 M142.4,373c-0.7-0.9-0.6-2.3,0.4-3.1c0.9-0.7,2.3-0.6,3.1,0.4c0.7,0.9,0.6,2.3-0.4,3.1C144.5,374.1,143.1,373.9,142.4,373z
			 M181,343c-2.4,1.1-3.8,3.4-3.8,5.8c-2.1,0.7-4.5,1.4-7.1,1.9c-1.4-5-3.7-9.6-6.5-13.8c1.8-1.2,3.7-2.2,5.2-2.9
			c1.1,1.1,2.8,1.4,4.2,0.6c1.6-0.9,2.2-3,1.3-4.6c-0.9-1.6-3-2.2-4.7-1.2c-1.2,0.7-1.8,1.9-1.7,3.2c-1.8,0.8-4,1.6-6.5,2.1
			c-2.7-3.4-6-6.4-9.5-9c1.6-3.6,3.3-7,5-9.8c-0.5-0.1-1-0.3-1.5-0.5c-1.1-0.5-2-1.3-2.8-2.1c-1.8,2.7-4,5.9-6.6,8.9
			c-3.8-1.9-7.8-3.4-12-4.2c-0.2-3,0.2-5.9,0.6-8.2c1.5-0.2,2.8-1.5,2.9-3.1c0.2-1.9-1.2-3.5-3.1-3.7c-1.9-0.2-3.5,1.2-3.7,3.1
			c-0.1,1.3,0.6,2.6,1.6,3.2c-0.5,2.3-1.3,5.2-2.7,8c-1.8-0.2-3.6-0.3-5.4-0.3c-3.4,0-6.8,0.4-10,1.1c-1.4-3.3-2.5-6.5-3.2-9.3
			c2.5-1.6,3.6-4.9,2.5-7.8c-1.3-3.4-5.1-5.1-8.4-3.8c-3.4,1.3-5,5.1-3.7,8.5c0.9,2.4,3.1,4,5.6,4.2c0.7,2.8,1.4,6.2,1.8,9.8
			c-4.5,1.5-8.7,3.7-12.4,6.5c-1.8-1.7-3.3-3.6-4.5-5.3c0.9-1.2,0.9-3-0.2-4.2c-1.2-1.4-3.4-1.6-4.8-0.4c-1.4,1.2-1.6,3.4-0.3,4.8
			c0.9,1,2.2,1.4,3.5,1.1c1.1,1.7,2.4,3.9,3.4,6.3c-3.1,2.7-5.9,5.7-8.3,9.1c-4.3-2-8.3-4.3-11.5-6.4c-0.2,0.5-0.4,1-0.6,1.5
			c-0.6,1.1-1.4,2-2.3,2.7c3.2,2.3,7,5.4,10.5,9c-1.6,3.4-2.9,7.1-3.6,10.9c-1.9-0.1-3.7-0.3-5.2-0.5c-0.2-1.5-1.5-2.8-3.1-2.9
			c-1.9-0.1-3.5,1.3-3.6,3.1s1.3,3.5,3.2,3.6c1.3,0.1,2.6-0.6,3.2-1.7c1.5,0.3,3.3,0.7,5.1,1.3c-0.3,2.1-0.5,4.3-0.5,6.5
			c0,2.4,0.2,4.7,0.5,7c-4,1.6-7.9,2.8-11.2,3.6c-1.6-2.5-4.7-3.8-7.7-2.8c-3.4,1.2-5.3,4.9-4.1,8.3c1.1,3.4,4.9,5.2,8.3,4
			c2.5-0.8,4.1-3,4.4-5.4c3.3-0.7,7.4-1.3,11.7-1.5c2.1,7.2,5.8,13.7,10.7,19c-1.4,2.5-3.1,4.6-4.6,6.4c-1.7-0.7-3.8-0.1-4.9,1.5
			c-1.3,1.9-0.9,4.4,1,5.7c1.8,1.3,4.4,0.8,5.7-1c0.9-1.3,1-3,0.2-4.4c1.4-1.6,3.3-3.5,5.5-5.2c5.7,5.2,12.6,9,20.3,11
			c-0.1,3-0.4,5.8-0.7,8.3c0.5-0.1,0.9-0.1,1.4-0.1c0.4,0,0.9,0,1.3,0.1c1.1,0.2,2,0.5,2.9,1c0.7-2.5,1.7-5.2,3.1-8
			c1.3,0.1,2.5,0.2,3.8,0.2c6.1,0,11.9-1.1,17.2-3.2c2,2,3.6,4.3,4.8,6.1c-1,1.2-1,3,0,4.3c1.2,1.5,3.3,1.8,4.8,0.6
			c1.5-1.1,1.7-3.3,0.6-4.8c-0.8-1.1-2.2-1.5-3.4-1.2c-1-1.7-2.2-4-3.1-6.5c6.1-3,11.6-7.3,15.9-12.5c2.5,0.7,4.7,1.5,6.8,2.3
			c0-0.5,0.1-1,0.3-1.6c0.3-1.2,0.9-2.2,1.7-3.1c-1.6-0.7-3.4-1.6-5.3-2.5c4.7-7.4,7.4-16.1,7.4-25.5c0-2.8-0.2-5.5-0.7-8.1
			c2.6-1.2,5-2.2,7.2-3c1.8,2.4,5.1,3.2,8,1.9c3.3-1.5,4.7-5.4,3.2-8.7C188.2,342.9,184.3,341.5,181,343L181,343z"/>
	</g>
	<g>
		<path class="st21" d="M156.2,313.3c0.9,0.4,1.9,0.7,2.9,0.7c2.7,0,5.1-1.6,6.3-4c1.7-3.5,0.2-7.6-3.2-9.2
			c-0.9-0.4-1.9-0.7-2.9-0.7c-2.7,0-5.1,1.6-6.3,4C151.3,307.6,152.8,311.7,156.2,313.3z"/>
	</g>
	<g>
		<path class="st21" d="M170.3,400.8c0.9,1.6,2.4,2.8,4.2,3.3c0.6,0.2,1.3,0.3,2,0.3c3,0,5.8-2,6.6-4.9c1.1-3.6-1.1-7.5-4.7-8.5
			c-0.6-0.2-1.3-0.3-2-0.3c-3,0-5.8,2-6.6,4.9C169.2,397.4,169.4,399.2,170.3,400.8L170.3,400.8z"/>
	</g>
	<g>
		<path class="st21" d="M114.4,420.1c-0.4-0.1-0.7-0.1-1.1-0.1c-3.6,0-6.7,2.7-7.3,6.4c-0.6,4.1,2.2,7.8,6.2,8.4
			c0.4,0.1,0.7,0.1,1.1,0.1c3.6,0,6.7-2.7,7.3-6.4C121.2,424.4,118.4,420.7,114.4,420.1z"/>
	</g>
	<g>
		<path class="st21" d="M62.3,333.9c1,0.6,2.2,0.8,3.3,0.8c2.5,0,4.9-1.4,6-3.6c0.9-1.6,1.1-3.5,0.5-5.2c-0.5-1.8-1.7-3.2-3.4-4.1
			c-1-0.6-2.2-0.8-3.3-0.8c-2.5,0-4.9,1.4-6,3.6C57.6,327.9,58.9,332.1,62.3,333.9L62.3,333.9z"/>
	</g>
</g>
<g>
	<g>
		<path class="st21" d="M574.7,390.1c0.7,0.9,0.6,2.3-0.4,3.1c-0.9,0.7-2.3,0.6-3.1-0.4c-0.7-0.9-0.6-2.3,0.4-3.1
			C572.6,389,574,389.2,574.7,390.1z M581.8,399.8c-0.7,0.6-1.6,0.5-2.2-0.2c-0.6-0.7-0.5-1.6,0.2-2.2c0.7-0.6,1.6-0.5,2.2,0.2
			C582.5,398.3,582.5,399.3,581.8,399.8z M572.9,405.5c0.7-0.6,1.6-0.5,2.2,0.2c0.6,0.7,0.5,1.6-0.2,2.2c-0.7,0.6-1.6,0.5-2.2-0.2
			C572.1,407.1,572.2,406.1,572.9,405.5z M573,414.2c-0.8,0.7-2,0.6-2.7-0.2c-0.7-0.8-0.6-2,0.2-2.7c0.8-0.7,2-0.6,2.7,0.2
			C573.8,412.3,573.8,413.5,573,414.2z M563,418c-0.2,0.9-1,1.4-1.8,1.2c-0.9-0.2-1.4-1-1.2-1.8c0.2-0.9,1-1.4,1.8-1.2
			C562.6,416.3,563.2,417.1,563,418L563,418z M569,423.3c-0.2,1-1.2,1.7-2.2,1.5c-1-0.2-1.7-1.2-1.5-2.2c0.2-1,1.2-1.7,2.2-1.5
			C568.6,421.2,569.2,422.2,569,423.3z M553.3,432.1c-1.2-0.2-2-1.4-1.7-2.6c0.2-1.2,1.4-2,2.6-1.7c1.2,0.2,2,1.4,1.7,2.6
			C555.6,431.6,554.5,432.4,553.3,432.1z M545.5,417.1c-2.1-2.6-1.6-6.4,1-8.4c2.6-2.1,6.4-1.6,8.4,1s1.6,6.4-1,8.4
			C551.3,420.2,547.6,419.7,545.5,417.1z M519.5,397c-1.1-1.3-0.8-3.3,0.5-4.4c1.3-1.1,3.3-0.8,4.4,0.5c1.1,1.3,0.8,3.3-0.5,4.4
			C522.5,398.6,520.6,398.3,519.5,397L519.5,397z M519,383.3c0.9-0.7,2.3-0.6,3.1,0.4c0.7,0.9,0.6,2.3-0.4,3.1
			c-0.9,0.7-2.3,0.6-3.1-0.4C517.9,385.4,518,384,519,383.3z M499.2,391.7c-0.9,0.7-2.3,0.6-3.1-0.4c-0.7-0.9-0.6-2.3,0.4-3.1
			c0.9-0.7,2.3-0.6,3.1,0.4C500.3,389.5,500.2,390.9,499.2,391.7z M505,369.3c0,0.9-0.7,1.6-1.6,1.6c-0.9,0-1.6-0.7-1.6-1.6
			s0.7-1.6,1.6-1.6C504.3,367.7,505,368.4,505,369.3z M513,376.6c0.5,0.7,0.4,1.7-0.3,2.2c-0.7,0.5-1.7,0.4-2.2-0.3
			c-0.5-0.7-0.4-1.7,0.3-2.2S512.5,376,513,376.6z M514.1,391.7c-0.9,0.7-2.3,0.6-3.1-0.4c-0.7-0.9-0.6-2.3,0.4-3.1
			c0.9-0.7,2.3-0.6,3.1,0.4C515.2,389.5,515,390.9,514.1,391.7z M510.7,395.8c0.9-0.7,2.3-0.6,3.1,0.4c0.7,0.9,0.6,2.3-0.4,3.1
			c-0.9,0.7-2.3,0.6-3.1-0.4C509.6,397.9,509.8,396.6,510.7,395.8z M505.9,404.4c1.3-1.1,3.3-0.8,4.4,0.5c1.1,1.3,0.8,3.3-0.5,4.4
			c-1.3,1.1-3.3,0.8-4.4-0.5C504.3,407.4,504.5,405.5,505.9,404.4z M511.9,361.2c0.5,0.7,0.4,1.7-0.3,2.2c-0.7,0.5-1.7,0.4-2.2-0.3
			c-0.5-0.7-0.4-1.7,0.3-2.2C510.3,360.5,511.3,360.6,511.9,361.2z M521.5,353c1.2,0,2.2,1,2.2,2.2s-1,2.2-2.2,2.2
			c-1.2,0-2.2-1-2.2-2.2C519.4,354,520.3,353,521.5,353z M535.8,348.3c1.2,0,2.2,1,2.2,2.2s-1,2.2-2.2,2.2s-2.2-1-2.2-2.2
			S534.6,348.3,535.8,348.3z M530.9,378.2c-0.8,0.7-2,0.5-2.7-0.3c-0.7-0.8-0.5-2,0.3-2.7c0.8-0.7,2-0.5,2.7,0.3
			C531.9,376.3,531.7,377.5,530.9,378.2z M538.1,385c0,1.7-1.4,3.1-3.1,3.1c-1.7,0-3.1-1.4-3.1-3.1c0-1.7,1.4-3.1,3.1-3.1
			S538.1,383.3,538.1,385z M527.7,359.4c0-1.7,1.4-3.1,3.1-3.1c1.7,0,3.1,1.4,3.1,3.1c0,1.7-1.4,3.1-3.1,3.1
			C529.1,362.5,527.7,361.1,527.7,359.4z M524.6,349.6c0-1.2,1-2.2,2.2-2.2c1.2,0,2.2,1,2.2,2.2c0,1.2-1,2.2-2.2,2.2
			C525.5,351.8,524.6,350.8,524.6,349.6z M537.5,407.1c-2.6,2.1-6.4,1.6-8.4-1s-1.6-6.4,1-8.4s6.4-1.6,8.4,1
			C540.5,401.2,540.1,405,537.5,407.1z M541.9,345.6c0.9,0,1.6,0.7,1.6,1.6s-0.7,1.6-1.6,1.6c-0.9,0-1.6-0.7-1.6-1.6
			C540.3,346.3,541,345.6,541.9,345.6z M550.2,349.8c0,1.1-0.9,1.9-1.9,1.9c-1.1,0-1.9-0.9-1.9-1.9c0-1.1,0.9-1.9,1.9-1.9
			C549.4,347.9,550.2,348.8,550.2,349.8z M565.1,355.9c0.9,0,1.6,0.7,1.6,1.6s-0.7,1.6-1.6,1.6c-0.9,0-1.6-0.7-1.6-1.6
			S564.3,355.9,565.1,355.9z M574.8,377.8c-0.7-0.8-0.5-2,0.3-2.7c0.8-0.7,2-0.5,2.7,0.3c0.7,0.8,0.5,2-0.3,2.7
			C576.7,378.8,575.5,378.7,574.8,377.8z M571.5,368.5c-1.1,0-1.9-0.9-1.9-1.9s0.9-1.9,1.9-1.9c1.1,0,1.9,0.9,1.9,1.9
			S572.6,368.5,571.5,368.5z M569.6,378.8c-0.7,0.5-1.7,0.4-2.2-0.3c-0.5-0.7-0.4-1.7,0.3-2.2c0.7-0.5,1.7-0.4,2.2,0.3
			S570.3,378.3,569.6,378.8z M557.4,376.4c0.7-0.5,1.7-0.4,2.2,0.3c0.5,0.7,0.4,1.7-0.3,2.2c-0.7,0.5-1.7,0.4-2.2-0.3
			S556.8,376.9,557.4,376.4z M558,388.3c0.9-0.7,2.3-0.6,3.1,0.4c0.7,0.9,0.6,2.3-0.4,3.1c-0.9,0.7-2.3,0.6-3.1-0.4
			C556.9,390.4,557,389,558,388.3z M565.1,365.5c-0.9,0-1.6-0.7-1.6-1.6c0-0.9,0.7-1.6,1.6-1.6c0.9,0,1.6,0.7,1.6,1.6
			C566.7,364.8,566,365.5,565.1,365.5z M542.8,370.4c-2.1-2.6-1.6-6.4,1-8.4s6.4-1.6,8.4,1c2.1,2.6,1.6,6.4-1,8.4
			C548.7,373.4,544.9,373,542.8,370.4z M549,382.5c-1.3,1.1-3.3,0.8-4.4-0.5c-1.1-1.3-0.8-3.3,0.5-4.4c1.3-1.1,3.3-0.8,4.4,0.5
			C550.6,379.5,550.3,381.4,549,382.5L549,382.5z M543.5,402.4c-1.1-1.3-0.8-3.3,0.5-4.4c1.3-1.1,3.3-0.8,4.4,0.5
			c1.1,1.3,0.8,3.3-0.5,4.4C546.5,403.9,544.6,403.7,543.5,402.4z M543.1,388.3c0.9-0.7,2.3-0.6,3.1,0.4c0.7,0.9,0.6,2.3-0.4,3.1
			c-0.9,0.7-2.3,0.6-3.1-0.4C542,390.4,542.2,389,543.1,388.3z M557,398.9c-0.7-0.9-0.6-2.3,0.4-3.1c0.9-0.7,2.3-0.6,3.1,0.4
			c0.7,0.9,0.6,2.3-0.4,3.1C559.1,400,557.7,399.8,557,398.9z M595.7,368.9c-2.4,1.1-3.8,3.4-3.8,5.8c-2.1,0.7-4.5,1.4-7.1,1.9
			c-1.4-5-3.7-9.6-6.5-13.8c1.8-1.2,3.7-2.2,5.2-2.9c1.1,1.1,2.8,1.4,4.2,0.6c1.6-0.9,2.2-3,1.3-4.6c-0.9-1.6-3-2.2-4.7-1.2
			c-1.2,0.7-1.8,1.9-1.7,3.2c-1.8,0.8-4,1.6-6.5,2.1c-2.7-3.4-6-6.4-9.5-9c1.6-3.6,3.3-7,5-9.8c-0.5-0.1-1-0.3-1.5-0.5
			c-1.1-0.5-2-1.3-2.8-2.1c-1.8,2.7-4,5.9-6.6,8.9c-3.8-1.9-7.8-3.4-12-4.2c-0.2-3,0.2-5.9,0.6-8.2c1.5-0.2,2.8-1.5,2.9-3.1
			c0.2-1.9-1.2-3.5-3.1-3.7c-1.9-0.2-3.5,1.2-3.7,3.1c-0.1,1.3,0.6,2.6,1.6,3.2c-0.5,2.3-1.3,5.2-2.7,8c-1.8-0.2-3.6-0.3-5.4-0.3
			c-3.4,0-6.8,0.4-10,1.1c-1.4-3.3-2.5-6.5-3.2-9.3c2.5-1.6,3.6-4.9,2.5-7.8c-1.3-3.4-5.1-5.1-8.4-3.8c-3.3,1.3-5,5.1-3.7,8.5
			c0.9,2.4,3.1,4,5.6,4.2c0.7,2.8,1.4,6.2,1.8,9.8c-4.5,1.5-8.7,3.7-12.4,6.5c-1.8-1.7-3.3-3.6-4.5-5.3c0.9-1.2,0.9-3-0.2-4.2
			c-1.2-1.4-3.4-1.6-4.8-0.4c-1.4,1.2-1.6,3.4-0.3,4.8c0.9,1,2.2,1.4,3.5,1.1c1.1,1.7,2.4,3.9,3.4,6.3c-3.1,2.7-5.9,5.7-8.3,9.1
			c-4.3-2-8.3-4.3-11.5-6.4c-0.2,0.5-0.4,1-0.6,1.5c-0.6,1.1-1.4,2-2.3,2.7c3.2,2.3,7,5.4,10.5,9c-1.6,3.4-2.9,7.1-3.6,10.9
			c-1.9-0.1-3.7-0.3-5.2-0.5c-0.2-1.5-1.5-2.8-3.1-2.9c-1.9-0.1-3.5,1.3-3.6,3.1c-0.1,1.9,1.3,3.5,3.2,3.6c1.3,0.1,2.6-0.6,3.2-1.7
			c1.5,0.3,3.3,0.7,5.1,1.3c-0.3,2.1-0.5,4.3-0.5,6.5c0,2.4,0.2,4.7,0.5,7c-4,1.6-7.9,2.8-11.2,3.6c-1.6-2.5-4.7-3.8-7.7-2.8
			c-3.4,1.2-5.3,4.9-4.1,8.3c1.1,3.4,4.9,5.2,8.3,4c2.5-0.8,4.1-3,4.4-5.4c3.3-0.7,7.4-1.3,11.7-1.5c2.1,7.2,5.8,13.7,10.7,19
			c-1.4,2.5-3.1,4.6-4.6,6.4c-1.7-0.7-3.8-0.1-4.9,1.5c-1.3,1.9-0.9,4.4,1,5.7c1.8,1.3,4.4,0.8,5.7-1c0.9-1.3,1-3,0.2-4.4
			c1.4-1.6,3.3-3.5,5.5-5.2c5.7,5.2,12.6,9,20.3,11c-0.1,3-0.4,5.8-0.7,8.3c0.5-0.1,0.9-0.1,1.4-0.1c0.4,0,0.9,0,1.3,0.1
			c1.1,0.2,2,0.5,2.9,1c0.7-2.5,1.7-5.2,3.1-8c1.3,0.1,2.5,0.2,3.8,0.2c6.1,0,11.9-1.1,17.2-3.2c2,2,3.6,4.3,4.8,6.1
			c-1,1.2-1,3,0,4.3c1.2,1.5,3.3,1.8,4.8,0.6c1.5-1.1,1.7-3.3,0.6-4.8c-0.8-1.1-2.2-1.5-3.4-1.2c-1-1.7-2.2-4-3.1-6.5
			c6.1-3,11.6-7.3,15.9-12.5c2.5,0.7,4.7,1.5,6.8,2.3c0-0.5,0.1-1,0.3-1.6c0.3-1.2,0.9-2.2,1.7-3.1c-1.6-0.7-3.4-1.6-5.3-2.5
			c4.7-7.4,7.4-16.1,7.4-25.5c0-2.8-0.2-5.5-0.7-8.1c2.6-1.2,5-2.2,7.2-3c1.8,2.4,5.1,3.2,8,1.9c3.3-1.5,4.7-5.4,3.2-8.7
			C602.8,368.8,599,367.4,595.7,368.9L595.7,368.9z"/>
	</g>
	<g>
		<path class="st21" d="M570.8,339.3c0.9,0.4,1.9,0.7,2.9,0.7c2.7,0,5.1-1.6,6.3-4c1.7-3.5,0.2-7.6-3.2-9.2
			c-0.9-0.4-1.9-0.7-2.9-0.7c-2.7,0-5.1,1.6-6.3,4C566,333.5,567.4,337.6,570.8,339.3z"/>
	</g>
	<g>
		<path class="st21" d="M584.9,426.7c0.9,1.6,2.4,2.8,4.2,3.3c0.6,0.2,1.3,0.3,2,0.3c3,0,5.8-2,6.6-4.9c1.1-3.6-1.1-7.5-4.7-8.5
			c-0.6-0.2-1.3-0.3-2-0.3c-3,0-5.8,2-6.6,4.9C583.8,423.3,584,425.1,584.9,426.7L584.9,426.7z"/>
	</g>
	<g>
		<path class="st21" d="M529,446c-0.4-0.1-0.7-0.1-1.1-0.1c-3.6,0-6.7,2.7-7.3,6.4c-0.6,4.1,2.2,7.8,6.2,8.4
			c0.4,0.1,0.7,0.1,1.1,0.1c3.6,0,6.7-2.7,7.3-6.4C535.8,450.4,533,446.6,529,446z"/>
	</g>
	<g>
		<path class="st21" d="M476.9,359.8c1,0.6,2.2,0.8,3.3,0.8c2.5,0,4.9-1.4,6-3.6c0.9-1.6,1.1-3.5,0.5-5.2c-0.5-1.8-1.7-3.2-3.4-4.1
			c-1-0.6-2.2-0.8-3.3-0.8c-2.5,0-4.9,1.4-6,3.6C472.2,353.8,473.5,358,476.9,359.8L476.9,359.8z"/>
	</g>
</g>
<g>
	<g>
		<path class="st21" d="M337.6,576c0.7,0.8,0.5,2.1-0.3,2.7c-0.8,0.7-2.1,0.5-2.7-0.3c-0.7-0.8-0.5-2.1,0.3-2.7
			C335.7,575,336.9,575.1,337.6,576z M343.9,584.6c-0.6,0.5-1.5,0.4-2-0.2c-0.5-0.6-0.4-1.5,0.2-2c0.6-0.5,1.5-0.4,2,0.2
			C344.6,583.2,344.5,584.1,343.9,584.6z M335.9,589.7c0.6-0.5,1.5-0.4,2,0.2c0.5,0.6,0.4,1.5-0.2,2c-0.6,0.5-1.5,0.4-2-0.2
			C335.3,591.1,335.4,590.2,335.9,589.7z M336,597.4c-0.7,0.6-1.8,0.5-2.4-0.2c-0.6-0.7-0.5-1.8,0.2-2.4c0.7-0.6,1.8-0.5,2.4,0.2
			C336.8,595.8,336.7,596.8,336,597.4z M327.1,600.8c-0.2,0.8-0.9,1.3-1.6,1.1c-0.8-0.2-1.3-0.9-1.1-1.6c0.2-0.8,0.9-1.3,1.6-1.1
			C326.8,599.3,327.3,600.1,327.1,600.8L327.1,600.8z M332.5,605.6c-0.2,0.9-1.1,1.5-2,1.3c-0.9-0.2-1.5-1.1-1.3-2
			c0.2-0.9,1.1-1.5,2-1.3C332.1,603.7,332.7,604.6,332.5,605.6z M318.5,613.5c-1.1-0.2-1.7-1.2-1.5-2.3c0.2-1.1,1.2-1.7,2.3-1.5
			c1.1,0.2,1.7,1.2,1.5,2.3C320.5,613,319.5,613.7,318.5,613.5z M311.5,600.1c-1.8-2.3-1.5-5.7,0.9-7.5c2.3-1.8,5.7-1.5,7.5,0.9
			c1.8,2.3,1.5,5.7-0.9,7.5C316.7,602.8,313.3,602.4,311.5,600.1z M288.3,582.1c-1-1.2-0.8-2.9,0.4-3.9c1.2-1,2.9-0.8,3.9,0.4
			c1,1.2,0.8,2.9-0.4,3.9C291,583.5,289.2,583.3,288.3,582.1L288.3,582.1z M287.8,569.8c0.8-0.7,2.1-0.5,2.7,0.3
			c0.7,0.8,0.5,2.1-0.3,2.7c-0.8,0.7-2.1,0.5-2.7-0.3C286.8,571.7,287,570.5,287.8,569.8z M270.2,577.3c-0.8,0.7-2.1,0.5-2.7-0.3
			c-0.7-0.8-0.5-2.1,0.3-2.7c0.8-0.7,2.1-0.5,2.7,0.3C271.2,575.4,271,576.7,270.2,577.3z M275.3,557.3c0,0.8-0.6,1.4-1.4,1.4
			s-1.4-0.6-1.4-1.4c0-0.8,0.6-1.4,1.4-1.4S275.3,556.6,275.3,557.3z M282.5,563.9c0.5,0.6,0.4,1.5-0.2,2c-0.6,0.5-1.5,0.4-2-0.2
			c-0.5-0.6-0.4-1.5,0.2-2C281.2,563.2,282,563.3,282.5,563.9z M283.4,577.3c-0.8,0.7-2.1,0.5-2.7-0.3c-0.7-0.8-0.5-2.1,0.3-2.7
			c0.8-0.7,2.1-0.5,2.7,0.3C284.4,575.4,284.3,576.7,283.4,577.3z M280.5,581c0.8-0.7,2.1-0.5,2.7,0.3c0.7,0.8,0.5,2.1-0.3,2.7
			s-2.1,0.5-2.7-0.3C279.5,582.9,279.6,581.7,280.5,581z M276.1,588.7c1.2-1,2.9-0.8,3.9,0.4c1,1.2,0.8,2.9-0.4,3.9
			c-1.2,1-2.9,0.8-3.9-0.4C274.7,591.4,274.9,589.6,276.1,588.7z M281.5,550.2c0.5,0.6,0.4,1.5-0.2,2c-0.6,0.5-1.5,0.4-2-0.2
			c-0.5-0.6-0.4-1.5,0.2-2C280.1,549.5,281,549.6,281.5,550.2z M290.1,542.8c1.1,0,1.9,0.9,1.9,1.9s-0.9,1.9-1.9,1.9
			c-1.1,0-1.9-0.9-1.9-1.9S289,542.8,290.1,542.8z M302.8,538.6c1.1,0,1.9,0.9,1.9,1.9c0,1.1-0.9,1.9-1.9,1.9s-1.9-0.9-1.9-1.9
			C300.9,539.5,301.8,538.6,302.8,538.6z M298.5,565.3c-0.7,0.6-1.8,0.5-2.4-0.3c-0.6-0.7-0.5-1.8,0.3-2.4c0.7-0.6,1.8-0.5,2.4,0.3
			C299.3,563.6,299.2,564.7,298.5,565.3z M304.9,571.4c0,1.5-1.2,2.8-2.8,2.8c-1.5,0-2.8-1.2-2.8-2.8c0-1.5,1.2-2.8,2.8-2.8
			C303.6,568.6,304.9,569.8,304.9,571.4z M295.6,548.5c0-1.5,1.2-2.8,2.8-2.8c1.5,0,2.8,1.2,2.8,2.8c0,1.5-1.2,2.8-2.8,2.8
			C296.8,551.3,295.6,550,295.6,548.5z M292.8,539.8c0-1.1,0.9-1.9,1.9-1.9c1.1,0,1.9,0.9,1.9,1.9s-0.9,1.9-1.9,1.9
			C293.7,541.7,292.8,540.9,292.8,539.8z M304.3,591.1c-2.3,1.8-5.7,1.5-7.5-0.9s-1.5-5.7,0.9-7.5c2.3-1.8,5.7-1.5,7.5,0.9
			C307,585.9,306.7,589.2,304.3,591.1z M308.3,536.2c0.8,0,1.4,0.6,1.4,1.4s-0.6,1.4-1.4,1.4c-0.8,0-1.4-0.6-1.4-1.4
			C306.9,536.8,307.5,536.2,308.3,536.2z M315.7,539.9c0,0.9-0.8,1.7-1.7,1.7c-0.9,0-1.7-0.8-1.7-1.7c0-0.9,0.8-1.7,1.7-1.7
			C315,538.2,315.7,539,315.7,539.9z M329,545.4c0.8,0,1.4,0.6,1.4,1.4c0,0.8-0.6,1.4-1.4,1.4c-0.8,0-1.4-0.6-1.4-1.4
			C327.6,546,328.2,545.4,329,545.4z M337.7,565c-0.6-0.7-0.5-1.8,0.3-2.4c0.7-0.6,1.8-0.5,2.4,0.3c0.6,0.7,0.5,1.8-0.3,2.4
			C339.4,565.8,338.3,565.7,337.7,565z M334.8,556.6c-0.9,0-1.7-0.8-1.7-1.7s0.8-1.7,1.7-1.7s1.7,0.8,1.7,1.7
			S335.7,556.6,334.8,556.6z M333.1,565.9c-0.6,0.5-1.5,0.4-2-0.2c-0.5-0.6-0.4-1.5,0.2-2c0.6-0.5,1.5-0.4,2,0.2
			C333.8,564.5,333.7,565.4,333.1,565.9z M322.2,563.7c0.6-0.5,1.5-0.4,2,0.2c0.5,0.6,0.4,1.5-0.2,2c-0.6,0.5-1.5,0.4-2-0.2
			S321.6,564.2,322.2,563.7z M322.6,574.3c0.8-0.7,2.1-0.5,2.7,0.3c0.7,0.8,0.5,2.1-0.3,2.7c-0.8,0.7-2.1,0.5-2.7-0.3
			C321.6,576.2,321.8,574.9,322.6,574.3z M329,554c-0.8,0-1.4-0.6-1.4-1.4s0.6-1.4,1.4-1.4c0.8,0,1.4,0.6,1.4,1.4S329.8,554,329,554
			z M309.1,558.3c-1.8-2.3-1.5-5.7,0.9-7.5s5.7-1.5,7.5,0.9c1.8,2.3,1.5,5.7-0.9,7.5C314.3,561,311,560.6,309.1,558.3z M314.6,569.2
			c-1.2,1-2.9,0.8-3.9-0.4c-1-1.2-0.8-2.9,0.4-3.9c1.2-1,2.9-0.8,3.9,0.4C316,566.5,315.8,568.2,314.6,569.2L314.6,569.2z
			 M309.7,586.9c-1-1.2-0.8-2.9,0.4-3.9c1.2-1,2.9-0.8,3.9,0.4c1,1.2,0.8,2.9-0.4,3.9C312.4,588.3,310.7,588.1,309.7,586.9z
			 M309.4,574.3c0.8-0.7,2.1-0.5,2.7,0.3c0.7,0.8,0.5,2.1-0.3,2.7c-0.8,0.7-2.1,0.5-2.7-0.3C308.4,576.2,308.5,574.9,309.4,574.3z
			 M321.8,583.8c-0.7-0.8-0.5-2.1,0.3-2.7c0.8-0.7,2.1-0.5,2.7,0.3c0.7,0.8,0.5,2.1-0.3,2.7C323.7,584.8,322.4,584.6,321.8,583.8z
			 M356.3,557c-2.1,1-3.4,3-3.4,5.2c-1.8,0.6-4,1.2-6.3,1.7c-1.3-4.4-3.3-8.6-5.8-12.3c1.6-1.1,3.3-1.9,4.7-2.6
			c0.9,1,2.5,1.3,3.8,0.6c1.5-0.8,2-2.7,1.1-4.1c-0.8-1.4-2.7-1.9-4.2-1.1c-1,0.6-1.6,1.7-1.5,2.9c-1.6,0.7-3.6,1.4-5.8,1.9
			c-2.4-3-5.3-5.7-8.5-8c1.4-3.3,3-6.2,4.5-8.8c-0.5-0.1-0.9-0.3-1.3-0.5c-1-0.5-1.8-1.1-2.5-1.9c-1.6,2.5-3.6,5.2-5.9,8
			c-3.3-1.7-7-3-10.7-3.8c-0.1-2.7,0.2-5.3,0.5-7.3c1.4-0.2,2.5-1.3,2.6-2.8c0.1-1.7-1.1-3.2-2.7-3.3c-1.7-0.1-3.1,1.1-3.3,2.8
			c-0.1,1.2,0.5,2.3,1.5,2.9c-0.4,2-1.2,4.7-2.4,7.1c-1.6-0.2-3.2-0.3-4.8-0.3c-3.1,0-6,0.3-8.9,0.9c-1.2-2.9-2.2-5.8-2.9-8.3
			c2.2-1.5,3.2-4.4,2.2-7c-1.2-3-4.5-4.5-7.5-3.4c-3,1.1-4.5,4.5-3.3,7.6c0.8,2.2,2.8,3.6,5,3.8c0.6,2.5,1.2,5.5,1.6,8.7
			c-4,1.4-7.7,3.3-11.1,5.8c-1.6-1.6-3-3.3-4-4.7c0.8-1.1,0.8-2.7-0.2-3.8c-1.1-1.3-3-1.4-4.3-0.3c-1.3,1.1-1.4,3-0.3,4.3
			c0.8,0.9,2,1.2,3.1,1c1,1.5,2.2,3.4,3,5.6c-2.8,2.4-5.3,5.1-7.4,8.2c-3.9-1.8-7.4-3.8-10.3-5.7c-0.1,0.5-0.3,0.9-0.6,1.3
			c-0.5,0.9-1.2,1.8-2,2.4c2.9,2.1,6.3,4.8,9.4,8c-1.5,3.1-2.6,6.3-3.2,9.7c-1.7,0-3.3-0.2-4.6-0.5c-0.2-1.4-1.4-2.5-2.8-2.6
			c-1.7-0.1-3.1,1.1-3.3,2.8c-0.1,1.7,1.2,3.1,2.8,3.2c1.2,0.1,2.3-0.5,2.9-1.5c1.3,0.3,2.9,0.6,4.6,1.2c-0.3,1.9-0.4,3.9-0.4,5.8
			c0,2.1,0.2,4.2,0.5,6.2c-3.5,1.5-7.1,2.5-10,3.2c-1.4-2.3-4.2-3.4-6.9-2.5c-3.1,1-4.7,4.3-3.7,7.4c1,3,4.3,4.6,7.4,3.6
			c2.2-0.7,3.7-2.7,3.9-4.8c2.9-0.6,6.6-1.2,10.5-1.3c1.9,6.4,5.2,12.2,9.6,17c-1.3,2.2-2.8,4.1-4.1,5.7c-1.5-0.6-3.4-0.1-4.4,1.3
			c-1.2,1.7-0.8,3.9,0.9,5.1c1.6,1.1,3.9,0.7,5.1-0.9c0.8-1.2,0.9-2.7,0.2-3.9c1.3-1.4,3-3.1,4.9-4.6c5.1,4.6,11.3,8,18.1,9.8
			c-0.1,2.7-0.3,5.2-0.6,7.4c0.4-0.1,0.8-0.1,1.3-0.1c0.4,0,0.8,0,1.2,0.1c0.9,0.1,1.8,0.4,2.6,0.9c0.6-2.2,1.5-4.6,2.7-7.1
			c1.1,0.1,2.2,0.1,3.4,0.1c5.4,0,10.6-1,15.4-2.9c1.8,1.8,3.3,3.8,4.3,5.5c-0.9,1.1-0.9,2.7,0,3.8c1,1.3,2.9,1.6,4.3,0.6
			c1.3-1,1.5-2.9,0.5-4.3c-0.7-1-1.9-1.3-3-1.1c-0.9-1.6-2-3.6-2.8-5.8c5.5-2.7,10.3-6.5,14.2-11.1c2.2,0.7,4.2,1.4,6.1,2.1
			c0-0.5,0.1-0.9,0.3-1.4c0.3-1,0.8-2,1.5-2.8c-1.5-0.6-3.1-1.4-4.7-2.3c4.2-6.6,6.6-14.4,6.6-22.8c0-2.5-0.2-4.9-0.6-7.3
			c2.3-1.1,4.5-2,6.5-2.7c1.6,2.1,4.6,2.9,7.1,1.7c2.9-1.4,4.2-4.8,2.9-7.7C362.7,556.9,359.2,555.7,356.3,557L356.3,557z"/>
	</g>
	<g>
		<path class="st21" d="M334.1,530.5c0.8,0.4,1.7,0.6,2.6,0.6c2.4,0,4.6-1.4,5.6-3.6c1.5-3.1,0.2-6.8-2.9-8.2
			c-0.8-0.4-1.7-0.6-2.6-0.6c-2.4,0-4.6,1.4-5.6,3.6C329.8,525.4,331,529.1,334.1,530.5z"/>
	</g>
	<g>
		<path class="st21" d="M346.7,608.7c0.8,1.4,2.1,2.5,3.7,3c0.6,0.2,1.2,0.3,1.8,0.3c2.7,0,5.2-1.8,5.9-4.4c0.9-3.2-0.9-6.7-4.2-7.6
			c-0.6-0.2-1.2-0.3-1.8-0.3c-2.7,0-5.2,1.8-5.9,4.4C345.7,605.6,345.9,607.2,346.7,608.7L346.7,608.7z"/>
	</g>
	<g>
		<path class="st21" d="M296.8,625.8c-0.3,0-0.6-0.1-0.9-0.1c-3.2,0-6,2.4-6.5,5.7c-0.5,3.6,1.9,7,5.5,7.5c0.3,0,0.6,0.1,0.9,0.1
			c3.2,0,6-2.4,6.5-5.7C302.8,629.7,300.3,626.4,296.8,625.8z"/>
	</g>
	<g>
		<path class="st21" d="M250.2,548.9c0.9,0.5,1.9,0.8,3,0.8c2.3,0,4.3-1.2,5.4-3.2c0.8-1.4,0.9-3.1,0.5-4.7c-0.5-1.6-1.5-2.9-3-3.7
			c-0.9-0.5-1.9-0.8-3-0.8c-2.3,0-4.3,1.2-5.4,3.2C246.1,543.5,247.2,547.3,250.2,548.9L250.2,548.9z"/>
	</g>
</g>
</svg>
